<!-- Generator: Adobe Illustrator 18.1.1, SVG Export Plug-In  -->
<svg version="1.1"
	 xmlns="http://www.w3.org/2000/svg" xmlns:xlink="http://www.w3.org/1999/xlink" xmlns:a="http://ns.adobe.com/AdobeSVGViewerExtensions/3.0/"
	 x="0px" y="0px" width="14.2px" height="12.4px" viewBox="0 0 14.2 12.4" enable-background="new 0 0 14.2 12.4"
	 xml:space="preserve">
<defs>
</defs>
<g>
	<path fill="#ED1F24" d="M5.7,11c0,0.1,0,0.2-0.1,0.3c-0.1,0-0.2,0-0.2,0L2.6,7.7l0.3,4.4c0,0.1,0,0.2-0.1,0.2c-0.1,0-0.2,0-0.2-0.1
		c0,0,0,0,0-0.1l-0.4-5L0.1,4.6c0,0,0,0,0-0.1c0-0.1,0-0.2,0.1-0.2c0.1,0,0.2,0,0.2,0.1l1.7,2.1L1.9,3.8c0-0.1,0-0.2,0.1-0.2
		c0.1,0,0.2,0,0.2,0.1c0,0,0,0,0,0.1L2.5,7L5.7,11C5.7,10.9,5.7,10.9,5.7,11z"/>
	<path fill="#ED1F24" d="M6.4,2.1l3,7.5c0,0.1,0,0.2-0.1,0.2c-0.1,0-0.2,0-0.2-0.1L6.4,2.9l0.5,7.7c0,0.1,0,0.1-0.1,0.2
		c-0.1,0.1-0.3,0.1-0.3-0.1l-3-7.4c0-0.1,0-0.2,0.1-0.3c0.1,0,0.2,0,0.2,0.1l2.6,6.6L6,2.2C6,2.1,6,2,6.1,2l0,0
		C6.3,1.9,6.4,2,6.4,2.1z"/>
	<path fill="#ED1F24" d="M9.8,0.7L9.8,0.7c0,0.1,0,0.2-0.1,0.2l-1,0.4l2.9,7.3c0,0.1,0,0.2-0.1,0.2c-0.1,0-0.2,0-0.3-0.1L8.4,1.5
		l-1,0.4c-0.1,0-0.2,0-0.2-0.1l0,0c0-0.1,0-0.2,0.1-0.2l1.2-0.5l0,0l1.2-0.5C9.7,0.6,9.8,0.6,9.8,0.7z"/>
	<path fill="#ED1F24" d="M13.1,6.5l-2.5-6.2c0-0.1,0-0.2,0.1-0.3C10.9,0,11,0,11,0.1l2.5,6.2c0,0.1,0,0.2-0.1,0.2
		C13.3,6.6,13.1,6.6,13.1,6.5z M14.1,7.4c0.1,0.2,0,0.4-0.2,0.5c-0.2,0.1-0.4,0-0.5-0.2c-0.1-0.2,0-0.4,0.2-0.5
		C13.8,7.2,14.1,7.3,14.1,7.4z"/>
</g>
</svg>
