<!-- Generator: Adobe Illustrator 18.1.1, SVG Export Plug-In  -->
<svg version="1.1"
	 xmlns="http://www.w3.org/2000/svg" xmlns:xlink="http://www.w3.org/1999/xlink" xmlns:a="http://ns.adobe.com/AdobeSVGViewerExtensions/3.0/"
	 x="0px" y="0px" width="102.7px" height="102.7px" viewBox="0 0 102.7 102.7" enable-background="new 0 0 102.7 102.7"
	 xml:space="preserve">
<defs>
</defs>
<g>
	<path fill="#FFFFFF" d="M51.3,102.7C23.1,102.7,0,79.6,0,51.3C0,23.1,23.1,0,51.3,0c28.2,0,51.3,23.1,51.3,51.3
		C102.7,79.6,79.6,102.7,51.3,102.7z"/>
</g>
<g>
	<polygon fill="#1C4C88" points="72.5,30.4 64.6,33.7 68.5,36.7 57.2,50.1 45.9,44.7 24.2,70.8 29.3,75 47.7,52.9 58.9,58.3 
		73.7,40.7 78.2,44.1 79.3,35.6 80.4,27.1 	"/>
	<rect x="45.5" y="55.9" fill="#1C4C88" width="5.5" height="18.8"/>
	<rect x="36.4" y="67.9" fill="#1C4C88" width="5.5" height="6.9"/>
	<rect x="55.8" y="59.4" fill="#1C4C88" width="5.5" height="15.3"/>
	<rect x="65.9" y="50.8" fill="#1C4C88" width="5.5" height="23.9"/>
</g>
</svg>
