<!-- Generator: Adobe Illustrator 18.1.1, SVG Export Plug-In  -->
<svg version="1.1"
	 xmlns="http://www.w3.org/2000/svg" xmlns:xlink="http://www.w3.org/1999/xlink" xmlns:a="http://ns.adobe.com/AdobeSVGViewerExtensions/3.0/"
	 x="0px" y="0px" width="102.7px" height="102.7px" viewBox="0 0 102.7 102.7" enable-background="new 0 0 102.7 102.7"
	 xml:space="preserve">
<defs>
</defs>
<g>
	<path fill="#FFFFFF" d="M51.3,102.7C23.1,102.7,0,79.6,0,51.3C0,23.1,23.1,0,51.3,0c28.2,0,51.3,23.1,51.3,51.3
		C102.7,79.6,79.6,102.7,51.3,102.7z"/>
</g>
<g>
	<path fill="#1C4C88" d="M36.9,62.3c-3.7,0-6.7,3-6.7,6.7c0,3.7,3,6.7,6.7,6.7c3.7,0,6.7-3,6.7-6.7C43.6,65.3,40.6,62.3,36.9,62.3z
		 M36.9,70.9c-1.1,0-2-0.9-2-2c0-1.1,0.9-2,2-2c1.1,0,2,0.9,2,2C38.9,70.1,38,70.9,36.9,70.9z"/>
	<path fill="#1C4C88" d="M57.1,62.3c-3.7,0-6.7,3-6.7,6.7c0,3.7,3,6.7,6.7,6.7c3.7,0,6.7-3,6.7-6.7C63.7,65.3,60.8,62.3,57.1,62.3z
		 M57.1,70.9c-1.1,0-2-0.9-2-2c0-1.1,0.9-2,2-2c1.1,0,2,0.9,2,2C59.1,70.1,58.2,70.9,57.1,70.9z"/>
	<path fill="#1C4C88" d="M82.9,28.1c-0.2-0.1-0.5-0.2-0.8-0.2H69.8l-1.1,4.7l-0.2,1H21.9l6.3,26h38.5l6.5-26.8h8.3
		c0.6,0,1-0.3,1.1-0.6l0.6-3.6C83.2,28.4,83.1,28.3,82.9,28.1z M65.2,38.2l-0.7,0.7l0.5,0.5l-0.5-0.5l-0.6,0.6l0.6-0.7l-0.7-0.7
		H65.2z M53.8,38.2l-0.2,0.2l2.1,2.1l1.6-1.6l-0.7-0.7h1.4l-0.7,0.7l0.5,0.5l-0.5-0.5l-1.6,1.6l1.4,1.4l-1.4-1.4l-2.1,2.1l0.9,0.9
		l-0.9-0.9L52,44.1L53,45L52,44.1l-2.1,2.1l1,1l-1-1l0,0l-2.1-2.1l-1.6,1.6l2.1,2.1l0,0l0.8,0.8l-0.8-0.8l-2.1,2.1l1.2,1.2l-1.2-1.2
		l0,0l-2.1-2.1l-0.7,0.7l0.7-0.7l0,0l2.1-2.1l0,0l1.6-1.6l0,0l2.1-2.1l0,0l1.5-1.6l0,0l2.1-2.1l0,0L53.8,38.2L53.8,38.2z M42.7,53.4
		L42.7,53.4l-1.4,1.4L42.7,53.4l-2.1-2.1l-0.8,0.8l0.8-0.8l0,0l2.1-2.1l-1.6-1.5l-2.1,2.1l0,0L38,50.9l1.1-1.1L37,47.7l-1.1,1.1
		l1.1-1.1l0,0l2.1-2.1l-0.8-0.8l0.8,0.8l0,0l2.1,2.1l0,0l1.6,1.5l0,0l2.1,2.1l0,0l0.7,0.7l-0.7-0.7L42.7,53.4z M33.4,44.1L33.4,44.1
		l-1.1-1.1L33.4,44.1l2.1-2.1l-0.9-0.9l0.9,0.9l0,0l2.1,2.1l1.6-1.6L37,40.4l0,0L36,39.5l0.9,0.9l2.1-2.1l0,0l0.1-0.1l-0.1,0.1
		l2.1,2.1l0.9-0.9l-0.9,0.9l0,0l-2.1,2.1l0,0l-1.6,1.6l0,0l-2.1,2.1l0,0l-0.6,0.6l0.6-0.6L33.4,44.1z M44.8,44.1L44.8,44.1l1.1,1.1
		L44.8,44.1l-2.1,2.1l0,0l-1.1,1.1l1.1-1.1l-2.1-2.1l0,0L39.5,43l1.1,1.1l2.1-2.1l0,0l0.8-0.8L42.7,42L44.8,44.1z M50.6,38.2
		l-0.7,0.7l0.7,0.7l-0.7-0.7l0,0l-0.7-0.7H50.6z M43.4,38.2l-0.7,0.7l1.6,1.6l2.1-2.1l0,0l0.1-0.1l-0.1,0.1l2.1,2.1l1.4-1.4
		l-1.4,1.4l0,0l-2.1,2.1l0.8,0.8l-0.8-0.8l0,0l-2.1-2.1l0,0l-1.6-1.6l0,0L42,38.2H43.4z M28.1,38.2h0.7l-0.6,0.6L28.1,38.2z
		 M29.1,42.9l1.1,1.1l1.6-1.6l-2.1-2.1l-0.9,0.9L28.3,39l0,0l0.5,2.3l0.9-0.9l-0.8-0.8l0.9,0.8l2.1-2.1l-0.1-0.1l0.1,0.1l0,0
		l2.1,2.1l1.6-1.6l-0.7-0.7h1.4l-0.7,0.7l0,0l-1.6,1.6l0,0l-2.1,2.1l0,0l-1.6,1.6l0,0l-0.8,0.8L29.1,42.9z M34.1,55.2L33.9,55
		l-0.3,0.3h-2l-0.4-1.8l0.6-0.6l-0.2-0.2l0.2,0.2l0,0l2.1,2.1l0,0L34.1,55.2L34.1,55.2z M41.4,55.2L41.1,55l-0.3,0.3h-3.6L37,55
		l-0.1,0.1L37,55l-1.6-1.6l-1,1l1-1l-2.1-2.1l-1.2,1.2l1.2-1.2l0,0l2.1-2.1l-1.6-1.5l-2.1,2.1l0,0l-1.1,1.1l0,0l1.1-1.1l-1.6-1.6
		L30,47.4l1.8-1.8L31,44.8l0.8,0.8l0,0l2.1,2.1l0,0l1.6,1.6l0,0l2.1,2.1l0,0l1.6,1.6l0,0l2.1,2.1l0,0L41.4,55.2L41.4,55.2z
		 M48.7,55.2L48.4,55l-0.3,0.3h-3.6L44.2,55L44,55.2h0l0.3-0.3l0,0l2.1-2.1l0,0l1.6-1.6l0,0l2.1-2.1l0,0l1.5-1.5l0,0l2.1-2.1l0,0
		l1.6-1.6l0,0l2.1-2.1l0,0l1.6-1.6l0,0l2.1-2.1l0.2-0.2h0l-0.2,0.2l2.1,2.1l0,0l0,0l-2.1,2.1l0.6,0.6l-0.6-0.6l-0.6,0.6l0.6-0.6
		l-2.1-2.1L57.2,42l2.1,2.1l0,0l0,0l-2.1,2.1l0.9,0.9l-0.9-0.9l-1.6,1.6l0.8,0.8l-0.9-0.8l-2.1,2.1l1.2,1.2l-1.2-1.2L52,51.3
		l0.8,0.8L52,51.3l-2.1,2.1l1.4,1.4l-1.4-1.4L48.4,55L48.7,55.2L48.7,55.2z M62.9,47.7l-2.1,2.1l0,0l0,0l-2.1-2.1l0,0l0,0l2.1-2.1h0
		l0,0L62.9,47.7L62.9,47.7L62.9,47.7z M55.9,55.2L55.6,55l-0.3,0.3h-3.6L51.5,55l-0.3,0.3l0.3-0.3l0,0l2.1-2.1v0l1.6-1.5l0,0l0,0
		l0,0l0,0l2.1-2.1h0l0,0l2.1,2.1l0.6-0.6l-0.6,0.6l0.9,0.9l-0.9-0.9l-2.1,2.1l0,0l0,0l-2.1-2.1l-1.6,1.6l2.1,2.1l0.5-0.5L55.6,55
		L55.9,55.2L55.9,55.2z M63.1,55.2H59L58.8,55l0,0l0,0l2.1-2.1l0,0l0,0L63.1,55.2L63.1,55.2z M63.7,52.7l-1.3-1.3l0,0l0,0l2.1-2.1
		l0,0l0,0l0.1,0.1L63.7,52.7z M64.8,48.3l0.4-1.5l-0.4-0.4l0.4,0.4L64.8,48.3z M65.5,45.1l-1.1,1.1l0,0l0,0l-2.1-2.1l0,0l0,0
		l2.1-2.1l0,0v0l1.5,1.5L65.5,45.1z M66.5,40.9L66,40.5l0,0l0,0l0.8-0.8L66.5,40.9z"/>
	<polygon fill="#1C4C88" points="37.5,51.3 35.4,53.4 37,55 39.1,52.9 	"/>
	<polygon fill="#1C4C88" points="49.9,42 52,44.1 52,44.1 53.6,42.5 51.5,40.4 	"/>
	<polygon fill="#1C4C88" points="57.2,46.1 55.1,44.1 53.6,45.6 55.6,47.7 	"/>
	<polygon fill="#1C4C88" points="53.6,49.8 51.5,47.7 49.9,49.3 52,51.3 	"/>
	<polygon fill="#1C4C88" points="47.9,51.3 46.3,52.9 48.4,55 49.9,53.4 	"/>
</g>
</svg>
