<!-- Generator: Adobe Illustrator 18.1.1, SVG Export Plug-In  -->
<svg version="1.1"
	 xmlns="http://www.w3.org/2000/svg" xmlns:xlink="http://www.w3.org/1999/xlink" xmlns:a="http://ns.adobe.com/AdobeSVGViewerExtensions/3.0/"
	 x="0px" y="0px" width="102.7px" height="102.7px" viewBox="0 0 102.7 102.7" enable-background="new 0 0 102.7 102.7"
	 xml:space="preserve">
<defs>
</defs>
<g>
	<path fill="#FFFFFF" d="M51.3,102.7C23.1,102.7,0,79.6,0,51.3C0,23.1,23.1,0,51.3,0s51.3,23.1,51.3,51.3
		C102.7,79.6,79.6,102.7,51.3,102.7z"/>
</g>
<g>
	<path fill="#1C4C88" d="M50.3,50.1c-0.5,0.3-1.3,0.7-2.1,1.4c-0.8,0.7-1.7,1.5-2.6,2.5l-1.4,1.5l-0.7,0.7c-0.2,0.3-0.5,0.5-0.7,0.8
		c-1,1.1-1.9,2.2-2.8,3.3c-0.8,1.1-1.6,2.2-2.2,3.2c-0.1,0.2-0.3,0.5-0.4,0.7c-0.1-0.3-0.3-0.6-0.5-1c-1.4-2.4-3.2-4.4-4.8-6.7
		c1.1,1.8,2.4,3.7,3.3,5.7c0.4,0.9,1,1.8,1.2,2.8c0.2,0.9-0.6,1.8-0.9,2.7c-0.2,0.5-0.9,1.6-0.5,2.1c0.2,0.3,1,0.2,1.3,0.1
		c0.9-0.3,1.4-1.3,1.6-2.1c0.3-1.1,0.9-2.2,1.4-3.2c0.5-1,1.1-2.1,1.7-3.3c0.7-1.1,1.5-2.3,2.3-3.4c0.2-0.3,0.4-0.6,0.6-0.8L45,56
		l1.2-1.6c0.8-1,1.6-2,2.3-2.7C49.2,51,49.9,50.5,50.3,50.1c0.5-0.2,0.9-0.4,0.9-0.4C51.2,49.7,50.9,49.8,50.3,50.1z"/>
	<path fill="#1C4C88" d="M22.2,42.6c-0.2,1.8,0.1,5.5,0.6,7.2c1.2,3.8,2.5,6.2,5.2,9.2c2,2.1,6.3,3.2,7.7,1.6
		c1.4-1.6,1.5-3.9,1.4-5.3c-0.2-3.1-2.7-6.5-5-8.4C27.8,43.3,24.2,43.7,22.2,42.6z"/>
	<path fill="#1C4C88" d="M84.1,44.1c-3.4-5.7-8.7-9.9-15.3-11.2c-8.2-1.6-18.4,0.2-24.3,6.6c-4.7,5.2-4.9,13.3,1,17.6
		c9.2,6.7,18.9-1.9,26-7.9C75.4,46.1,81.8,44.5,84.1,44.1z"/>
</g>
</svg>
