<svg xmlns="http://www.w3.org/2000/svg" viewBox="0 0 270.8 165.1" enable-background="new 0 0 270.8 165.1"><g fill-rule="evenodd"><path fill="#fccfac" d="m16.3 55.2c-1.7-1.9-10.9-6.2-10.5-9.2.2-1.7 2.2-.9 2.9.1.2-1.5-.7-2.4-1.1-3.7 0 0 .1-.1.1-.1.3.1 2.1 1.7 2.2 1.6 1.9-.4-.1-1.5.2-2.1.4-.9-.6-1.7 1.4-1.1.6.2 1.4 1.5 1.7 2 1.2-.3 1.4-1.6.9-2.8 1.8-.1 2.2 2.9 3.1 4.2 1.7 2.5 1.9 1.4 4.8 1.4.8 2.4-3.8 3.3-2.1 6.5-.8 1.5-2.4 2.5-3.8 3.1"/><path fill="#e7f5fa" d="m105.2 159.3c72.9 13.9 145.5 1.7 162.2-27.4 16.7-29-28.8-63.8-101.7-77.8-72.9-13.8-145.6-1.6-162.3 27.5-16.6 29 28.9 63.8 101.8 77.7"/><path fill="#c9daee" d="m108.5 155.2c52.1 9.9 103.9 1.2 115.9-19.5 11.9-20.7-20.6-45.6-72.7-55.5-52.1-10-104-1.3-115.9 19.4-11.9 20.8 20.6 45.7 72.7 55.6"/><path fill="#69a3d7" d="m110.9 147.8c34.8 6.6 69.4.8 77.4-13.1 8-13.8-13.8-30.5-48.5-37.1-34.8-6.6-69.5-.8-77.5 13.1-7.9 13.8 13.8 30.5 48.6 37.1"/><path fill="#fff" d="m72.3 21.7c0 1.7 0 3.4 0 5.1.9.4 1.9.6 2.8.6-.5-1.5-1-3-1.8-4.6-.3-.3-.7-.7-1-1.1"/><path fill="#fdd0ad" d="m62.9 56.6c0 0 1.5 3.7-.5 6.5-2 2.8-8.3 3.3-9.2-2.7-.8-6 9.7-3.8 9.7-3.8"/><path d="m57.6 65.3c1.9.2 4-.6 5-2.1 2-2.9.6-6.6.5-6.7v-.1h-.1c0 0-.8-.2-1.9-.3-2.5-.3-5.7-.2-7.3 1.4-.7.7-.9 1.7-.8 3 .5 2.8 2.2 4.6 4.6 4.8m5.2-8.5c.2.6 1.2 3.8-.5 6.2-.9 1.3-2.8 2.1-4.6 1.9-2.3-.2-3.8-1.9-4.2-4.5-.2-1.1.1-2 .6-2.6 1.5-1.6 5-1.5 6.9-1.2.9 0 1.5.1 1.8.2z"/><path fill="#fdd0ad" d="m75.9 34.5c0 0 2.5-7.9-3.7-14.5l3.3 2c0 0-3.2-8.8-19.2-10.5-10.4-1.1-16 5.1-16 5.1l.3-3.1-1.9 1.9c0 0-2.7-1-5.4 1.1 0 0 2.3.2 2.2 1 0 0-9.6 2.3-11.7 15.2l1.5-.1c0 0-3.1 6.1-.5 12.6l.9-.4c0 0 1.9 12.2 20.4 15.9 0 0 4.9 1.7 11.7 1.3 7.5-.5 13.9-5.3 17.1-11.5 3.1-6.2 1-16 1-16"/><path d="m51.7 62c2 .2 4.1.3 6.1.1 7.1-.5 13.9-5 17.3-11.6 3.1-5.9 1.2-15.2 1.1-16 .2-.7 2-7.6-2.8-13.6l2.6 1.6-.3-.5c0-.1-3.4-8.9-19.4-10.7-8.8-1-14.2 3.3-15.8 4.7l.3-3.1-2.2 2.2c-.2-.1-.5-.1-.9-.2-1.1-.1-2.8 0-4.5 1.3l-.4.3.7.1c.9.1 1.6.3 1.8.6-1.3.4-9.7 3.5-11.7 15.3v.3l1.4-.1c-.6 1.4-2.6 6.8-.4 12.5l.1.2.9-.4c.3 1.9 3.4 12.5 20.4 15.9 0 0 2.2.7 5.7 1.1m20.6-42.1l-.3.3c6 6.3 3.7 14.2 3.6 14.2v.1.1c0 .1 2.1 9.8-1 15.8-3.3 6.5-10 10.9-16.9 11.4-2 .1-4 .1-6-.1-3.4-.4-5.6-1.1-5.6-1.1-18.2-3.6-20.3-15.6-20.3-15.8v-.3l-.9.4c-2.4-6.2.6-12.2.6-12.2l.2-.3h-1.7c2.2-12.4 11.4-14.8 11.5-14.8h.1v-.1c0-.2 0-.3-.1-.5-.3-.4-1.1-.6-1.7-.7 1.4-.9 2.8-1 3.8-.9.6.1 1 .2 1 .2h.1l1.6-1.6-.3 3.2.4-.5c.1-.1 5.7-6.1 15.8-5 13.2 1.4 17.7 7.8 18.8 9.8l-2.7-1.6z"/><path fill="#b14025" d="m23.7 32.6c2.1-12.9 11.7-15.2 11.7-15.2.2-.8-2.2-1-2.2-1 2.7-2.1 5.4-1.1 5.4-1.1l1.9-1.9-.3 3.1c0 0 5.6-6.2 16-5.1 16.1 1.9 19.3 10.6 19.3 10.6l-3.3-2c6.2 6.5 3.7 14.5 3.7 14.5s-4-16.7-20-15.7c0 0 6.4 3.2 5.1 8.9 0 0-2.7-3.5-3.5-4.5 0 0 .2 10.4-5.2 11.8 0 0-1-4.3-1.1-7.1 0 0-7.1 10.8-7.4 13.9 0 0-5.1-6.6-6.8.6-1.4 6.3 4.7 5.3 4.7 5.3s3.1 9.5 4.3 12.9c-18.5-3.6-20.4-15.9-20.4-15.9l-.9.4c-2.6-6.5.5-12.6.5-12.6l-1.5.1"/><path d="m46.3 60.9l-.1-.4c-1.2-3.4-4.2-12.7-4.2-12.8v-.3h-.3c0 0-.7.1-1.5 0-.8-.1-1.9-.4-2.6-1.3-.6-.9-.7-2.1-.3-3.7.5-2.3 1.4-3.4 2.7-3.2 1.8.2 3.7 2.6 3.7 2.7l.3.4.1-.5c.1-4.1 6.1-11.2 6.9-12.6.3 2.7 1 5.8 1 5.8l.1.2.2-.1c4.8-1.3 5.3-9.2 5.4-11.5 1 1.3 3.1 4 3.1 4l.3.4.1-.4c1.1-4.6-3-7.7-4.6-8.7 1 0 1.9 0 2.8.1 12.8 1.4 16.3 15.3 16.3 15.4l.2.7.2-.7c0-.1 2.2-7.3-2.8-13.6l2.6 1.6-.2-.4c0-.1-3.4-8.9-19.4-10.7-8.8-1-14.2 3.3-15.8 4.7l.3-3.1-2.2 2.2c-.2-.1-.5-.1-.9-.2-1.1-.1-2.8 0-4.5 1.3l-.4.3.7.1c.9.1 1.6.3 1.8.6-1.3.4-9.7 3.5-11.7 15.3v.3l1.4-.1c-.6 1.4-2.6 6.8-.4 12.5l.1.2.9-.4c.3 1.9 3.4 12.5 20.4 15.9h.3m-4.7-12.8c-.2 1.6 3.2 9 4.1 12.3-17.9-3.7-19.9-15.6-19.9-15.7v-.3l-.9.4c-2.4-6.2.6-12.2.6-12.2l.2-.3-1.7.1c2.2-12.4 11.4-14.8 11.5-14.8h.1v-.1c0-.2 0-.3-.1-.5-.3-.4-1.1-.6-1.7-.7 1.4-.9 2.8-1 3.8-.9.6.1 1 .2 1 .2h.1l1.6-1.6-.3 3.2.4-.5c.1-.1 5.7-6.1 15.8-5 13.2 1.4 17.7 7.8 18.8 9.8l-2.7-1.6-.3.3c4.9 5.2 4.2 11.4 3.8 13.5-.9-3-5.1-13.8-16.5-15-1.1-.1-2.3-.1-3.6-.1h-.8l.7.4c.1 0 5.9 3 5.1 8.2-.7-.9-2.5-3.4-3.2-4.1l-.4-.4v.6c0 .1.1 10-4.8 11.6-.2-.9-1-4.4-1-6.8h-.4c-.1.4-6.7 9.9-7.2 13.5-.3-.4-.9-.9-1.5-1.4-.6-.5-1.4-.9-2.2-1-1.5-.2-2.6 1-3.1 3.5-.4 1.7-.3 3.1.4 4.1.6.8 1.6 1.3 2.9 1.5.6-.2 1.1-.2 1.4-.2"/><path d="m56.1 37.9c.2 1 0 1.9-.5 2-.5.1-1.1-.6-1.3-1.6-.2-1 0-1.9.5-2 .5-.2 1 .6 1.3 1.6"/><path d="m60.2 36.3c.3 1 .2 1.9-.3 2.1-.5.2-1.1-.5-1.5-1.4-.3-1-.2-1.9.3-2.1.6-.3 1.2.4 1.5 1.4"/><path d="m51.8 61.9c13.9 1.5 20.4-7.5 20.4-7.5-.4.5-1.3 1.5-2.7 2.4-3.3 2.8-7.5 4.6-11.8 4.9-2 .1-4 .1-6-.1-3-.3-5.1-1-5.5-1.1 0 0 0 .1 0 .1l.1.2c2 .5 3.8.9 5.5 1.1"/><path fill="#fbdfc1" d="m199.4 38.5c-2.7 12.8-14.7 21.1-26.9 18.4-12.2-2.7-19.8-15.2-17.1-28 2.7-12.8 14.7-21.1 26.9-18.4 12.1 2.6 19.8 15.2 17.1 28"/><path d="m176.6 58c-1.2-.1-2.4-.2-3.6-.5-12.3-2.7-20-15.4-17.3-28.3 2.4-11.6 12.3-19.6 23.6-19.1 1.2.1 2.4.2 3.6.5 5.9 1.3 11 5 14.3 10.3 3.3 5.3 4.3 11.7 3 18-2.5 11.7-12.4 19.7-23.6 19.1m2.6-47.4c-11-.5-20.7 7.3-23.1 18.7-2.7 12.7 5 25.2 17 27.8 1.2.3 2.3.4 3.5.5 11 .5 20.7-7.4 23.1-18.7 1.3-6.2.2-12.4-3-17.7-3.2-5.3-8.2-8.8-14-10.1-1.1-.3-2.3-.4-3.5-.5z"/><path fill="#fac492" d="m176.6 57.6c-1.2-.1-2.4-.2-3.5-.5-.6-.1-1.2-.3-1.8-.5 1 .1 1.9.2 2.8.3 9.8.5 16.4-4.9 21.1-14.6 1.3-2.7 2.1-6.1 2.5-9.6.9.7 1.7 1.5 2.6 2.4-.1 1.3-.2 2.5-.5 3.8 0 0 0 0 0 0-.6 2.6-1.5 5.1-2.9 7.3-4.3 7.4-11.9 11.8-20.3 11.4"/><path d="m173.2 37.5c-.2 1.1-1 1.8-1.7 1.7-.7-.1-1.1-1.1-.8-2.2.2-1.1 1-1.8 1.7-1.7.6.2 1 1.2.8 2.2"/><path d="m177.9 38.1c-.2 1.1-1 1.8-1.7 1.7-.7-.1-1.1-1.1-.8-2.2.2-1.1 1-1.8 1.7-1.7.7.1 1.1 1.1.8 2.2"/><path fill="#5f3812" d="m208 38.5c.6-7.7-1.2-13.5-1.2-13.5l1.9-1.7c-5.5-11.9-13.4-11.2-13.4-11.2l2.4-2.2c-2.8-.1-4.5 1.7-4.5 1.7.7-1.7-.1-5.4-.1-5.4l-1.4 3.3c-6.4-13.9-23.2-7.9-23.2-7.9l2.1 1.5c-13.9 1.3-21.8 14.7-22.8 16.6l2.2 3.2c1.5-3 3.1-4.5 3.1-4.5-1.2 2.3-2.1 6.3-2.1 6.3l2.3 4.5c.2-1.1 1.9-3.2 1.9-3.2-1.1 4.1-.8 7.4.5 10.2-.1-2.2 0-4.4.5-6.7.2-1.1.5-2.1.9-3.1 3.4-.8 14.4-2.9 27.1-.2 0 0-1.2 1.4-2.2 1.6 0 0 2.2.8 6.4-.7 0 0-.5 2.1-.1 3.5.4 1.4 2.5-2.8 2.5-2.8s5.7 2.7 9.9 7.3c-.1 1.3-.2 2.6-.5 3.9-.6 2.7-1.6 5.3-2.9 7.6 4.9-2.9 5.4-7 5.4-7v2.8c1.3-1.5 1.7-4.8 1.7-4.8l.4 2.7 3.2-1.8"/><path d="m197.1 46.6l-.3-.3c1.4-2.3 2.3-4.8 2.9-7.5.3-1.2.4-2.5.5-3.8-3.8-4-8.7-6.6-9.6-7.1-.5.9-1.7 3-2.4 3-.1 0-.3-.1-.4-.4-.3-1.1-.1-2.6 0-3.3-2.2.7-3.8.8-4.7.8-.9 0-1.4-.2-1.5-.2l-.6-.2.6-.2c.7-.2 1.5-.9 1.9-1.3-3.1-.7-6.3-1.1-9.5-1.2-8.1-.4-14.5.9-17 1.5-.3 1-.6 2-.8 3-.5 2.2-.6 4.4-.5 6.6l-.4.1c-1.3-2.7-1.5-5.9-.8-9.3-.5.7-1.1 1.6-1.2 2.3l-.1.6-2.6-5.2v-.1c0-.1.7-2.9 1.5-5.1-.6.7-1.4 1.9-2.2 3.4l-.2.3-2.4-3.6.1-.1c.8-1.5 8.6-15 22.4-16.6l-2-1.4.4-.1c0 0 4.3-1.5 9.3-1.2 4.6.2 10.6 2 14 8.9l1.5-3.5.1.6c0 .1.6 3 .3 4.9.7-.5 2.2-1.3 4.2-1.3h.5l-2.3 2.2c1.9.1 8.4 1.2 13.1 11.3l.1.1-1.9 1.7c.3.9 1.7 6.4 1.2 13.5v.1l-3.8 1.9-.2-1.8c-.3 1.1-.8 2.7-1.5 3.7l-.4.4v-2c-.7 1.7-2 4.1-5.3 5.9m-6.7-19.2l.2.1c.1 0 5.8 2.8 10 7.3l.1.1v.1c-.1 1.3-.2 2.7-.5 3.9-.5 2.4-1.4 4.7-2.5 6.9 4.2-2.8 4.7-6.4 4.7-6.4h.4v2.2c.9-1.6 1.3-4.2 1.3-4.2h.4l.3 2.4 3-1.5c.5-7.5-1.2-13.3-1.2-13.3v-.1l1.9-1.7c-5.4-11.6-13.2-11-13.2-11h-.6l2.4-2.3c-2.4.1-3.8 1.6-3.8 1.6l-.3-.2c.5-1.2.2-3.5 0-4.6l-1.3 3.1-.2-.4c-3.3-7.1-9.4-8.8-13.9-9.1-4-.2-7.5.7-8.7 1.1l2.2 1.5-.6.1c-13.6 1.3-21.4 14.3-22.5 16.3l1.9 2.8c1.4-2.8 2.9-4.2 3-4.2l.3.3c-1.1 2-1.9 5.6-2 6.1l2 4c.5-1.2 1.7-2.7 1.7-2.8l.4.2c-.9 3.3-.9 6.4.1 9 0-1.9.2-3.7.5-5.6.2-1 .5-2.1.9-3.2v-.1h.1c2.4-.6 9-1.9 17.2-1.5 3.4.2 6.8.6 10 1.3l.4.1-.2.3c0 0-.8 1-1.7 1.4.2 0 .4.1.7.1 1 0 2.7-.1 4.9-.9l.4-.1-.1.4c0 0-.5 2.1-.1 3.4 0 .1.1.1.1.1.3 0 1.3-1.5 2.1-2.9l-.2-.1z"/><path fill="#45250d" d="m197.6 45.9c1.2-2.1 2-4.5 2.5-6.9.3-1.3.4-2.6.5-3.9v-.1l-.1-.1c-.9-1-1.9-1.9-2.9-2.7.8-8-.2-16.6-.6-19.7 2.6.6 7.6 2.7 11.3 10.8l-1.9 1.7v.1c0 .1 1.8 5.8 1.2 13.3l-3 1.5-.3-2.4h-.4c0 0-.4 2.6-1.3 4.2v-2.2h-.4c.1 0-.4 3.6-4.6 6.4"/><path d="m197 46.5c1.3-2.3 2.3-4.8 2.9-7.6.3-1.3.4-2.6.5-3.9-.9-.9-1.8-1.8-2.7-2.6 0-.1 0-.2 0-.3 1 .8 2 1.7 2.9 2.7l.1.1v.1c-.1 1.3-.2 2.7-.5 3.9-.5 2.4-1.4 4.7-2.5 6.9 4.2-2.8 4.7-6.4 4.7-6.4h.4v2.2c.9-1.6 1.3-4.2 1.3-4.2h.4l.3 2.4 3-1.5c.5-7.5-1.2-13.3-1.2-13.3v-.1l1.9-1.7c-3.7-8.1-8.7-10.2-11.3-10.8 0-.1 0-.2 0-.2 2.7.5 7.8 2.7 11.6 11.1l-1.9 1.7c0 0 1.8 5.8 1.2 13.5l-3.4 1.7-.4-2.7c0 0-.5 3.3-1.7 4.8v-2.8c-.1 0-.6 4.1-5.6 7"/><path d="m53.6 62.3c-2.3 1.6.2 2.3-5.4 3.4-7 1.5-13.3-1.4-19.4-4.6-5.5-2.8-5.9-5.1-9.3-9.7-.3-.4.6-3.4 2-4.2 1.3-.7 1.2-3.6-1.7-1.3-3.3 2.6-2.6-.8-3.6-4-.4-1.2-.8-2.4-2.1-1.8 0 1.4.5 1.4-.4 2.9-.6 1-2.1-2.6-2.9-2.6-.6 0-1.1 1.4-.1 2.2.6.4.2 2.6-1.2.9-.3-.4-1.3-1.7-2-.9-.5.6 2.4 2.5 1.3 3.5-.9.8-3-1.7-2.8.1.1.8 2.5 2.3 3.1 2.8 4.3 4.3 7 5 10.6 10.6 3.3 5.1 5.7 7.6 11.5 9.8 6.2 2.4 13 2.6 19.5 2.5.1 0 .2.1.2.2 0 .1-.1.2-.2.2-6.7.1-13.4-.1-19.7-2.6-5.9-2.3-8.3-4.8-11.7-10-3.7-5.6-6.3-6.2-10.6-10.5-1.1-1.1-3.2-1.8-3.2-3.3.3-2 1.5-.1 2.9-.3.3-1.3-2.3-2.3-1.3-3.4.9-1 2.1.3 2.6 1 1 1.2.7-.2.6-.2-1.3-1.3-.6-3.7 1-3 .8.6.7 1.5 2.1 2.5l.2-.4c.5-1.1-.2-2.1.2-2.4 2.3-1.4 2.9 2.3 3.1 3.6.9 4.9 1 2.8 4 1.3 1.5-.4 1.9.5 1.6 1.8-.7 2.2-1.3-.5-2.7 4.7 3.5 4.5 3.6 6.5 9.2 9.5 6 3.2 12.2 6 19.1 4.5 5.4-1.1 2.8-1.6 5.3-3.4.1-.1.2 0 .3.1.1.3 0 .4-.1.5"/><path d="m101.4 58.8c-9.1 13.2-21.4 12.3-34.5 6.3-.1-.1-.2-.2-.1-.3.1-.1.2-.2.3-.1 13 5.9 24.9 6.9 34-6.1.1-.1.2-.1.2-.1.2.1.2.2.1.3"/><path d="m103 64.5c-6.2 8.5-14.2 11.2-24.3 10.2-3.4-.3-5.5-1-8.7-1.7h-.3c-.1 0-.2-.1-.3-.2 0-.1.1-.2.2-.3l.5.1.8.2c2.8.7 5 1.2 7.8 1.5 10 1 17.8-1.6 23.9-10 .1-.1.2-.1.3-.1.1.1.2.2.1.3"/><path d="m49 71.9c2.7 7.5 3.7 25 4.1 33.3 0 .1-.1.2-.2.2-.1 0-.2-.1-.2-.2-.9-9.1-1.3-24.9-4.2-33.2 0-.1 0-.2.1-.3.3.1.4.1.4.2"/><path d="m70.6 73.1c.6 5.5 2.3 12.8 3.4 18.3.9 4.6 1.9 9.9 3 14.4.1.1 0 .2 0 .3-.1.1-.2 0-.3 0-.9-2.4-2.3-10-2.9-13.1-1.2-6.1-2.9-13.9-3.6-19.9 0-.1.1-.2.2-.2.1 0 .2 0 .2.2"/><path d="m171.2 59c1-1.1.5-.6 1.4-1.6 0-.1.2-.2.3-.1.1 0 .2.2.1.3-1 1.2-.5.6-1.5 1.8-.1.1-.2.1-.3 0-.1-.2-.1-.3 0-.4"/><path d="m168.6 79.4c2.7 2.7 7.5 3.9 11.2 4 4.3.1 7.5-2.3 6.5-7.1-.3-1.4-.6-2.8-.9-4.2 0-.1.1-.2.2-.2.1 0 .2.1.2.2.2 1.1.5 2.2.7 3.3 1.1 4.8-.4 7.2-5.2 8.3-1.7.2-3.6 0-5.2-.3-3.1-.6-5.7-1.4-7.9-3.7-.1-.1 0-.2.1-.3.1-.2.3-.1.3 0"/><path d="m167.1 85.4c4.7 2.5 10.5 3.3 15.8 2.8 3.7-.3 8.6-2.6 9.4-6.7.5-2.8.1-3.6-.3-6.1-.5-3.8 0-3.2-1.6-7-.7-1.6-1.4-3.1-2.2-4.6-1.5-2.3-3.4-4.1-5.1-6.3 0-.1 0-.3.1-.3.1 0 .3 0 .3.1 4 5 4.8 4.9 7.2 10.9 1.6 3.8 1.1 3.3 1.6 7.1.4 2.8 1.2 5.7-.6 8.5-2.8 4.4-8.2 5.1-12.9 4.9-4.3-.2-8.3-.9-12.1-3-.1-.1-.1-.2-.1-.3.3-.1.4-.1.5 0"/><path d="m186.2 74.9c2.1-1.8 3.1-1.6 5.7-.7.1 0 .2.2.1.3 0 .1-.2.2-.3.1-2.4-.9-3.3-1.1-5.3.6-.1.1-.2.1-.3 0 0-.1.1-.3.1-.3"/><path d="m185.6 72.6c1.7-2 4-1.2 6.2-.4.1 0 .1.1.1.2 0 .1-.1.1-.2.1-2-.6-4.2-1.4-5.8.3-.1.1-.2.1-.3 0-.1 0-.1-.1 0-.2"/><path d="m168.8 68.8c1 5.7 1.7 5.1.9 11.4 0 .1-.1.2-.2.2-.1 0-.2-.1-.2-.2.8-6.4.1-5.7-.8-11.4 0-.1.1-.2.2-.2 0 0 .1.1.1.2"/><path d="m185.9 67.3c-.3 2.3-.5 2.4 0 4.7 0 .1 0 .2-.1.3-.1 0-.2 0-.3-.1-.6-2.4-.3-2.5 0-4.9 0-.1.1-.2.2-.2.1 0 .2.1.2.2"/><path d="m188.6 86.6c.5 4.6 1.9 10.1 3.3 14.5 1.2 3.9.1 5.4-3.8 6.8-5.4 1.9-17.8 2.1-22.1-2.7-1.3-1.5-.2-2.9.3-4.6.9-2.9 2.6-10 2.5-12.6l-.2-1.5c0-.1 0-.2.1-.3.1 0 .2 0 .3.1l.3 1.7c.2 2.7-1.6 9.8-2.5 12.8-.5 1.6-1.5 3-.4 4.2 4.1 4.6 16.4 4.4 21.6 2.5 4.7-1.6 4.6-3.3 3.1-7.5-1.1-3.6-2.5-9.7-2.8-13.4 0-.1.1-.2.2-.2 0 0 .1.1.1.2"/><path d="m166.1 105.3c-2 9.4-4.8 18-5.2 27.7 0 .1-.1.2-.2.2-.1 0-.2-.1-.2-.2.1-9 3.3-18.9 5.2-27.8 0-.1.1-.2.3-.2.1.1.1.2.1.3"/><path d="m191.4 131.1c0 0 0 0 0 0m-2.5-23.5c.7 7.6 1.7 15.5 2.6 23.2 0 .2 0 .3 0 .5 0 .1 0 .1 0 .2-.5.5-.7-2-.7-2.1-.9-7-1.8-14.7-2.4-21.7 0-.1.1-.2.2-.2.2-.2.3-.1.3.1z"/><path d="m176.5 118.9c.1 4.6.8 9.1.7 13.6 0 .1-.1.2-.2.2-.1 0-.2-.1-.2-.2-.2-4.6-.7-9.1-.8-13.6 0-.1.1-.2.2-.2.2 0 .3.1.3.2"/><path d="m100.8 58.7c1.6-3 .6-7.2 2-7.9.1 0 .3 0 .3.1 0 .1 0 .3-.1.3-.1 0-.1.1-.2.2-.7 1 0 4.6-1.7 7.6-.1.1-.2.1-.3 0-.1-.1-.1-.2 0-.3"/><path d="m105.7 52.8c-.1 1.1-.1.9-.2 1.4.7-.6 1.1-1 2.1-1.5.1 0 .3 0 .3.2 0 .1 0 .3-.2.3-2.6 1.3-3 2.8-2.8 1.5.1-.4.2-1 .3-1.9 0-.1.1-.2.2-.2.2 0 .3.1.3.2"/><path d="m102.5 64.5c1.6-2.9 7.7-4.7 10.7-5.3 3.5-.6 1.5-2.4-1.7-1.6 0 0-1.5.7-1.3 0 0-.1.1-.1.2-.2 0 0 0 0 .1 0 1.2-.7 7.6-1.4 5.5-2.7-1.3-.8-4.5.2-5.5.5-.1 0-.2.1-.2.1-.4-.1-.3-.2-.1-.5.1 0 .1 0 .2-.1.6-.5 2.1-1.2 2.3-1.7 0-.1.2-.2.3-.2.1 0 .2.2.2.4-.1.3-.4.6-.7.8 4.4-1 5.8 1.3 3.3 2.4-.5.2-1.1.4-1.7.5 2.2.3 2.2 2.2-.7 2.7-2.9.5-8.7 2.4-10.4 5 0 .1-.2.1-.2.1-.3 0-.3-.1-.3-.2"/><path d="m102.9 59.7c.7-1.2 1.8-1.9 3.2-2 .1 0 .2.1.2.2 0 .1-.1.2-.2.2-1.2.1-2.2.7-2.8 1.7 0 .1-.2.2-.3.1-.1 0-.2-.1-.1-.2"/><path d="m63.2 61.6c4 .5 2.2 2.6 3.8 2.9.1 0 .2.1.2.2 0 .1-.1.2-.2.2-1.9.3 0-2.3-3.9-2.8-.1 0-.2-.1-.2-.3.1-.1.2-.2.3-.2"/><path d="m66.3 64.3c-1.7 4.3-12.4 5-14.4.6-.1-.3-.1-.4-.2-.8 0-.1.1-.3.3-.2.1 0 .2.1.2.3 0 .2 0 .3.1.5 1.8 3.9 11.8 3.2 13.5-.5 0-.1.2-.2.3-.2.1.1.2.2.2.3"/><path d="m101.1 58.7c-.3 2.2 2.4 3.1 4.1 3.2.1 0 .3.1.3.3s-.1.3-.3.3c-2.1-.2-4.9-1.2-4.6-3.9 0-.1.1-.2.3-.2.2 0 .3.2.2.3"/><path d="m53 105.6c0 0 0 0 0 0m-.3.1c.1 0 .1 0 .2 0h-.2m-.1-.2c0 0 0 0 0 0m.5-.3c0 .1 0 .1-.1.2.6.9-.2 4.1 7.9 1.7 2.7-.8 3.8 3.5 11 .7.4-.2.9-.4 1.3-.5.7-.2 3.2-.7 3.4-1.2v-.1c0-.1.1-.3.2-.3.1 0 .2.1.3.2 0 .9-.8 1-1.6 1.2-1.9.4-1.7.4-3.4 1.1-7.3 2.8-8.8-1.4-11-.7-2 .6-3.8 1.2-6 .8-2.1-.4-1.9-1.6-2.4-2.7h-.1c-.1-.3 0-.3.1-.7 0-.1.2-.2.3-.2.1.2.2.3.1.5"/><path d="m65.1 76.8c.1 2.9.6 3.6 1.2 6.3 0 .1-.1.2-.2.3-.1 0-.2-.1-.3-.2-.7-2.6-1.1-3.1-1.2-6v-.4c0-.1.1-.2.2-.2.2 0 .3.1.3.2"/><path d="m56.2 99.3c-.4-2.4-.3-4.2-.9-6.6 0-.1 0-.2.1-.3.1 0 .2 0 .2.1.8 2.5.7 4.1 1 6.7 0 .1 0 .2-.2.2-.1.1-.2 0-.2-.1"/><path d="m55.8 107.8c.1 1.5.1 2.9.2 4.4 6.9.1 10.5 1.6 17.5-1.6.4-.2.7-.3.9-.7l-.4-1.3-.3-1.4c-.1-.1 0-.2 0-.3.1-.1.2 0 .3 0 .9 2.1 1.9 3.2-.2 4.2-4.9 2.3-8.2 2.3-13.5 1.9-1.4-.1-3.4-.1-4.5-.2-.6-.1-.4-4.1-.4-4.9 0-.1 0-.3.2-.3 0 0 .2.1.2.2"/><path d="m55.9 112.6c-1.2 2.7-2.4 10-2.8 13.2 0 .2-.1.3-.3.3s-.3-.1-.3-.3c.2-3.3 1.6-10.6 3-13.5.1-.1.2-.1.3 0 .2.1.2.2.1.3"/><path d="m74.8 110c1 2.5 3 5.5 4.5 7.6.1.1.1.3 0 .4-.1.1-.3.1-.4 0-1.7-2.3-3.6-5.2-4.6-7.9 0-.1 0-.3.2-.3.1 0 .2.1.3.2"/><path d="m68.6 120.6c.1 1 .2 2.1.3 3.1 0 .1-.1.2-.3.2-.1 0-.2-.1-.2-.3-.1-1-.2-2-.3-3 0-.1.1-.2.2-.3.1.1.3.2.3.3"/><path d="m50.6 78.1c2.9 1.1 9.4.7 12.6.2.6-.1 1.7-.9 1.8.1.9.2 5.2-.5 6.2-.6.1 0 .3.1.3.3 0 .1-.1.3-.3.3-1.4.2-3 .4-4.4.6-1.1.1-2.1.4-2.3-.5-.2 0-1 .4-1.6.4h.1c-3.7.4-9.1 1-12.6-.3-.1-.1-.2-.2-.1-.4.1-.2.2-.2.3-.1"/><path d="m47.6 43.7c2 5.7 7.6 5.3 12.4 3.6 1.6-.5 9.1-4 8-6.7-.2-.5-.7-.7-1.1-1-.1 0-.2-.2-.1-.3 0-.1.2-.2.3-.1.6.3 1.1.5 1.4 1.2 1.4 3.4-7.3 7.1-9.4 7.7-5 1.4-10.1 1.2-12-4.3 0-.1 0-.3.2-.3.1 0 .3 0 .3.2"/><path d="m140.7 73.8c.2-1.3 1.5-3.8 3.1-3.5.1 0 .2.1.2.2 0 .1-.1.2-.2.2-1.5.8-2.2 1.2-2.7 3.2 0 .1-.1.2-.2.2-.1-.1-.2-.2-.2-.3"/><path d="m142.7 72.9c.5-.3 4.7-2.5 4.3-.1-.1.7-.8 1.2-1.5 1.5 1.2 0 2.3.4 1.7 1.8-.3.7-1 .8-1.9.9.6.1 1 .5.6 1.2-.1.2-.6.4-1.1.7.7.3 1.1.9-.2 1.7-.8.5-3.3.7-4.1-.7-.8-1.4-.1-4.7.1-6.5 0-.1.1-.3.3-.3.1 0 .3.1.3.3-.2 1.8-.4 3.4-.5 5.2.4 2.1 1.6 1.8 3.5 1.6l.1-.1c1.1-.9.6-.9-.9-.9-.2 0-.3 0-.5 0h-.2c-.1 0-.2-.1-.3-.2 0-.1.1-.2.3-.2h.2c.2 0 .4-.1.7-.1.7-.1 1.1-.2 1.9-.7.4-1-1.6-.5-2.4-.5-.2 0-.3 0-.4-.1-.5-1 3.6-.6 4-1.4.8-1.5-1.7-1.3-2.9-1.1-.2 0-.3.1-.4.1v-.1c-.1 0-.2 0-.2 0-.2-.1-.2-.3.1-.4 0 0 .1 0 .1 0 .8-.4 2.7-.7 3.1-1.6.7-1.9-3.5.3-3.6.4-.1.1-.2.1-.3-.1 0 0 0-.2.1-.3"/><path d="m168.5 79.9c0 0 0 .1 0 .2.1 1.4.5 4.7-1.2 5.4-1.4 1.4-6.1.1-7.2-1.2-.7-1-.2-1.3.6-1.5-.3-.2-.6-.4-.7-.7-.3-.9-.1-1.3.3-1.5-.3-.1-.5-.3-.6-.6-.4-1.2 0-1.6.8-1.7-1.9-.9-.1-2.9 2.2-2.4.9.2 1.5.4 1.9.7-.2-2.2 1.8-3.8 2.4-2.4 1.2 2.5 1.5 2.7 1.5 5.7m-.5-.1c0-3.1-.3-2.7-1.4-5.5-.7-.9-1.7 1.3-1.3 2.7.8.9 0 1.8-.2.8 0-.1-.1-.2-.1-.3-1-1.5-4.9-1.7-4.6-.2.1.6 4.2 1.1 3 1.8-.5.3-3.6-1.5-3 .6.1.2.1.1.2.3.2.1 1.6.3 2.3.6.1 0 .2 0 .2.1.3.2.4.3.1.5 0 0-.1 0-.3-.1-.1 0-.1 0-.2-.1-.9-.2-2.8-.5-2 .8.3.4 1.4.6 2 .8.3.1.4.3.2.5 0 0-.1 0-.3 0-.1 0-.1 0-.2 0-1 0-3.1-.1-1.3 1.1 1.5 1 4.4 1.8 6 .7 1.5-1 1-3.1.9-5 0 .1 0 0 0-.1z"/><path d="m151.5 60.3c-1.1-.5-4.9-2.1-2.6-3.8 1.1-.8 2.5-.1 3.7 1-.6-2-.7-4.6 1-5 1.2-.3 1.8.8 2.1 2.2.1-.5.3-1 .4-1.2 1.8-3.5 6.2-1.8 3.3 3 2.3-1.2 5.6-1.4 5.1.4-.2.8-1 1.3-1.8 1.8 1.5-.1 3.1.1 3.6 1.4.4.8-.7 1.7-1.5 1.9l-1.2.2h-.8c-.1 0-.3-.1-.3-.2 0-.1.1-.3.2-.3 1.1 0 3 .1 3-1.4-1.3-2.1-5.2-.6-5.5-.7-.3-.1-.2-.2 0-.4v-.1c.1 0 .1 0 .2 0 .7-.4 2.1-.8 2.7-1.3 2.8-2.2-2.2-2.4-4.5-.3-.3.4-.6.8-.8 1.1 0 0 0 .1-.1.1-.3.3-.5.4-.4-.1.1-.5.4-.9.9-1.3.1-.1.2-.3.4-.5.7-1 2-4.4.2-4.6-2.2-.2-2.8 2.2-3 4.2.1.9 0 1.7-.1 2.1v.1c0 .1 0 .1-.1.2l-.2.1-.2-.1c0 0 0-.1 0-.2v-.1c-.1-.5-.1-1.3 0-2.1 0-.4 0-.7 0-.9-.2-2.2-1.8-3.5-2.5-1.5-.8 2.2.3 4.1 1.6 5.7l-.1.1c.1.2.1.3.1.3-.4.4-.9-.2-1.4-1.3-1-1.2-2.4-2.5-3.5-2-2.5 1.1 1.5 2.9 2.2 3.2.1 0 .2.2.1.3.1-.1-.1 0-.2 0"/><path d="m161.8 61.1c.4-.1 2.7-.3 2-1.2-1.5-.7-2-.5-3.4-.2 0 0-.1 0-.1 0-.1 0-.1 0-.2 0-.3-.1-.5-.3 0-.4.1 0 .2-.1.3-.1.7-.5.4-2.6-1.9-1.2-.1.4-.4.6-.8.6-.5-.1-.2-.5.3-.8.7-1.1-1.2-3.2-1.8-.1 0 0 0 1.5-.5 1 0 0-.1-.1-.1-.2-.1-.6.2-2.1-1-2 0 0 0 0-.1 0-.4 2.3.1 1.2.4 2.8.2 1.2-2.1-1.6-2.7-.6-.2.3 0 .7.1 1 0 .1 0 .3-.2.3-.1 0-.3 0-.3-.2-.1-.2-.1-.2-.2-.5-.2-1.8 1.3-1.5 2.5-.8-.3-1-.6-2.3.2-2.5 0 0 .1-.1.1-.1.8-.4 1.3.2 1.5.9.2-.7.6-1.4 1.3-1.4 1.1-.1 1.5 1 1.5 1.9 1.1-.5 2.7-.6 2.6 1 0 .3-.1.5-.1.7 3.5-.5 5.2 2.1.8 2.5-.1 0-.2-.1-.2-.2-.3-.1-.2-.2 0-.2"/><path d="m143 72.4c0 0 0 0 0 0m21.2 4.2c.4-3.7 1.2-7.5 2.9-10.8.7-1.4-2.8-2.7-3.7-3.1-6.8-3.1-9.1-2.4-16.3-1.4-.7 3.3-2.7 7.8-3.6 11.4 0 0 0 .1 0 .1v.1c0 .2-.1.3-.3.3-.2 0-.3-.1-.3-.3 0-.2 0-.3.1-.4.9-3.3 2.2-6.5 3.2-9.7.8-2.6-.1-1.9 2.6-2.3 5.5-.9 8.1-1 13.2 1 1.4.6 6.7 2.3 5.6 4.6-1.8 3.5-2.4 6.6-2.9 10.5 0 .1-.1.2-.2.2-.2 0-.3-.1-.3-.2z"/><path d="m142.1 80.8c-.1.5-.4 1.8-.4 2.2 1.8.8 5.9 3 7.5 3.2 1.1.2 12.1.5 12.7-.4l.1-.2.1-.3c0-.1.2-.2.3-.2.1 0 .2.2.2.3-.1.4-.2.8-.6 1.1-1.2.8-11.4.6-12.9.4-1-.2-4.8-1.8-5.8-2.3-3.1-1.6-2.2-.5-1.7-3.6 0-.1.1-.2.2-.2.2-.2.3-.1.3 0"/><path d="m156.4 60.4c-1.6 3-2.8 7.4-4.1 10.7-1 2.8-1.8 5.6-2.8 8.3-.6 1.6-1.2 4.8-1.4 6.6 0 .2-.1.3-.3.3-.2 0-.3-.1-.3-.3.2-1.8.2-1.3.6-3.4.9-4.2 6-19.3 7.9-22.5.1-.1.2-.1.3-.1.2.1.2.3.1.4"/><path d="m159.4 61.1c-1 3.9-1.9 6.7-3.2 10.5-1.2 3.2-1.9 5.2-2.9 8.5-.6 2-1.1 4.1-1.7 6.1l-.3.1c.1.1.2.2.1.3l-.2-.3-.2.1c0-.1.1-.1.2-.1l-.2-.2c.6-2 1.1-4.1 1.7-6.1.9-3.3 1.7-5.4 2.9-8.6 1.4-3.7 2.3-6.6 3.2-10.4 0-.1.2-.2.3-.2.3 0 .4.1.3.3"/><path d="m163.1 62.4c-1.2 4.3-2.5 8.5-4.2 12.6-1.3 3.2-1.9 6.5-3 9.8l-.3.9-.2.7c0 .2-.1.3-.3.3-.2 0-.3-.1-.3-.3l.2-.9.3-.9c1.2-3.3 1.7-6.6 3-9.8 1.7-4.1 2.9-8.3 4.2-12.5 0-.1.2-.2.3-.2.3 0 .3.2.3.3"/><path d="m152.7 60.4c-1 2.4-2.2 4.7-2.8 7.2-.6 2.1-1.4 5-2.3 7-.1.2-.1.2-.1.4 0 .2-.1.3-.3.3-.2 0-.3-.1-.3-.3l.1-.4.1-.3c.8-1.9 1.7-4.8 2.2-6.8.8-2.7 1.8-4.7 2.9-7.3 0-.1.2-.2.3-.1.2.1.3.2.2.3"/><path d="m146.8 76.7c-.5 2.5-1.1 5.3-1.8 7.7 0 .2 0 .2-.1.4-.1.1-.3.1-.4 0-.1-.1-.1-.3 0-.4 0-.6 1.6-7 1.9-7.8 0-.1.1-.2.3-.2 0 .1.1.2.1.3"/><path d="m142.7 84.1c.2-1.2.5-2.4.7-3.6 0-.1.2-.2.3-.2.1 0 .2.2.2.3-.2 1.2-.5 2.3-.7 3.5 0 .1-.1.2-.2.2-.2 0-.3-.1-.3-.2"/><path d="m149.8 60.7c-1.6 3.1-3.1 7.7-4.2 11.2 0 .1-.1.3-.2.3-.1 0-.3-.1-.3-.2.8-3.2 2.9-8.9 4.3-11.5.1-.1.2-.1.3 0 .2-.1.2.1.1.2"/><path d="m171.9 58.7c-1.7 2.3-3.2 3.8-5.5 5.3-.1.1-.3.1-.3 0-.1-.1-.1-.3 0-.3 2.1-1.3 3.9-3.2 5.4-5.1.1-.1.2-.1.3 0 .2-.1.2 0 .1.1"/><path d="m168.7 68.8c-1.8 1.3-.9.7-2.7 1.7-.1.1-.3.1-.4-.1-.1-.1 0-.3.1-.4l1.3-.8 1.4-.9c.1-.1.3-.1.4 0 0 .3 0 .4-.1.5"/><path d="m184 66.4c-.1 1 1.3 3.2 1.3 3.2.1 0 .2.2.2.3 0 .1-.2.2-.3.2-.8-.2-1.7-2.9-1.5-3.8 0-.1.2-.2.3-.1 0-.1 0 0 0 .2"/><path d="m171.3 59.4c.1 0 .1 0 .2-.1-.1.1-.1.1-.2.1m-.2 0c0 0-.1-.1-.1-.1 0 0 .1 0 .1.1zm.4-.4c1 .3-.1.8 3.7.9 2.8 0 6.4-.1 8.9-1.5.1-.1.3 0 .3.1.1.1 0 .3-.1.3-2.6 1.5-8.4 1.9-11.3 1.4-.1 0-1.6-.5-2-.9 0 0 .1 0 .1 0l-.2-.3v-.2c0-.1.2-.2.3-.2.2.2.3.3.3.4"/><path d="m163.3 38.8c1.3 3.6 3.7 5.7 7 7.5 4.5 2.4 11.6 3.7 14.8-1.6l.8-1.8c0-.1.1-.2.3-.1.1 0 .2.1.1.3l-.8 1.9c-3.2 5.5-10.7 4.2-15.4 1.8-3.5-1.8-5.9-4-7.2-7.8 0-.1 0-.2.2-.3 0 0 .2 0 .2.1"/><path fill="#ffde17" d="m66.1 64.6c-2.1 4-12.3 4.6-14.3.4-.1-.2-.1-.3-.1-.4-.5.4-1.5.7-3.5 1.1-7 1.5-13.3-1.4-19.4-4.6-5.1-2.7-5.8-4.8-8.8-8.9 0 1.3-1.1 2.3-2.3 2.7-.1.3-.7.3-1.2.3 1 1.1 2.1 2.3 3.2 4.1 3.3 5.1 5.7 7.6 11.5 9.8 6.2 2.4 13 2.6 19.5 2.5.3 0 .3.5 0 .5-.6 0-1.1 0-1.7 0 .5 1.6 1 3.6 1.4 5.8 0 0 .1 0 .1 0 2.9 1.1 9.4.7 12.6.2.5-.1 1.2-.6 1.6-.3 0-.3 0-.5 0-.8v-.4c0-.1.1-.2.2-.2.1 0 .2.1.2.2 0 .7.1 1.2.1 1.7 1.2.1 4.5-.4 5.7-.6-.3-1.7-.5-3.3-.7-4.8-.1 0-.2 0-.2 0l-.3.1c-.1 0-.2-.1-.3-.2 0-.1.1-.2.2-.3l.5.1.8.2c2.8.7 5 1.2 7.8 1.5 9.9 1 17.6-1.6 23.7-9.7.5-.8 1.2-1.5 2.2-2.1-1.6-.3-3.5-1-4-2.7-9 12.2-21.1 11.2-33.8 5.3-.1 0-.1-.1-.1-.1-.3-.1-.4-.2-.6-.4"/><path fill="#f9ed32" d="m55.6 92.5c.8 2.5.7 4.1 1 6.7 0 .1 0 .2-.2.2-.1 0-.2 0-.2-.2-.4-2.4-.3-4.2-.9-6.6 0-.1 0-.2.1-.3.1.1.2.1.2.2m7.3-13.7c-3.6.4-8.9 1-12.3-.2 1.5 8.4 2.2 20 2.5 26.4 0 0 0 .1 0 .1 0 0 0 .1 0 .1 0 .1 0 .1-.1.2.4.6.2 2.2 2.2 2.5 0-.1.1-.2.2-.3.1 0 .3 0 .3.2 0 0 0 .1 0 .1 1.1.1 2.7-.2 5.1-.9 2.7-.8 3.8 3.5 11 .7.4-.2.9-.4 1.3-.5.1 0 .3-.1.4-.1 0-.1 0-.2.1-.2.1-.1.2 0 .3 0 0 0 0 0 0 .1 1-.2 2.5-.6 2.6-.9v-.1c0-.1 0-.2.1-.2-.9-2.6-2.2-9.9-2.8-12.9-.9-4.4-2-9.7-2.8-14.6-1.4.2-2.8.4-4.2.5-.5 0-1 .1-1.4.1.2 1.3.6 2.2 1 4 0 .1-.1.2-.2.3-.1 0-.2-.1-.3-.2-.5-1.9-.9-2.7-1.1-4.2-.2-.1-.3-.2-.4-.5-.1.2-.9.5-1.5.5z"/><path fill="#fdd0ad" d="m72.1 108.3c-7.3 2.8-8.8-1.4-11-.7-1.8.5-3.4 1.1-5.2.9.1 1.3.1 2.5.1 3.8 6.9.1 10.5 1.6 17.5-1.6.3-.2.6-.3.7-.5 0-.1 0-.2.1-.2l-.4-1.3-.2-1c-.4.1-.7.3-1.6.6"/><path fill="#fbb040" d="m52.3 64.7c1.8 3.9 11.8 3.2 13.5-.5 0-.1.1-.1.1-.1-.2-.7-.6-1.7-2.7-2-.2.4-.4.8-.6 1.2-1 1.4-3.1 2.3-5 2.1-1.9-.2-3.3-1.3-4-3-1 .8-1.1 1.3-1.4 1.8 0 0 0 .1 0 .1 0 .1 0 .2.1.4"/><path fill="#fdd0ad" d="m106.1 57.7c.1 0 .2.1.2.2 0 .1-.1.2-.2.2-1.2.1-2.2.7-2.8 1.7 0 .1-.2.2-.3.1-.1 0-.2-.2-.1-.3.6-1.2 1.8-1.8 3.2-1.9m-3.3-6.3c-.7 1-.1 4.2-1.4 7.1.1.1.1.2 0 .3-.1.1-.2.3-.3.4.2 1.8 2.6 2.6 4.1 2.7 0 0 .1 0 .1 0 2.5-1.4 5.8-2.4 7.8-2.7 3.5-.6 1.5-2.4-1.7-1.6 0 0-1.5.7-1.3 0 0-.1.1-.1.2-.2h.1c1.2-.7 7.6-1.4 5.5-2.7-1.3-.8-4.5.2-5.5.5-.1 0-.2.1-.2.1-.4-.1-.3-.2-.1-.5.1 0 .1 0 .2-.1.6-.4 1.7-1.1 2.1-1.5-1.5-.1-3.1-.1-4.5-.1 0 0-.1.1-.1.1-2.6 1.3-3 2.8-2.8 1.5.1-.3.1-.8.3-1.6-.2 0-.4 0-.6 0-.1 0-1.3.2-1.3-.2-.2-.5-.3-1.1-.6-1.5z"/><path fill="#5aba48" d="m168.8 68.8c1 5.7 1.7 5.1.9 11.4 2.8 2.1 6.9 3 10.2 3.1 4.3.1 7.5-2.3 6.5-7.1-.2-1.1-.5-2.2-.7-3.3 0 0-.1 0-.1 0-.1-.1-.1-.2 0-.3 0-.1 0-.2-.1-.3 0 0 0 0 0-.1-.2-1-.3-1.6-.3-2.2 0 0-.1 0-.1 0-.8-.2-1.7-2.9-1.5-3.8 0-.1.2-.2.3-.1.1 0 .2.2.1.3-.1.9 1 2.7 1.2 3.1.1-.5.2-1.1.3-2.2 0-.1.1-.2.2-.2.1 0 .2.1.2.2-.3 2.3-.5 2.4 0 4.6 0 0 .1.1.1.2 0 0 0 .1 0 .1 1.6-1.4 3.6-.8 5.6-.1-.1-.9-.3-1.7-1.2-3.8-.7-1.6-1.4-3.1-2.2-4.6-1.1-1.7-2.5-3.2-3.8-4.8-2.6 1.5-8.4 1.9-11.3 1.4-.1 0-1.2-.4-1.8-.8-1.3 1.7-2.7 3-4.5 4.3.8.7 1.2 1.4.8 2.2-.7 1.3-1.2 2.6-1.6 3.9l1-.6 1.4-.9c.1-.1.3-.1.4 0 0 .1 0 .3 0 .4"/><path fill="#fdd0ad" d="m186.6 75.3c1.1 4.8-.4 7.2-5.2 8.3-1.7.2-3.6 0-5.2-.3-3-.6-5.6-1.4-7.8-3.5 0 0 0 .1 0 .1 0 0 0 .1 0 .2.1 1.4.5 4.7-1.2 5.4 4.6 2.4 10.4 3.2 15.5 2.7 1.7-.2 3.7-.7 5.4-1.7 0 0 .1-.1.1-.1 1.9-1.1 3.5-2.8 3.9-5 .5-2.8.1-3.6-.3-6.1 0-.3-.1-.5-.1-.8-2.4-.8-3.3-1.1-5.2.6.1.1.1.2.1.2"/><path fill="#5aba48" d="m188.2 87.1c-2.8 1.5-6.2 1.8-9.3 1.6-3.5-.2-6.8-.6-10-2l.2 1.3c.2 2.7-1.6 9.8-2.5 12.8-.5 1.6-1.5 3-.4 4.2 4.1 4.6 16.4 4.4 21.6 2.5 4.7-1.6 4.6-3.3 3.1-7.5-.9-3.4-2.3-9.3-2.7-12.9"/><path fill="#8ed8f8" d="m186.5 74.7c1.9-1.6 2.9-1.4 5.3-.6-.1-.7-.1-1.2-.2-1.6-1.9-.6-4-1.4-5.6.1.2.7.3 1.4.5 2.1"/><path fill="#fdd0ad" d="m175.2 59.9c2.8 0 6.2 0 8.8-1.4-.3-.3-.6-.7-.9-1.1 0 0 0 0 0-.1-2.1.5-4.3.8-6.5.7-1.2-.1-2.4-.2-3.6-.5 0 0-.1 0-.1 0-.7.8-.5.7-.9 1.1-.1.1-.2.2-.3.4.7.4-.1.8 3.5.9"/><path fill="#26c4f0" d="m164.2 76.2c.4-3.6 1.2-7.2 2.9-10.4.7-1.4-2.8-2.7-3.7-3.1-.1-.1-.2-.1-.4-.2-1.2 4.2-2.5 8.4-4.1 12.5-1.3 3.2-1.9 6.5-3 9.8l-.3.9-.2.7c0 0 0 0 0 0 3.1 0 6.1-.2 6.5-.6l.1-.2v-.1c-.9-.3-1.6-.8-1.9-1.2-.7-1-.2-1.3.6-1.5-.3-.2-.6-.4-.7-.7-.3-.9-.1-1.3.3-1.5-.3-.1-.5-.3-.6-.6-.4-1.2 0-1.6.8-1.7-1.9-.9-.1-2.9 2.2-2.4.7 0 1.2.1 1.5.3"/><path fill="#ed1c24" d="m158.5 74.8c1.6-4.1 2.8-8.2 4.1-12.4-1.2-.5-2.2-.9-3.2-1.2-1 3.9-1.8 6.7-3.2 10.4-1.2 3.2-1.9 5.2-2.9 8.5-.6 2-1.1 4.1-1.7 6.1l-.3.1c0 0 0 0 .1 0 1 0 2.2.1 3.4.1l.2-.9.3-.9c1.3-3.3 1.8-6.5 3.2-9.8"/><path fill="#26c4f0" d="m155.7 71.4c1.4-3.7 2.2-6.5 3.2-10.4-.9-.2-1.7-.4-2.5-.5-1.5 3-2.8 7.3-4 10.5-1 2.8-1.8 5.6-2.8 8.3-.6 1.5-1.2 4.8-1.4 6.5.4.1.7.2 1 .3.2 0 .9.1 1.9.1 0 0 .1-.1.2-.1l-.2-.2c.6-2 1.1-4.1 1.7-6.1.9-3.2 1.7-5.2 2.9-8.4"/><path fill="#62c9d7" d="m148.2 82.6c.9-4 5.6-18.2 7.6-22.1-1-.1-2 0-3.2.1-1 2.3-2.1 4.6-2.8 7-.6 2.1-1.4 5-2.3 7-.1.2-.1.2-.1.4 0 .1 0 .1-.1.2.1.2 0 .5-.1.9-.1.3-.3.4-.4.6-.5 2.5-1.1 5.3-1.8 7.7 0 .1 0 .1 0 .2.9.4 1.8.8 2.6 1.1.2-1.4.1-1.1.6-3.1"/><path fill="#ed1c24" d="m147.1 74.4c.8-1.9 1.7-4.8 2.2-6.8.7-2.6 1.7-4.5 2.8-6.9-.7.1-1.5.2-2.4.3-1.5 3.1-3 7.5-4 10.8.9-.1 1.5 0 1.4 1.1-.1.7-.8 1.2-1.5 1.5.6 0 1.1.1 1.5.3v-.3"/><path fill="#62c9d7" d="m145.1 71.9c.8-2.9 2.6-8 4-10.9-.6.1-1.3.2-2 .3-.7 3.3-2.7 7.7-3.6 11.2.5-.2 1.1-.4 1.6-.6"/><path fill="#ed1c24" d="m144.7 80.6c-.2.1-.5.2-.9.3-.2.9-.4 1.9-.6 2.8.4.2.8.4 1.3.6.1-.7.9-4 1.4-6-.2.2-.6.4-1 .6.7.3 1.1.9-.2 1.7"/><path fill="#fdd0ad" d="m142.8 77.4c-.5-1 3.6-.6 4-1.4.8-1.5-1.7-1.3-2.9-1.1-.2 0-.3.1-.4.1v-.1c-.1 0-.2 0-.2 0-.2-.1-.2-.3.1-.4h.1c.8-.4 2.7-.7 3.1-1.6.7-1.9-3.5.3-3.6.4-.1.1-.2.1-.3-.1-.1-.1 0-.3.1-.3 0 0 .1 0 .1-.1 0-.2 0-.3.1-.4.1-.5.3-1.1.5-1.6-1.1.6-1.8 1.1-2.2 2.5 0 0 0 .1 0 .1-.2 1.8-.4 3.4-.5 5.2.4 2.1 1.6 1.8 3.5 1.6l.1-.1c1.1-.9.6-.9-.9-.9-.2 0-.3 0-.5 0h-.2c-.1 0-.2-.1-.3-.2 0-.1.1-.2.3-.2h.2c.2 0 .4-.1.7-.1.7-.1 1.1-.2 1.9-.7.4-1-1.6-.5-2.4-.5-.2 0-.4 0-.4-.1"/><path fill="#62c9d7" d="m143.3 81c-.4 0-.8 0-1.2-.1-.1.6-.4 1.7-.4 2.1.3.1.7.3 1.1.5.2-.8.4-1.7.5-2.5"/><path fill="#fdd0ad" d="m162.8 80.6c.1 0 .2 0 .2.1.3.2.4.3.1.5 0 0-.1 0-.3-.1-.1 0-.1 0-.2-.1-.9-.2-2.8-.5-2 .8.3.4 1.4.6 2 .8.3.1.4.3.2.5 0 0-.1 0-.3 0-.1 0-.1 0-.2 0-1 0-3.1-.1-1.3 1.1 1.5 1 4.4 1.8 6 .7 1.5-1 1-3.1.9-5 0-.1 0-.1 0-.2 0 0 0-.1 0-.1 0-3.1-.3-2.7-1.4-5.5-.7-.9-1.7 1.3-1.3 2.7.8.9 0 1.8-.2.8 0-.1-.1-.2-.1-.3-1-1.5-4.9-1.7-4.6-.2.1.6 4.2 1.1 3 1.8-.5.3-3.6-1.5-3 .6.1.2.1.1.2.3.2.2 1.6.5 2.3.8"/><path fill="#ed1c24" d="m154.4 59.8c2.3 0 4.3.4 7.1 1.4 0-.1.1-.1.2-.1.4-.1 2.7-.3 2-1.2-1.5-.7-2-.5-3.4-.2 0 0-.1 0-.1 0-.1 0-.1 0-.2 0-.3-.1-.5-.3 0-.4.1 0 .2 0 .2-.1 0-.1.1-.1.2-.2v-.1h.1c.4-.7-.1-2.2-2.1-1-.1.3-.3.5-.5.5 0 0 0 0 0 .1-.3.3-.5.4-.4-.1-.1-.1 0-.3.1-.4.1-.2.3-.5.5-.7.1-1.1-1.4-2.4-2 .3 0 0 0 1.5-.5 1 0 0 0 0 0-.1h-.1c0 0 0-.1 0-.2v-.1c-.1-.3-.1-.8 0-1.3-.1-.3-.3-.6-.8-.6 0 0 0 0-.1 0-.4 2.3.1 1.2.4 2.8.1.4-.1.4-.4.2l-.1.1c-.1.3-.1.4-.1.4"/><g fill="#be1e2d"><path d="m157 55.5c.9-.1 1.3.6 1.5 1.4.1-.1.1-.2.2-.3.7-1 2-4.4.2-4.6-2.2-.2-2.8 2.2-3 4.2 0 .1 0 .2 0 .2.2-.4.6-.8 1.1-.9"/><path d="m155.4 56.3c0-.4 0-.7 0-.9-.2-2.2-1.8-3.5-2.5-1.5-.6 1.7-.1 3.2.7 4.5.2.1.3.2.5.3-.3-1-.6-2.3.2-2.5 0 0 .1-.1.1-.1.4-.3.8-.1 1 .2"/></g><path fill="#8ed8f8" d="m153.8 59.8c-.2-.2-.5-.6-.7-1.1-.4-.2-.8-.3-1 0-.2.3 0 .7.1 1 0 .1 0 .2 0 .2.5 0 1.1 0 1.6-.1"/><g fill="#be1e2d"><path d="m151.5 59.4c-.1-1 .3-1.4.9-1.4-.9-1-2-1.8-3-1.4-2.5 1.1 1.4 2.8 2.2 3.2 0-.1 0-.2-.1-.4"/><path d="m158.7 57.3c1.1-.4 2.4-.4 2.4 1.1 0 .1 0 .2 0 .3.7-.3 1.7-.7 2.1-1 2.8-2.2-2.1-2.4-4.5-.4"/><path d="m165.8 60.2c-.7-1.1-2.1-1.2-3.3-1.1 2.3.3 2.9 2-.3 2.5.1 0 .2.1.3.1 0-.1.1-.1.2-.1 1.2-.1 3 0 3.1-1.4"/></g><path fill="#77797a" d="m166.1 105.5c-1.4 6.7-3.3 13-4.4 19.6 5 .4 9.8.4 14.7.2-.1-2.1-.3-4.3-.3-6.4 0-.1.1-.2.2-.2.1 0 .2.1.2.2 0 2.1.2 4.3.4 6.4 4.4-.1 8.9-.4 13.4-.6-.7-5.6-1.4-11.5-1.8-16.9-.1.1-.3.1-.4.2-5.4 1.9-17.6 2.1-22-2.5"/><path fill="#8ed8f8" d="m53.8 121.3c8.1-1.4 16.4-2.6 24.5-4.1-1.4-2-2.9-4.3-3.8-6.5-.2.2-.4.3-.7.4-4.9 2.3-8.2 2.3-13.5 1.9-1.3-.1-3.3-.1-4.4-.2-.8 1.9-1.6 5.4-2.1 8.5"/><path d="m64.9 73c-.2.6-.4 1.1.3 1 .1-.5.3-2.5.9-1.3.2.5 0 .9.4 1 0-.6-.2-1.3.7-.5 0 0 .2.1.3.1.1 0 .2.1.2.3 0 .1-.1.2-.2.2-.3-.1-.4-.1-.5-.2 0 .3 0 .6-.2.7-.5.2-.8-.2-.9-.6 0 .1-.1.2-.1.4-.3 1-1.8.9-1.2-1 0-.1.2-.2.3-.1"/><path d="m182.2 94.5c-.4 0-1.3.2-1.4-.4 0-.1.1-.2.1-.2.1 0 .2.1.2.2 0 .2.9.1 1.1.1.1 0 .2.1.2.2 0 .1-.1.1-.2.1"/><path d="m196 82.8c-.5 1.3-.9 2.3-1.5 3.5 0 .1-.1.2-.3.2-.1 0-.2-.1-.2-.3.5-1.2 1-2.4 1.5-3.6 0-.1.2-.2.3-.1.2.1.2.2.2.3"/><path d="m199.6 80.9c-1.6 3-3.1 6.1-4.6 9.1 0 .1-.2.2-.3.2-.1 0-.2-.2-.2-.3 1.5-3 3.2-6.1 4.8-9.1.1-.1.2-.1.3-.1.1-.1.1.1 0 .2"/><path d="m136.5 83c.5 2.9 1.6 2.1 2.2 3.5 0 .1 0 .3-.1.3-.1 0-.2 0-.3-.1-.7-1.2-1.7-.4-2.2-3.6 0-.1.1-.2.2-.3.1 0 .2.1.2.2"/><path d="m131.6 81.6c-.3 3.1 3.9 8.6 6.2 9.3.1 0 .2 0 .2.1 0 .1 0 .2-.1.2-.4.1-.5 0-.8-.2-2.7-1.6-6.2-6.3-5.9-9.6 0-.1.1-.2.3-.2 0 .1.1.2.1.4"/><path d="m134.7 49.3c.1.1 3.1 2.3 3 2.3.1 0 .2 0 .2.1 0 .1 0 .2-.1.2-.6.3-2.7-1.7-3.4-2.2-.1-.1-.2-.2-.1-.3.1-.1.2-.2.4-.1"/><path d="m140.5 41.4c.2.7 1 3.5 1.8 3.8.1 0 .2.2.2.3 0 .1-.2.2-.3.2-1.1-.4-1.9-3.3-2.2-4.2 0-.1.1-.3.2-.3.1 0 .2.1.3.2"/><path d="m148.1 43.6c-.3 1.5-.2.7-.5 2.2 0 .1-.1.3-.2.3-.1 0-.3-.1-.3-.2l.2-1.2.3-1.1c0-.1.2-.2.3-.2.2-.1.3 0 .2.2"/><path opacity=".22" d="m188.2 66.7c.9 1.8 1.4 3.3 1.6 4.9.6.1 1.2.3 1.8.5-.1-.9-.3-1.7-1.2-3.8-.7-1.6-1.4-3.1-2.2-4.6-1.1-1.7-2.5-3.2-3.8-4.8 0 0-.1 0-.1.1 1.3 2.5 2.6 4.2 3.9 7.7"/><path opacity=".22" d="m191.6 72.5c-.6-.2-1.2-.4-1.8-.5.1.5.1 1 .1 1.6.5.1 1.1.3 1.8.5 0-.7 0-1.2-.1-1.6"/><path opacity=".22" d="m191.8 74.6c-.7-.3-1.3-.4-1.8-.6 0 1-.1 2.1-.2 3.2-.5 5-1.3 7.9-5 10.6.1 0 .1 0 .2-.1 0 0 0 0 .1 0 1.1-.3 2.1-.7 3.1-1.3 0 0 .1-.1.1-.1 1.9-1.1 3.5-2.8 3.9-5 .5-2.8.1-3.6-.3-6.1 0-.1 0-.4-.1-.6"/><path opacity=".22" d="m191 100c-1-3.4-2.4-9.3-2.8-13-.9.5-1.8.8-2.8 1.1 1.1 4 1.4 8.6 2.5 12.7.7 2.4 1.2 3.9 2.2 5.7 2.4-1.4 2.1-3.1.9-6.5"/><path opacity=".22" d="m183.9 82.4c2-1.1 3.1-3.2 2.5-6.3-.2-1.1-.5-2.2-.7-3.3 0 0-.1 0-.1 0-.1-.1-.1-.2 0-.3 0-.1 0-.2-.1-.3 0 0 0 0 0-.1-.2-1-.3-1.6-.3-2.2 0 0-.1 0-.1 0-.2-.1-.4-.3-.6-.6-.2 3.9-.8 7.9-.7 11.5 0 1 .1 1.3.1 1.6"/><path opacity=".22" d="m172.4 81.8c.7-3.3 1-7.1.5-10.3-2-.5-1.9-.5-3.9-1.2.8 4.1 1.3 4.2.6 9.9.9.6 1.8 1.2 2.8 1.6"/><path opacity=".22" d="m171 87.5c-.7-.2-1.4-.5-2.1-.7l.2 1.3c.1 1.3-.3 3.6-.8 5.9 1.2-2 1.8-3.5 2.7-6.5"/><path opacity=".24" d="m188.1 108c-4.7 1.7-14.8 2-20.1-1.1 3 2.6 3.5 3.1 9.1 4 4.2.7 7.8 1 11.7.4-.1-1.2-.2-2.3-.3-3.5-.2.1-.3.1-.4.2"/><path fill="#8ed8f8" d="m69.5 78.1c.6-.1 1.1-.1 1.4-.2-.3-1.7-.5-3.3-.7-4.8l-.2-.1c-.2 1.6-.4 3.3-.5 5.1"/><g fill="#612f00"><path opacity=".22" d="m103.2 59.8c0 .1-.2.2-.3.1 0 0-.1 0-.1-.1-.3.3-.6.6-.8.9.9.7 2.2 1.1 3.2 1.2 0 0 .1 0 .1 0 2.5-1.4 5.8-2.4 7.8-2.7 3.5-.6 1.5-2.4-1.7-1.6 0 0-1.5.7-1.3 0 0-.1.1-.1.2-.2h.1c1.2-.7 7.6-1.4 5.5-2.7-1.3-.8-4.5.2-5.5.5-.1 0-.2.1-.2.1-.3 0-.3-.2-.2-.3-1.7.8-3.3 1.7-4.8 2.9.3-.1.6-.1.9-.2.1 0 .2.1.2.2 0 .1-.1.2-.2.2-1.2.1-2.2.7-2.9 1.7"/><path opacity=".22" d="m104.7 62.4c-1.1-.2-2.2-.6-3-1.2-.8 1-1.6 2-2.2 3.1-1.8 3.1-3 4-6 5.7-4.8 2.7-9.6 3.8-14.8 4.3 0 0 .1 0 .1 0 9.9 1 17.6-1.6 23.7-9.7.5-.9 1.2-1.6 2.2-2.2"/><path opacity=".22" d="m52.7 72.6c-.9-3.4-3-2.8-5.5-2.6-19.5 1.9-22.6-8-29.5-15-.2.2-.7.3-1.1.3 1 1.1 2.1 2.3 3.2 4.1 3.3 5.1 5.7 7.6 11.5 9.8 6.2 2.4 13 2.6 19.5 2.5.3 0 .3.5 0 .5-.6 0-1.1 0-1.7 0 .5 1.6 1 3.6 1.4 5.8 0 0 .1 0 .1 0 .7.2 1.5.4 2.4.5.2-2.2.1-4.2-.3-5.9"/><path opacity=".22" d="m53.1 79.2c-.9-.1-1.7-.3-2.4-.5.4 2.5.8 5.4 1.1 8.3.6-2.8 1.1-5.4 1.3-7.8"/><path opacity=".22" d="m69.4 78.6c-.8 9.5-1.2 20.4 1.7 29.4.3-.1.5-.2.8-.3.4-.2.9-.4 1.3-.5.1 0 .3-.1.4-.1 0-.1 0-.2.1-.2.1-.1.2 0 .3 0v.1c1-.2 2.5-.6 2.6-.9v-.1c0-.1 0-.2.1-.2-.9-2.6-2.2-9.9-2.8-12.9-.9-4.4-2-9.7-2.8-14.6-.6.2-1.1.3-1.7.3"/><path opacity=".22" d="m73.7 107.7c-.4.1-.8.3-1.6.6-.3.1-.6.2-.8.3.3.9.6 1.7 1 2.6.4-.2.8-.3 1.2-.5.3-.2.6-.3.7-.5 0-.1 0-.2.1-.2l-.4-1.3-.2-1"/><path opacity=".22" d="m74.5 110.7c-.2.2-.4.3-.7.4-.4.2-.8.4-1.2.5.7 1.6 1.6 3.1 2.6 4.6.3.4.7.9 1.3 1.3.6-.1 1.3-.2 1.9-.3-1.5-1.9-3-4.2-3.9-6.5"/></g><path opacity=".22" fill="#cf4420" d="m69.5 56.8c2.1-1.8 3.9-4 5.2-6.4 3.1-6 1.1-15.6 1-15.8-.1-.3-3.1-12.4-14.1-15 .6.4 1.3.9 2 1.4 7 5.4 11 10.9 10.5 20.3-.5 7.8-4.4 14.2-10.4 17.7-.1 0-.1.1-.2.1-.1 0-.1.1-.2.1-2.4 1.3-5.2 2.2-8.2 2.6-.1 0-.2 0-.2 0 1 0 2 0 3-.1 1.9-.1 3.7-.5 5.4-1.2.1 0 .2-.1.2-.1.1 0 .2-.1.2-.1 2-.8 4-2 5.8-3.5"/><path d="m102.9 52.9c-.1-.4-4.3-26-4-26.3 0 0 20.9-1.2 21.2-.9.8.8-3.1 24.3-3.4 27.3 0 .2-.2.3-.3.2-.2 0-.3-.2-.2-.3 1.2-8.5 3.2-18.4 3.6-26.8-6.8.1-13.5.8-20.3.9l2 12.7 2 13c0 .1-.1.2-.2.2-.3.2-.4.1-.4 0"/><path d="m103.2 52.5c3.5.6 9.4-.1 13.2-.2.1 0 .3.1.3.3 0 .1-.1.3-.3.3-3.9.1-9.7.8-13.4.1-.1 0-.2-.2-.2-.3.1-.2.2-.2.4-.2"/><path d="m108.5 26.2c.1 6.4.6 12.1.4 18.6-.1 2.4.1 4.2-.2 6.7.2.4.2.8.1 1.3 0 .1-.1.3-.3.3-.1 0-.3-.1-.3-.3 0-.7-.1-1.3-.1-1.3.2-2.6.1-4.2.2-6.7.2-6.5-.3-12.2-.4-18.6 0-.1.1-.2.2-.2.3-.1.4 0 .4.2"/><path d="m105.6 26.5c-2.2.1-6.7.5-6.5-3.1.2-2.1 2.4-2.5 4.2-2-.8-1.3-1.2-3-.4-4.4.9-1.5 3.3-.7 4.7.6 0-2.5 1.4-4.8 3.5-3.3 1.3.9 1.7 2.3 1.6 3.7 1-2 2.7-4.2 4-.9.4 1.1-.1 2.5-.7 3.6 1.6-.6 3.9-.6 3.9 1.6.1 2.1-1.6 3.2-3.3 3.9-.1 0-.3 0-.3-.2 0-.1 0-.3.2-.3.8-.3 1.7-.7 2.3-1.4 2.1-2.8-.9-4.8-3.9-2.2-.3.2-.4.1-.4-.2 0-.2.2-.4.5-.6.9-1.1 1.9-2.5 1.3-3.9-1.2-3.1-2.7.1-3.4 1.7 0 0-.5 1.8-.9 1.1 0 0 0-.1 0-.3 0-.1 0-.1.1-.2.2-1.4.6-5.2-2.1-5.1-2 0-1.9 2.5-1.5 4.2.2.4.3.9.3 1.3 0 .3-.4.4-.5.1-.2-.5-.4-1-.5-1.5-.3-.6-.9-1-1.6-1.4-3.4-1.7-3.8 2-2 4.5.7.4 1.3.9 1.4 1.5.2.8-.8.2-1.7-1-1.5-.8-3.7-.6-4.1.8-1 3.4 4.2 3.1 5.9 3 .1 0 .2.1.2.2 0 .1-.1.2-.3.2"/><path d="m106.3 26.4c-1.4-.3-4-.6-3-2.8.4-1 1.5-.6 2.4-.2-.4-1.1-.5-2.8 1.3-3.2 1.3-.3 2.3.5 2.8 1.5.6-1.4 2.2-2.4 2.7-.2.1.4.1.8.1 1.3.8-.8 2-1.8 2.3-.2.1.6-.1 1.1-.4 1.6 1.4-.5 4 .1 1.8 1.9-.3.2-.4.3-.8.3-.1 0-.3-.1-.3-.3 0-.1.1-.3.3-.3.2 0 .3 0 .5-.2 1.8-1.3-.2-1.1-1.6-1.2-.1 0-.3 0-.4 0-.1-.3.4-.5.5-1.3.3-2.3-1.9.5-1.9.5-.8.8 0-2-.8-2.7-.8-.8-1.4 1.3-1.5 2.2 0 0 0 .1 0 .1 0 0 0 .1 0 .1 0 .1 0 .1-.1.2-.2.1-.1.1-.4 0 0-.1 0-.1-.1-.2v-.1c0-.1 0-.2 0-.4-.2-1.1-.6-2.2-2-2.2-2.1 0-1.7 2-.9 3.4 0 0 0 0 .1 0 0 .5-.2.4-.5.2-.3-.2-1.9-1.3-2.3-.6-1.1 1.8 1.7 2.1 2.6 2.3.1 0 .2.2.1.3-.2.2-.4.2-.5.2"/><path d="m113.6 26.3c-1.6 17.6-.8 8.8-2.4 26.5 0 .1-.1.3-.3.2-.1 0-.3-.1-.2-.3l1.2-13.2 1.2-13.2c0-.1.1-.2.2-.2.2 0 .3.1.3.2"/><g fill="#f7941e"><path d="m108.4 44.8c.2-6.3-.3-11.9-.4-18-2.9.2-5.8.3-8.7.4l2 12.7 1.7 10.9c.1 0 .1.1.1.1 0 .1 0 .2-.1.3l.2 1.3c.6.1 1.3.2 2 .2 0-.1.1-.2.2-.2.1 0 .2.1.2.2.6 0 1.2 0 1.8 0 .1 0 .1-.1.2-.1.1 0 .2 0 .3.1.1 0 .3 0 .4 0 0-.7-.1-1.2-.1-1.2.2-2.6.1-4.2.2-6.7"/><path d="m113.5 26.4c-1.5 17.5-.8 8.8-2.3 26.2 1.8-.1 3.5-.2 5-.3 1.2-8.3 3.2-18 3.5-26.2-1 0-2 0-3 .1 0 0-.1 0-.1 0-.1 0-.2 0-.2 0-1 .1-1.9.1-2.9.2"/></g><path fill="#26c4f0" d="m111.9 39.5l1.2-13.1c-1.5.1-3.1.2-4.6.3.1 6.2.6 11.7.4 18.1-.1 2.4.1 4.2-.2 6.7.2.4.2.8.1 1.3.6 0 1.3 0 1.9-.1l1.2-13.2"/><path fill="#346897" d="m108.5 26.1c2.3-.1 4.8-.2 6.8-.3 0 0 .1 0 .1 0 .2 0 .3 0 .5-.2 1.8-1.3-.2-1.1-1.6-1.2-.1 0-.3 0-.4 0-.1-.3.4-.5.5-1.3.3-2.3-1.9.5-1.9.5-.8.8 0-2-.8-2.7-.8-.8-1.4 1.3-1.5 2.2 0 0 0 .1 0 .1 0 0 0 .1 0 .1 0 .1 0 .1-.1.2-.2.1-.1.1-.4 0 0-.1 0-.1-.1-.2v-.1c0-.1 0-.2 0-.4-.2-1.1-.6-2.2-2-2.2-2.1 0-1.7 2-.9 3.4h.1c0 .5-.2.4-.5.2-.3-.2-1.9-1.3-2.3-.6-1.1 1.8 1.7 2.1 2.6 2.3.1 0 .2.2.2.3.5 0 1-.1 1.4-.1 0-.1.1-.2.2-.2 0 0 .1.1.1.2"/><g fill="#26c4f0"><path d="m109.8 21.7c.6-1.4 2.2-2.4 2.7-.2.1.4.1.8.1 1.3.6-.6 1.5-1.4 2-1 .1-.1.2-.3.4-.4.9-1.1 1.9-2.5 1.3-3.9-1.2-3.1-2.7.1-3.4 1.7 0 0-.5 1.8-.9 1.1 0 0 0-.1 0-.3 0-.1 0-.1.1-.2.2-1.4.6-5.2-2.1-5.1-2 0-1.9 2.5-1.5 4.2.2.4.3.9.3 1.3 0 .1-.1.2-.2.3.5.1.9.6 1.2 1.2"/><path d="m108.2 20.2c-.2-.5-.4-1-.5-1.5-.3-.6-.9-1-1.6-1.4-3.4-1.7-3.8 2-2 4.5.7.4 1.3.9 1.4 1.5 0 0 0 .1 0 .1 0 0 .1 0 .1.1-.4-1.1-.5-2.8 1.3-3.2.5-.2 1-.2 1.3-.1"/><path d="m103.8 22.2c-1.5-.8-3.7-.6-4.1.8-.9 3 3 3.1 5.1 3-1.2-.3-2.2-.9-1.5-2.5.2-.5.6-.7 1.1-.6-.2-.2-.4-.4-.6-.7"/><path d="m114.8 22.5c.1.6-.1 1.1-.4 1.6 1.3-.5 3.7.1 2 1.6 0 0 0 0 .1 0 .8-.3 1.7-.7 2.2-1.4 2.1-2.8-.9-4.8-3.9-2.2 0 0-.1 0-.1 0 .1.2.1.3.1.4"/></g><path opacity=".24" d="m31.5 38.1c-.2-8.8-2.2-12.1 2.1-19.7-2.8 1.4-8.1 5.1-9.7 14.1l1.6-.1-.2.3c0 .1-3 6-.6 12.2l.9-.4v.3c0 0 .1.4.2.9.7 2.4 3.6 8.9 13.2 12.8-2-3.4-3.1-6.7-4.3-10.7-.1.5-.2 1.1-.2 1.5 0 .1 0 .2 0 .3-.1.3-.5.3-.5-.1 0-.1 0-.1 0-.2-.2-2.9-1.2-10.3-.4-14.3-.7 1.1-1.5 2.3-1.5 3h-.1c-.1.7-.3.4-.5.1"/></g></svg>