<!-- Generator: Adobe Illustrator 18.1.1, SVG Export Plug-In  -->
<svg version="1.1"
	 xmlns="http://www.w3.org/2000/svg" xmlns:xlink="http://www.w3.org/1999/xlink" xmlns:a="http://ns.adobe.com/AdobeSVGViewerExtensions/3.0/"
	 x="0px" y="0px" width="102.7px" height="102.7px" viewBox="0 0 102.7 102.7" enable-background="new 0 0 102.7 102.7"
	 xml:space="preserve">
<defs>
</defs>
<g>
	<path fill="#FFFFFF" d="M51.3,102.7C23.1,102.7,0,79.6,0,51.3C0,23.1,23.1,0,51.3,0c28.2,0,51.3,23.1,51.3,51.3
		C102.7,79.6,79.6,102.7,51.3,102.7z"/>
</g>
<g>
	<path fill="#1C4B87" d="M81.5,38.7h-5.7c0,0,0,0,0-0.1c0-0.5-0.4-0.9-0.9-0.9h-4.3c-0.5,0-0.9,0.4-0.9,0.9c0,0,0,0,0,0.1H34.8
		c0,0,0,0,0-0.1c0-0.5-0.4-0.9-0.9-0.9h-4.3c-0.5,0-0.9,0.4-0.9,0.9c0,0,0,0,0,0.1h-5.7c-0.8,0-1.5,0.7-1.5,1.5v35.1
		c0,0.8,0.7,1.5,1.5,1.5h58.4c0.8,0,1.5-0.7,1.5-1.5V40.2C83,39.4,82.4,38.7,81.5,38.7z"/>
	<path fill="#1C4B87" d="M44.5,32.4c0-1,0.8-1.7,1.7-1.7H58c1,0,1.7,0.8,1.7,1.7V37h2.9v-6c0-1.8-1.5-3.3-3.3-3.3H44.8
		c-1.8,0-3.3,1.5-3.3,3.3v6h2.9V32.4z"/>
</g>
</svg>
