<svg xmlns="http://www.w3.org/2000/svg" xmlns:xlink="http://www.w3.org/1999/xlink" viewBox="0 0 266.9 270.4" enable-background="new 0 0 266.9 270.4"><defs><path id="8" d="m120.5 94c1.8.3 4.9.3 5.8 2.1 0 .1 0 .2-.1.2-.1 0-.2 0-.2-.1-.8-1.5-4-1.6-5.5-1.9-.1 0-.1-.1-.1-.2-.1 0 0-.1.1-.1m32.2 61.1c-.1-9.6 2.5-27.2 9.5-34.2 1.7-1.7 3.2 2.6 3.3 3.9.6 5.9-3.1 9.1-5.1 14.1-4.4 11.3-2.2 27 2.8 37.8 2.3 4.9 4.3 2.4 4.5 9.7.1 5-1.4 8.5-5.1 3l-1.1-1.8c0 0 0-.1 0-.1-6.1-10.9-8.8-19.7-8.8-32.4zm-9.8-92.4c-.5.7-1.1 1.3-1.7 1.6 0 .3.3.3.3.4.1.1.4.1.5.1.1 0 .2.1.2.2 0 .1-.1.2-.2.2-.3 0-.6-.1-.8-.3-.2-.1-.3-.3-.4-.5-.5.1-1-.2-1.4-1.1-.4 0-1-.1-1.5-.3.1.8.2.5.5 1.2 0 .1 0 .2-.1.2-.1 0-.2 0-.2-.1-.4-.8-.5-.4-.6-1.6-.2-.1-.3-.3-.3-.6-.2-.5-.3-.9-.2-1.4.5-2.6-1.1-6.7-2.6-10.8-2.6-.1-4.6-.4-7.2-.2-1.3.1-2.4.1-3.6.2 0 0-.1 0-.1 0 0 0-.1 0-.1 0-3.7.1-7-.1-11.1-.3-.8 0-1.6-.1-2.6-.1 0 0 0 .1-.1.1-.1.1-.2.1-.3 0 0 0 0-.1-.1-.1-5.9 0-14.4.5-18.6 2.1-4.1 1.6-8.3 5.8-9.5 10.1-.8 2.6-1.7 7.4-1.6 10 .4 13.6.8 27.2 1.1 40.8 0 1.6.1 1.1-.1 1.9.6-.2 1.2-.3 1.9-.5 14.4-2.8 19.8 3.8 19.8 3.9l.3.4-2.7-.6c4.1 2.7 5.4 6.7 5.9 9 0 .1 0 .1 0 .2.1.9.2 1.5.2 1.7.4.6 4.4 8.1 3.3 14-.9 4.7-3.6 9-7.3 11.8 0 .2 0 .3 0 .5.4 0 .7.1 1.1.1 0 0 .1 0 .1 0 1.5.1 2.6 0 4.3-.9 1-.5 2.1-1.1 3.2-1.8 0-.1.1-.1.2-.1 5.7-3.5 11.2-8.7 14.5-14.2 1.5-3 2.7-5.9 2.9-9.3.2-3.5-.2-4-2.4-6-1.1-1.1-1.3-2.2-.9-3 0 0-.1 0-.1-.1-.3-.2-.6-.4-.8-.7-.9.3-1.9.3-2.6-.4-1 .1-1.9-.3-2.4-1.2-.9.8-2.3.6-2.9-.4-.5.3-1.2.3-1.7 0-.3-.2-.6-.4-.8-.7-1.2.4-2.9.2-3.9-.6-.7-.5-1.3-1.2-1.4-2.1 0-.3 0-.3.1-.6.1-.5.6-1 1.1-1.1-.2-.4-.2-.9-.1-1.4.2-.9.9-1.5 1.6-2-.4-.9 0-2.1.4-3 .7-1.5 1.7-3.9 3.6-4.1.2 0 .4 0 .6 0 .2-.1.3-.1.5-.1.6-.1 1.1.1 1.6.4.4.3.6.6.7 1 .1 0 .2 0 .3 0 1-.4 2 0 2.6.9.3.5.4 1.1.3 1.6 1-.3 2.5-.2 3 .9.2-.1.4-.2.6-.2.3 0 .2 0 .5 0 .4 0 .8.2 1.1.4.3-.7.9-1.1 1.6-1.2.5-.2 1.1-.2 1.7.1.7.4 1.2 1.2.9 2 .9 0 1.9.5 2.3 1.3.3.6.2 1.4-.4 1.9.3.2.5.5.5.9.3.6.5 1.3.7 2 .1-.2.2-.4.3-.5 1.5-1.6 1.9 1.2 2 3.2.1-.1.2-.2.3-.2 1.5-.7 1.4 1.8 1.3 2.6-.3 2.7-3.4 3.8-4.4 9.2-1 5.2-1.5 9.4-3.6 14.4-3.3 7.8-12.9 15.7-20.6 19.4 0 6.8 2.1 12.4 2 19.5-.1 5.5-1.6 13.3-3.4 20.5.1-.1.2 0 .3.1.1.1 0 .2-.1.3-.1.1-.2.1-.4.2-1.2 4.8-2.5 9.5-3.5 13.1-.1.2-.1.3-.1.5 4-.3 8-.8 12.9-2.2 12-3.3 19.3-5.6 32.2-3.2 6.9 1.3 25.8 10.6 31 6.9l.5-.4c1-1.4 4.2-5.2 5.8-5.8.1-4.1.5-8.2.6-12.3-.5-.1-1-.3-1.7-.6-2.3-1-1.4-1-1.3-2.1.4-4.8 1.9-9.5 2.2-14.5-.7-.2-1.3-.4-2-.5-.1 0-.1-.1-.1-.1-1-.5-3-1.5-3.9-2.6 0 0-.1 0-.1 0-4.2-.1-10-.7-12.3-4.8 0 0 0 0-.1-.1-.8-1.6-2.6-4.6-1.2-6.4.2-.3.6-.7 1.2-1.1-1.6-.6-3.1-1.6-4.5-2.1 0 0-1-.2-1.2-.3 0-.4.8-3.6.9-3.7.1-.1 12.7 3.2 13.8 3.5 3 1 5.6 1.9 8.4 2.6 0-2.8.3-7.1-.6-9.7-5.1-3.7-8.4-9.6-8.7-16.1-1.1-2.4-1.3-5.2-.6-8.3-.4.6-1 1.5-1.1 2l-.1.5-2.3-4.6v-.1c0-.1.6-2.6 1.5-4.5-.6.6-1.3 1.7-2 3l-.1.3-2.2-3.2.1-.1c.6-1 4.8-8 12.3-11.9-.1-6.3-.4-12.6-.7-18.8-.9-18.5 2.9-44.6-23.6-43.6-.1 0-.2-.1-.2-.2-1 0-2 0-3-.1.1.2.1.4.2.6 0 .1 0 .2-.1.2-.1 0-.2 0-.2-.1-.1-.3-.2-.5-.3-.7-3.6-.1-7.2-.3-10.7-.3-.6 0-1.3.1-1.9 0-.6 0-1.2 0-1.8.1.7 3.1 1.6 6.2 3.9 8.6 1.3 1.4 2.2 4 1.1 4.3.2.4.2.8-.2.9-.1 0-.2 0-.2-.1 0-.1 0-.2.1-.2.1-.2.1-.4-.1-.6-.3.1-.6 0-.9-.2m-25 26.8c2.3.5 10.2 1.3 10.6 4.1 0 .1-.1.2-.1.2-.1 0-.2-.1-.2-.1-.8-2.5-8-3.3-10.4-3.8-.1 0-.2-.1-.1-.2 0-.1.1-.2.2-.2"/><path id="9" d="m181.9 112.8c1.9-1 4-1.7 6.3-2.2 0-.5 0-.9-.1-1.4l-.1-.1h.1c0-.3 0-.7-.1-1h-.2c0 0 0-.1-.1-.3 0 0 0 0 0 .1 0-.1 0-.1 0-.2-.3-2.2-.7-13.1-.8-14.2-.9-18 2.7-43.2-22.4-43-.3 0-.5 0-.8 0-.1 0-.2 0-.3 0 0 0-.1 0-.1 0 0 0-.1 0-.1 0-.1 0-.2 0-.2-.1-1.7-.2-3.5-.3-5.5-.3 0 0 0 0 0 .1 0 0 0 .1 0 .1 26-1.1 22.4 26 23.2 41.4.3 5.8.7 15 .8 21.2.3-.1.4-.1.4-.1"/><path id="A" d="m197 108c4.2.3 9.7 1.9 12.7 8.1l1.3-2.9c-.7-10.4-1.6-20.7-2.9-30.5-1.3-9.6-2.1-21.3-11.1-27.2-6.5-4.3-18-5.1-27.3-5.1 19.9 3.1 16.9 26.2 17.7 43 .2 3.1.3 6.7.5 10.1.1 0 .2.1.3.2.2.5.1 1.6.2 2.2.1 1 .1 2 .2 2.9.6 0 4.2-1 8.4-.8"/><path id="B" d="m116.9 34.6c-.3.2-.4.6-.5.9 0 .1-.1.2-.2.2-.1 0-.2-.1-.2-.2 0-.5.2-1 .7-1.2.1 0 .2 0 .2.1.2.1.1.2 0 .2m13.1-5.6l-.7-.2c-.1 0-.2-.1-.2-.2 0-.1.1-.2.2-.2 1.2.3.6.1 1.7.5.1 0 .1.1.1.2 0 .1-.2.1-.2.1l-.9-.2zm-20.6 2.9c-.3.3-.4.8 0 1.1.1.1.1.2 0 .3-.1.1-.2.1-.3 0-.5-.5-.5-1.1 0-1.6.1-.1.2-.1.2 0 .2 0 .2.1.1.2m25.9-3.2c-.3 0-.2-.1-.6-.2-.1 0-.2-.1-.2-.2 0-.1.1-.2.2-.2.4.1.3.1.7.2.1 0 .2.1.1.2 0 .2-.1.2-.2.2m-21.2-3.2c-.1.1-.1.1-.3.1 0 0 0 .1-.1.1 0 .1-.1.1-.2.1-.1 0-.1-.1-.1-.2.2-.4.1-.2.4-.4.1-.1.2-.1.2 0 .2.1.2.2.1.3m27.7 3.4c-.1 0-.2-.1-.2-.2 0-.1.1-.2.2-.2h.2c.1 0 .2.1.2.2 0 .1-.1.2-.2.2h-.2m-19-4.7c-.3 0-.2 0-.5.1-.1 0-.2 0-.2-.1 0-.1 0-.2.1-.2.3-.1.3-.1.6-.1.1 0 .2.1.2.2 0 0-.1.1-.2.1m9.4 17.7c0-.1.1-.2.2-.2.1 0 .2.1.2.2.5 5.6 5.7 14.3 4.9 19-.2.9.2 1.7 1.1 1.9.4.1.7.2.9.2-.1-.6-.1-1.2-.1-1.5 0-.1.1-.2.2-.2s.2.1.2.2c0 .8 0 1.6.4 2.3.1 0 .1.1.1.2.2.1.3.1.5 0 0 0 0-.1 0-.1 0-.1.1-.1.2-.1 0 0 0 0 .1 0 .3-.2.7-.6 1-.9.4-.7.6-1.2-.4-1.8-.1-.1-.1-.2-.1-.3.1-.1.2-.1.3-.1.9.6 1 1 .9 1.6.1 0 .2-.1.2 0 2.4 1.1.9-1.8.3-2.6l-.6-.7c-3.3-3.6-3.1-6-4.4-10.5-.5-1.6-.7-2.9-1.4-4.6-.1-.1-.1-.2 0-.3.1-.1.2 0 .3.1.7 1.5 1.1 3.2 1.5 4.9 1.4 1.4 3.4.9 5.4.9 1.8 0 2.2-2.1-1.9-1.8h-.4c-.2 0-.3-.2-.3-.3 0-.2.2-.3.3-.3 1-.1 1.2-.2 2.2 0h-.1c0 0 .1 0 .1 0 0-.5.1-.7.2-1.2-.5-.5-1-1.1-1.4-1.8-.6-1.1-1.1-2.2-1.4-3.3-.7-.1-1.3-.1-2.1-.1-.1 0-.2 0-.2-.1 0-.1 0-.2.1-.2.9-.1 1.5-.1 2.2 0-.1-.3-.1-.5-.1-.8-1.6-.1-.9-.1-3.2-.3-.1 0-.2-.1-.2-.2 0-.1.1-.2.2-.2 2.3.2 1.6.2 3.1.3 0-.2 0-.5-.1-.7-.9-.2-1.9-.4-2.5-.9-.1-.1 0-.2 0-.2.1-.1.2-.1.2 0 .7.3 1.5.5 2.2.7 0-3.3 1.2-6.5 3.3-9.1-6-.7-6.2-2.4-11.2-5.2-7.3-4-15.1-4.5-22.1.4-3.7 2.6-5.3 7-4.9 11.4 0 0 0 .1 0 .1 0 0 0 0 0 .1 0 .1 0 .1 0 .2-.5 2.7-3 4.2-6 4.2 0 .1-.1.1-.1.1-.7.3-.8 1.4-.8 2 0 .1-.1.2-.2.2-.1 0-.2-.1-.2-.2 0-.8.1-1.7.7-2.2-.8-.1-1.7-.2-2.5-.5 0 0-.1.1-.1 0-1 0-1.3.9-1.3 1.8 0 .1 0 .2-.1.2-.1 0-.2 0-.2-.1-.1-1 .2-1.9 1.1-2.1-.6-.4-1.4-.8-2.1-1.4-.7.1-1.6.4-1.7 1.2 0 .1-.1.2-.2.2-.1 0-.2-.1-.2-.2 0-.9.8-1.3 1.6-1.5-.8-.6-1.5-1.3-2.1-2.2 0 0-.1 0-.1 0-.9-.1-1.3-.4-2 .2-.1.1-.2.1-.2 0-.1-.1-.1-.2 0-.2.8-.8 1.2-.6 2.1-.4-.6-.8-1.1-1.8-1.5-2.9-.1 0-.1 0-.2-.1-.6-.8-1.2-.7-2.1-.6-.1 0-.2 0-.2-.1 0-.1 0-.2.1-.2.9-.3 1.5-.2 2.1.3-.1-.2-.1-.5-.2-.7-.4-1.7-.7-3.8-3.3-3-3.5 1-.2 10.1 1 12 3.6 5.5 14.4 8.8 19.9 4l1-1.1c0-.1.1-.1.1-.1.1-.1.2-.1.3 0 1.9-.1 2.6 2.3 2 3.9-.2.7-.9 1.7-.9 2.7 1 0 1.9 0 2.6.1 4 .2 7.3.4 10.9.3 0 0 .1-.1.1-.1 2.7-.2 4.3-.3 2.6-2.8-.5-.5-1.2-.8-1.9-.9.1 0 .1-.1.2-.1 0-.1 0-.2-.1-.2-.4-.1-.9-.1-1.3.1-.1.1-.3.1-.4.2-.5 0-1 0-1.4 0-1.4 0-2 .6-2.3-.7-.3-1.2 2.8-5.2 3.6-6.8 1.5-3.3 2.2-8.1-2.3-9.3-.1 0-.2-.1-.2-.2 0-.1.1-.2.2-.2 3.6.9 4.4 4.6 3.4 7.8-1.2 3.7-3.1 5.2-4.3 8.1-.1.3 0 .6.1.9 2.4-.1 7.3-.8 7.8 2.6.1.3 0 .6-.1.8 0 0 0 0 .1 0 2.2.6 4.9.2 6.2-1.9 0 0 .1-.1.1-.1-.5-1.7-.9-3.4-1-4.9m-8.4 3.9c0 0 .1 0 .1 0 0 0-.1 0-.1 0m.3 0c-.1 0-.1 0 0 0-.1 0-.1 0-.2 0 .1 0 .1 0 .2 0"/><path id="C" d="m155.4 37.7c-.1 0-.2-.1-.2-.2 0-.1.1-.2.2-.2.5 0 1 .2 1 .7 0 .1-.1.2-.2.2-.1 0-.2-.1-.2-.2 0-.2-.4-.3-.6-.3m-3.9 4.8c.4-.7 1-1.1 1.4-.8.3.2.3 1-.1 1.7-.4.7-1 1.1-1.4.8-.4-.3-.4-1 .1-1.7zm-.4-6.9c0 .1-.1.2-.2.1-.4-.1-.6-.1-1 .1-.1.1-.2 0-.3 0-.1-.1 0-.2 0-.3.5-.3.8-.3 1.3-.2.2.1.3.2.2.3m-1.9 5.7c.4-.7 1-1.1 1.4-.8.3.2.3 1-.1 1.7-.4.7-1 1.1-1.4.8-.4-.2-.3-1 .1-1.7m-3.4 1.7c.1.4-.1 1.6 1.1 1.8.1 0 .2.1.2.2 0 .1-.1.2-.2.2-1.5-.3-1.8-2.3-1.2-2.5.1 0 .2 0 .2.1 0 .1-.1.2-.1.2m-3.8-3.4c0 .3.1.5.2.8.3 0 .5.1.8.1.1 0 .2.1.1.2 0 .1-.1.2-.2.1-.2 0-.4 0-.6-.1.2.7.4 1.4.8 2.1.5 1.1 1.1 2 1.8 2.7.1 0 .1.1.2.2 2 2 4.7 2.5 7.5 2.1-.1-.2-.2-.5-.4-.8 0-.1 0-.2.1-.2.1 0 .2 0 .2.1.2.3.3.6.4.9.3 0 .6-.1.8-.2-.1-.2-.1-.4-.2-.6 0-.1.1-.2.2-.2.1 0 .2.1.2.2 0 .2.1.4.2.5.2-.1.4-.1.7-.2-.1-.1-.1-.2-.2-.4-.1-.1 0-.2.1-.3.1-.1.2 0 .3.1.1.2.2.3.3.5 1.1-.4 2.2-.8 3.2-1.3 5.1-2.6 7-11.4 4.3-16.6 0 0 0 0 0 .1-.1.1-.1.2-.2.3-.3.8-.6 1.4-.9 1.9-.5 1.4-.6 1.8-3.6 3.7-.1 0-.2 0-.2-.1 0-.1 0-.2.1-.2 2.2-1.5 2.7-2 3-2.7-.5.3-1.3.5-2.5.7-.8.1-6.2-1.9-7.7-3.4 0 .2-.1.3-.1.5.2.2-.2.9.2 1.9.1.1 0 .2-.1.3-.1.1-.2 0-.3-.1-.3-.8-.3-1.1-.2-1.9 0 0 0-.1 0-.1 0-.3.1-1 .1-1.4 0 0 0-.1 0-.1.2-.9.9-3 1.3-3.9l-1.1.4c-5.3 2.3-8.8 7.6-8.6 13.1.1 0 .3 0 .4.1.1 0 .2.1.2.2 0 .1-.1.2-.2.2-.1 0-.2 0-.4-.1 0 .2 0 .5.1.7.2 0 .3 0 .5.1.1 0 .2.1.2.2 0 .1-.1.2-.2.2-.3-.2-.5-.3-.6-.3"/><clipPath id="6"><use xlink:href="#B"/></clipPath><clipPath id="7"><use xlink:href="#C"/></clipPath><clipPath id="4"><use xlink:href="#A"/></clipPath><clipPath id="2"><use xlink:href="#9"/></clipPath><clipPath id="0"><use xlink:href="#8"/></clipPath><linearGradient id="5" gradientUnits="userSpaceOnUse" x1="-5098" x2="-5097.96" gradientTransform="matrix(85.7772-895.8948 411.9074 39.438-1022499.69-4706991)" xlink:href="#3"/><linearGradient id="1" gradientUnits="userSpaceOnUse" x1="-5097.54" x2="-5097.49" gradientTransform="matrix(-1138.5171-1703.6202 1564.2853-1045.4004-11343027-4982124.5)"><stop stop-color="#c4dde2"/><stop offset="1" stop-color="#fdfdfc"/></linearGradient><linearGradient id="3" gradientUnits="userSpaceOnUse" x1="-5098.38" x2="-5098.33" gradientTransform="matrix(13.8995-764.4615 271.2155 4.9313-890780.25-3914929.25)"><stop stop-color="#8dc9c8"/><stop offset="1" stop-color="#fdfdfc"/></linearGradient></defs><path clip-path="url(#0)" fill="url(#1)" d="M266.9 167.9 154.1 0 0 102.4 112.8 270.4z"/><g fill-rule="evenodd"><g fill="#a7aaab"><path d="m117 117.6c-.1 2.1-.2 6.7 2.4 5.1 2.1-1.3.9-1.2 3-.1 1.1.6 2-.2 2.3 0 1.6.9 1.1.5 1.4.3-.1-.1-.1-.1-.2-.2-1.1-1.1-1.3-2.2-.9-3 0 0-.1 0-.1-.1-.3-.2-.6-.4-.8-.7-.9.3-1.9.3-2.6-.4-1 .1-1.9-.3-2.4-1.2-.7.4-1.5.6-2.1.3"/><path d="m161.1 137.4c2.1 4.2 2 16.1 1.5 24.3.2-1 .5-2 .6-2.1 0 0 .6.1 1.5.3.1-6.6 1.1-23 .5-30.9-.8 3-2.6 5.4-4.1 8.4"/></g><path d="m126.8 107c0-.1 0-.3.1-.4.1-.3.2-.6.5-.9.4-.4.9-.6 1.4-.6.4 0 .7.1 1 .3.3.2.6.4.7.7.3.4.3.9.2 1.4.2 0 .5 0 .7.1.4.1.7.2 1 .5.3.2.5.5.7.8.3.6.2 1.3-.3 1.8 0 0-.1.1-.1.1-1.9-.1-1.4 2.5-1.2 3.7.3 1.4.7 2.9.4 4.3-.3.1-.6.2-.9.1-.1.1-.2.2-.2.4-.2.2-.3.4-.6.6-.3.2-.6.4-.9.5-.3.1-.7.1-1 .1-.5-.1-.9-.3-1.2-.6 0 0-.1-.1-.1-.1-.4.1-.7.2-1.1.2-.4 0-.8-.1-1.1-.3-.3-.2-.5-.4-.8-.6 0 0 0-.1-.1-.1-.2.1-.5.2-.8.2-.3 0-.6 0-.9-.1-.2-.1-.5-.2-.7-.3-.1-.1-.2-.2-.3-.3-.3 0-.6 0-.9 0-.5-.1-1-.4-1.3-.8-.1-.1-.2-.2-.2-.4-.5.4-1.1.6-1.7.5-.5-.1-1-.4-1.2-.8-.2.1-.4.2-.6.2-.4.1-.8 0-1.2-.2-.3-.2-.1-.1-.3-.2-.2-.1-.3-.3-.4-.5-.1 0-.2.1-.3.1-.4.1-.8.1-1.2.1-.3 0-.7-.1-1-.1-.5-.1-1-.3-1.4-.6-.3-.2-.7-.5-.9-.9-.3-.4-.4-.8-.5-1.2 0-.3 0-.3.1-.6.1-.5.6-1 1.1-1.1-.2-.4-.2-.9-.1-1.4.1-.5.3-.9.7-1.2.3-.3.6-.5.9-.7 0 0 0 0 .1 0-.1-.1-.1-.3-.1-.4-.1-.3-.1-.7 0-1 0-.3.1-.5.2-.8.1-.2.2-.5.3-.7.1-.2.2-.3.2-.5.1-.2.2-.4.3-.6.1-.3.3-.5.4-.8.2-.3.4-.6.6-.8.2-.3.5-.6.8-.8.4-.3.8-.5 1.3-.5.3 0 .6 0 .9 0 .3.1.5.2.8.4.4.3.7.7.8 1.2.1-.1.2-.1.4-.2.5-.2 1-.2 1.4 0 .5.2.9.5 1.2 1 .2.4.3.8.3 1.3 0 .1 0 .3 0 .4 0 0 .1 0 .1 0 .3-.1.6-.1.9-.1.3 0 .5 0 .8.1.3.1.5.1.8.3.3.2.5.4.6.7.2-.1.4-.2.7-.2.3 0 .2 0 .5 0 .4 0 .8.2 1.1.4.2-.5.4-.3.6-.1"/></g><path fill="none" stroke="#000" stroke-width="1.92" stroke-miterlimit="22.926" d="m126.8 107c0-.1 0-.3.1-.4.1-.3.2-.6.5-.9.4-.4.9-.6 1.4-.6.4 0 .7.1 1 .3.3.2.6.4.7.7.3.4.3.9.2 1.4.2 0 .5 0 .7.1.4.1.7.2 1 .5.3.2.5.5.7.8.3.6.2 1.3-.3 1.8 0 0-.1.1-.1.1-1.9-.1-1.4 2.5-1.2 3.7.3 1.4.7 2.9.4 4.3-.3.1-.6.2-.9.1-.1.1-.2.2-.2.4-.2.2-.3.4-.6.6-.3.2-.6.4-.9.5-.3.1-.7.1-1 .1-.5-.1-.9-.3-1.2-.6 0 0-.1-.1-.1-.1-.4.1-.7.2-1.1.2-.4 0-.8-.1-1.1-.3-.3-.2-.5-.4-.8-.6 0 0 0-.1-.1-.1-.2.1-.5.2-.8.2-.3 0-.6 0-.9-.1-.2-.1-.5-.2-.7-.3-.1-.1-.2-.2-.3-.3-.3 0-.6 0-.9 0-.5-.1-1-.4-1.3-.8-.1-.1-.2-.2-.2-.4-.5.4-1.1.6-1.7.5-.5-.1-1-.4-1.2-.8-.2.1-.4.2-.6.2-.4.1-.8 0-1.2-.2-.3-.2-.1-.1-.3-.2-.2-.1-.3-.3-.4-.5-.1 0-.2.1-.3.1-.4.1-.8.1-1.2.1-.3 0-.7-.1-1-.1-.5-.1-1-.3-1.4-.6-.3-.2-.7-.5-.9-.9-.3-.4-.4-.8-.5-1.2 0-.3 0-.3.1-.6.1-.5.6-1 1.1-1.1-.2-.4-.2-.9-.1-1.4.1-.5.3-.9.7-1.2.3-.3.6-.5.9-.7 0 0 0 0 .1 0-.1-.1-.1-.3-.1-.4-.1-.3-.1-.7 0-1 0-.3.1-.5.2-.8.1-.2.2-.5.3-.7.1-.2.2-.3.2-.5.1-.2.2-.4.3-.6.1-.3.3-.5.4-.8.2-.3.4-.6.6-.8.2-.3.5-.6.8-.8.4-.3.8-.5 1.3-.5.3 0 .6 0 .9 0 .3.1.5.2.8.4.4.3.7.7.8 1.2.1-.1.2-.1.4-.2.5-.2 1-.2 1.4 0 .5.2.9.5 1.2 1 .2.4.3.8.3 1.3 0 .1 0 .3 0 .4 0 0 .1 0 .1 0 .3-.1.6-.1.9-.1.3 0 .5 0 .8.1.3.1.5.1.8.3.3.2.5.4.6.7.2-.1.4-.2.7-.2.3 0 .2 0 .5 0 .4 0 .8.2 1.1.4.2-.5.4-.3.6-.1z"/><path fill-rule="evenodd" fill="#fff" d="m127.5 106.8c0-.1 0-.3 0-.4.1-.3.2-.6.4-.8.4-.4.8-.6 1.4-.6.3 0 .7.1 1 .3.3.2.5.4.7.7.3.4.3.9.2 1.4.2 0 .4 0 .7.1.4.1.7.2 1 .4.3.2.5.5.7.8.3.6.2 1.3-.2 1.8 0 0-.1.1-.1.1.3.2.5.6.5 1-.2-.4-.5-.6-.8-.7-2.1-.3-1.6 2.5-1.3 3.7.3 1.2.6 2.5.5 3.8-.1 0-.2 0-.3 0-.1.1-.1.2-.2.3-.2.2-.3.4-.5.6-.2.2-.5.4-.8.4-.3.1-.7.1-1 0-.4-.1-.8-.3-1.2-.6 0 0-.1-.1-.1-.1-.3.1-.7.2-1.1.2-.4 0-.7-.1-1.1-.3-.3-.2-.5-.3-.7-.6 0 0 0 0-.1-.1-.2.1-.5.1-.7.2-.3 0-.5 0-.8-.1-.2-.1-.5-.2-.7-.3-.1-.1-.2-.2-.3-.3-.3 0-.6 0-.8 0-.5-.1-.9-.4-1.2-.8-.1-.1-.2-.2-.2-.4-.4.4-1 .5-1.6.4-.5-.1-.9-.4-1.2-.8-.2.1-.3.2-.5.2-.4.1-.8 0-1.1-.2-.3-.2-.1-.1-.3-.2-.2-.1-.3-.3-.4-.5-.1 0-.2.1-.3.1-.4.1-.7.1-1.1.1-.3 0-.6-.1-.9-.1-.5-.1-1-.3-1.4-.6-.3-.2-.6-.5-.9-.9-.3-.4-.4-.8-.4-1.2 0-.2 0-.3.1-.5.1-.5.5-.9 1-1.1-.2-.4-.2-.9-.1-1.3.1-.4.3-.8.6-1.2.2-.3.5-.5.8-.7 0 0 0 0 .1 0-.1-.1-.1-.3-.1-.4-.1-.3-.1-.7 0-1 0-.3.1-.5.2-.8.1-.2.2-.5.3-.7.1-.2.2-.3.2-.5.1-.2.2-.4.3-.6.1-.3.3-.5.4-.8.2-.3.3-.5.5-.8.2-.3.5-.6.8-.8.4-.3.8-.4 1.2-.5.3 0 .5 0 .8.1.3.1.5.2.7.3.4.3.7.7.8 1.2.1-.1.2-.1.4-.2.5-.2.9-.2 1.4 0 .5.2.9.5 1.1 1 .2.4.3.8.3 1.3 0 .1 0 .3 0 .4 0 0 .1 0 .1 0 .3-.1.6-.1.9-.1.2 0 .5 0 .7.1.3.1.5.1.7.3.3.2.5.4.6.7.2-.1.4-.2.6-.2.3 0 .2 0 .5 0 .4 0 .7.2 1 .4-.1 0 .1.2.3.4"/><path fill="none" stroke="#000" stroke-width="1.92" stroke-miterlimit="22.926" d="m127.5 106.8c0-.1 0-.3 0-.4.1-.3.2-.6.4-.8.4-.4.8-.6 1.4-.6.3 0 .7.1 1 .3.3.2.5.4.7.7.3.4.3.9.2 1.4.2 0 .4 0 .7.1.4.1.7.2 1 .4.3.2.5.5.7.8.3.6.2 1.3-.2 1.8 0 0-.1.1-.1.1.3.2.5.6.5 1-.2-.4-.5-.6-.8-.7-2.1-.3-1.6 2.5-1.3 3.7.3 1.2.6 2.5.5 3.8-.1 0-.2 0-.3 0-.1.1-.1.2-.2.3-.2.2-.3.4-.5.6-.2.2-.5.4-.8.4-.3.1-.7.1-1 0-.4-.1-.8-.3-1.2-.6 0 0-.1-.1-.1-.1-.3.1-.7.2-1.1.2-.4 0-.7-.1-1.1-.3-.3-.2-.5-.3-.7-.6 0 0 0 0-.1-.1-.2.1-.5.1-.7.2-.3 0-.5 0-.8-.1-.2-.1-.5-.2-.7-.3-.1-.1-.2-.2-.3-.3-.3 0-.6 0-.8 0-.5-.1-.9-.4-1.2-.8-.1-.1-.2-.2-.2-.4-.4.4-1 .5-1.6.4-.5-.1-.9-.4-1.2-.8-.2.1-.3.2-.5.2-.4.1-.8 0-1.1-.2-.3-.2-.1-.1-.3-.2-.2-.1-.3-.3-.4-.5-.1 0-.2.1-.3.1-.4.1-.7.1-1.1.1-.3 0-.6-.1-.9-.1-.5-.1-1-.3-1.4-.6-.3-.2-.6-.5-.9-.9-.3-.4-.4-.8-.4-1.2 0-.2 0-.3.1-.5.1-.5.5-.9 1-1.1-.2-.4-.2-.9-.1-1.3.1-.4.3-.8.6-1.2.2-.3.5-.5.8-.7 0 0 0 0 .1 0-.1-.1-.1-.3-.1-.4-.1-.3-.1-.7 0-1 0-.3.1-.5.2-.8.1-.2.2-.5.3-.7.1-.2.2-.3.2-.5.1-.2.2-.4.3-.6.1-.3.3-.5.4-.8.2-.3.3-.5.5-.8.2-.3.5-.6.8-.8.4-.3.8-.4 1.2-.5.3 0 .5 0 .8.1.3.1.5.2.7.3.4.3.7.7.8 1.2.1-.1.2-.1.4-.2.5-.2.9-.2 1.4 0 .5.2.9.5 1.1 1 .2.4.3.8.3 1.3 0 .1 0 .3 0 .4 0 0 .1 0 .1 0 .3-.1.6-.1.9-.1.2 0 .5 0 .7.1.3.1.5.1.7.3.3.2.5.4.6.7.2-.1.4-.2.6-.2.3 0 .2 0 .5 0 .4 0 .7.2 1 .4-.1 0 .1.2.3.4z"/><g fill-rule="evenodd"><path fill="#d72826" d="m125.4 113c.1-.1.1-.2.2-.3 0-.1.1-.3.1-.4 0-.2.1-.3.1-.5-.1.1-.3.1-.4.2-.1.1-.2.2-.3.3-.1.1-.1.2-.2.4 0 .1 0 .2 0 .3 0 .1.1.1.1.1.1 0 .1 0 .2 0 .1 0 .2-.1.2-.1m3.6-6.5c.1-.1.2-.1.3-.1.1 0 .2 0 .4.1.1.1.2.1.3.2.1.1.1.2 0 .3-.1.1-.2.2-.3.3-.1.1-.3 0-.5 0-.1 0-.1-.1-.2-.1 0-.1-.1-.1-.1-.2 0-.1 0-.1 0-.2 0-.2 0-.3.1-.3zm3.3 3c0 0-.1 0-.2 0-.1 0-.2-.1-.3-.1-.1 0-.2 0-.4 0-.1 0-.3.1-.4.3-.1.2-.2.3-.3.5-.1.2-.1.4-.2.5 0 .2 0 .3 0 .5 0 .1.1.3.2.3.1.1.3.2.4.2-.1.2-.1.4-.1.6 0 0 0 0-.1 0-.2 0-.3 0-.5 0-.2 0-.3-.1-.5-.2-.2-.1-.3-.3-.4-.4-.1-.1-.1-.2-.1-.3-.1.1-.2.2-.3.2-.1.1-.3.1-.5.2-.2 0-.3 0-.5 0-.2 0-.3-.1-.5-.2-.1-.1-.3-.2-.3-.3 0 0 0-.1-.1-.1l-.1.1c-.1 0-.2.1-.3.1-.1 0-.2.1-.2.1 0 .3-.1.5-.1.8-.1.3-.1.5-.2.7-.1.2-.2.4-.4.6-.1.2-.3.3-.5.4-.3.1-.5.2-.7.1-.2 0-.4-.1-.5-.3-.1-.1-.2-.3-.3-.5 0-.2 0-.5.1-.7.1-.3.3-.5.5-.7.2-.2.4-.3.6-.4.2-.1.4-.2.7-.3 0 0 0-.1 0-.2 0-.1 0-.2 0-.3 0-.1 0-.2 0-.4 0-.1 0-.2 0-.3 0-.1 0-.2-.1-.2 0-.1-.1-.2-.1-.2-.1.1-.2.1-.3.2-.1 0-.2.1-.3.1-.1 0-.2 0-.3 0-.1 0-.2-.1-.3-.2 0 0-.1.1-.1.1-.1.1-.3.2-.4.4-.2.1-.4.2-.6.2-.1 0-.2 0-.3 0-.1 0-.2-.1-.2-.1-.1 0-.1-.1-.2-.2 0-.1-.1-.1-.1-.2-.1-.2-.1-.4-.1-.6-.1.1-.2.2-.3.3-.1.1-.2.1-.4.2-.1 0-.3 0-.5 0-.2 0-.4-.1-.5-.3-.1-.2-.2-.4-.3-.6 0-.2 0-.5 0-.8.1-.3.2-.5.4-.8.1-.2.3-.3.5-.4.2-.1.4-.2.5-.2.2 0 .4-.1.5-.1.2 0 .3 0 .4 0 .1 0 .2.1.3.1.1 0 .1.1.1.1 0 .1-.1.1-.2.1-.1 0-.2.1-.3.1-.1 0-.2 0-.3.1-.1 0-.2.1-.3.2-.1.1-.3.3-.4.5-.1.2-.2.4-.2.6 0 .2-.1.4-.1.5 0 .2 0 .2.1.3.1 0 .2 0 .3 0 .1-.1.2-.1.3-.2.1-.1.2-.2.3-.3.1-.1.1-.2.1-.2 0-.1 0-.1.1-.2 0-.1.1-.2.1-.3 0-.1.1-.2.1-.3 0-.1.1-.1.2-.1.1 0 .1 0 .2 0 .1 0 .2 0 .2.1.1 0 .1.1.1.2 0 .1 0 .3-.1.5-.1.4-.2.8-.2 1 0 .2.1.4.2.5.1.1.2.1.3 0 .1-.1.2-.1.3-.2 0 0 .1-.1.1-.1 0 0 0-.1 0-.1 0-.2-.1-.4-.1-.6 0-.2.1-.4.1-.6.1-.2.2-.3.3-.5.1-.1.2-.2.3-.2.1-.1.2-.1.3-.1.1 0 .2 0 .3 0 .1 0 .3.1.4.2.1.1.3.2.4.3.1.1.2.2.3.4.1.1.1.2.1.2 0 0-.1.1-.2 0-.1 0-.2-.1-.4-.2-.1-.1-.3-.1-.4-.1-.1 0-.2 0-.3.1-.1.1-.1.2-.2.3-.1.1-.1.2-.2.3 0 .1-.1.2-.1.3 0 .1 0 .2.1.3 0 0 .1 0 .1 0 .1 0 .1-.1.2-.1.1 0 .2-.1.3-.1.1 0 .2 0 .3 0 .1 0 .2.1.3.2.1.1.2.3.2.5 0 .1.1.3.1.4 0 .2 0 .4 0 .7.2-.1.3-.1.5-.1 0 0 .1 0 .1 0 0-.1 0-.3.1-.5 0-.2.1-.5.2-.9.1-.1.1-.2.2-.3.1-.1.1-.2.2-.3.1-.1.1-.2.2-.2.1-.1.1-.1.2-.1.1 0 .2 0 .3 0 .1 0 .2 0 .3 0 .1 0 .1.1.2.2 0 .1 0 .2-.1.3 0 .1-.1.2-.1.3-.1.1-.1.3-.1.4 0 .2-.1.3-.1.5 0 .2-.1.3-.1.5 0 .1 0 .3 0 .4 0 .1.1.2.1.2.1.1.3.1.4.1.1 0 .2-.1.4-.2 0-.2 0-.4 0-.6 0-.2.1-.4.2-.7.1-.2.2-.4.4-.6.2-.2.4-.3.7-.4.2-.1.5-.1.7-.1.2 0 .4.1.5.2.1.1.2.2.3.3.5-.3.5-.2.4-.1m-17.2.3c-.1 0-.2 0-.3 0-.1 0-.2 0-.4 0-.1 0-.3.1-.5.1-.2.1-.3.2-.5.3-.2.2-.3.4-.3.6 0 .2.2.4.5.6.2.1.3.2.5.4.2.1.4.2.5.4.1.1.3.3.3.5.1.2.1.5.1.8 0 .2-.1.4-.3.6-.2.1-.3.2-.6.3-.2.1-.5.1-.7.1-.2 0-.5 0-.7-.1-.4-.1-.7-.2-.9-.4-.3-.2-.4-.4-.6-.6-.1-.2-.2-.3-.2-.5 0-.1 0-.1 0-.1 0-.1.1-.1.1-.1.1 0 .1 0 .2.1.1 0 .2.1.3.2.1.1.2.2.4.2.1.1.3.2.5.2.2.1.4.1.6.1.2 0 .5 0 .8-.1.1 0 .2-.1.2-.2 0-.1.1-.2 0-.3 0-.1-.1-.3-.2-.4-.1-.1-.3-.3-.5-.4-.2-.1-.4-.2-.6-.3-.2-.1-.4-.2-.5-.4-.1-.1-.2-.3-.3-.5-.1-.2-.1-.4 0-.6 0-.2.1-.3.3-.5.2-.2.4-.3.6-.5.2-.2.5-.3.8-.4.3-.1.5-.2.8-.2.2 0 .5 0 .7.1.2.1.3.2.4.5.1.2.1.3.2.4.1.1.2.2.2.3.1.1.1.2.1.2 0 .1 0 .1-.1.2-.1 0-.1 0-.2 0-.1 0-.1-.1-.2-.1-.1-.1-.2-.1-.3-.2.1-.3 0-.3-.2-.3m2.3-.6c0-.1.1-.1.2-.1.1 0 .2.1.3.1.1.1.2.2.2.3.1.1.1.2.1.4 0 .1-.1.3-.1.4 0 .1-.1.2-.1.3 0 .1-.1.2-.1.3.2 0 .3.1.5.1.1 0 .2.1.3.1.1.1.1.1.1.2 0 .1-.1.1-.2.2-.1 0-.2 0-.4 0-.2 0-.3 0-.5 0-.1.4-.2.7-.2 1.1-.1.3-.2.6-.2.9-.1.3-.2.6-.3.8-.1.2-.2.4-.3.5-.1.1-.2.1-.2.2-.1 0-.2 0-.2 0-.1 0-.1-.1-.2-.1 0 0 0-.1 0-.2 0-.1 0-.2 0-.4 0-.2.1-.3.1-.6 0-.2.1-.4.1-.6.1-.5.3-1 .4-1.7-.2 0-.3 0-.4-.1-.1 0-.2-.1-.3-.1-.1-.1-.1-.1-.1-.2 0-.1.1-.1.2-.2.1 0 .2-.1.3-.1.1 0 .3 0 .5 0v-.1c0 0 0-.1 0-.1 0 0 0-.1 0-.1.1-.2.1-.4.1-.5 0-.1.1-.2.1-.3 0-.1 0-.2.1-.2.1-.1.2-.2.2-.2m1.3 3.2c-.1 0-.1-.1-.1-.1 0 0-.1 0-.1 0 0 0-.1 0-.1 0 0 0 0 0-.1-.1 0 0 0-.1.1-.1.1 0 .2-.1.3-.1.1 0 .3 0 .4 0 .1 0 .3.1.4.3.1.1.2.2.2.3.1.1.1.2.1.3 0 .1 0 .2 0 .3.2-.1.4-.2.6-.2.2 0 .3-.1.5-.1.2 0 .4 0 .5.1 0 0 .1.1 0 .1 0 0-.1.1-.1.1-.1 0-.1.1-.2.1-.1 0-.2 0-.3 0-.2 0-.4 0-.5.1-.1.1-.3.2-.4.3-.1.1-.2.3-.2.5-.1.2-.1.3-.2.5-.1.3-.2.6-.4.7-.1.1-.3.2-.5.2-.2 0-.3-.2-.4-.4 0-.2 0-.6.1-1 .1-.3.2-.5.2-.8.1-.2.1-.4.1-.5 0-.1 0-.3 0-.4.2 0 .2-.1.1-.1m5.2 1.1c0 .1-.1.1-.2.1-.1 0-.2.1-.3.1-.1 0-.2 0-.3.1-.1 0-.2.1-.3.2-.1.1-.3.3-.4.5-.1.2-.2.4-.2.6 0 .2-.1.4-.1.5 0 .2 0 .2.1.3.1 0 .2 0 .3 0 .1-.1.2-.1.3-.2.1-.1.2-.2.3-.3.1-.1.1-.2.1-.2 0-.1 0-.1.1-.2 0-.1.1-.2.1-.3 0-.1.1-.2.1-.3 0-.1.1-.1.2-.1.1 0 .1 0 .2 0 .1 0 .2 0 .2.1.1 0 .1.1.1.2 0 .1 0 .3-.1.5-.1.4-.2.8-.2 1 0 .2.1.4.2.5.1.1.2.1.3 0 .1-.1.2-.1.3-.2.1-.1.2-.1.3-.2.1-.1.1-.1.2-.1 0 0 0 .1 0 .2 0 .1-.1.2-.2.4-.1.1-.3.2-.4.4-.2.1-.4.2-.6.2-.1 0-.2 0-.3 0-.1 0-.2-.1-.3-.1-.1 0-.1-.1-.2-.2 0-.1-.1-.1-.1-.2-.1-.2-.1-.3-.1-.6-.1.1-.2.2-.3.3-.1.1-.2.1-.4.2-.1 0-.3 0-.5 0-.2 0-.3-.1-.5-.3-.1-.2-.2-.4-.3-.6 0-.2 0-.5 0-.8.1-.3.2-.5.4-.8.1-.2.3-.3.5-.4.2-.1.4-.2.5-.2.2 0 .4-.1.5-.1.2 0 .3 0 .4 0 .1 0 .2.1.3.1.3-.2.3-.2.3-.1m2 .7c.1 0 .2 0 .3 0 .1 0 .2.1.3.1.1.1.1.1.1.2 0 .1 0 .2 0 .2-.1.3-.2.7-.3 1 0 .3 0 .6 0 .8 0 .2.1.4.1.5.1.1.1.2.2.1 0-.1.1-.2.2-.3.1-.2.2-.4.3-.6.1-.2.3-.4.4-.6.2-.2.3-.3.5-.4.2-.1.3-.1.5-.1.1 0 .2.1.3.2.1.1.1.2.1.3 0 .1 0 .2.1.4 0 .1 0 .3 0 .5 0 .2 0 .4 0 .6 0 .2 0 .3 0 .4 0 .1.1.2.2.1.1 0 .1-.1.2-.2.1-.1.2-.2.3-.4.1-.1.2-.3.3-.4.1-.1.2-.3.4-.4.1-.1.3-.2.4-.3.1-.1.3-.1.4 0 .1 0 .3.1.4.2.1.1.2.2.3.3 0 .1.1.1.1.2 0 .1 0 .3.1.4 0 0-.1.1-.1.1-.1 0-.1-.1-.2-.2-.1-.1-.3-.1-.4 0-.2.1-.4.3-.6.7-.1.2-.2.3-.3.5-.1.1-.2.2-.3.3-.1.1-.2.1-.3.2-.1 0-.3 0-.4 0-.2 0-.3-.1-.4-.2-.1-.1-.2-.2-.3-.4-.1-.2-.1-.3-.1-.5 0-.2 0-.3 0-.5 0-.1 0-.2 0-.3 0-.1 0-.1 0-.1l-.1.1c0 .1-.1.2-.2.3-.1.1-.2.2-.2.3-.1.1-.2.2-.3.3-.1.1-.2.2-.3.2-.1.1-.3.1-.5.1-.2 0-.4-.1-.5-.1-.1-.1-.3-.2-.4-.3-.1-.1-.2-.3-.3-.4-.1-.1-.1-.3-.2-.4 0-.1 0-.2-.1-.3 0-.1 0-.3 0-.5 0-.2 0-.4 0-.5 0-.2 0-.4.1-.5 0-.2.1-.3.1-.4-.1-.2 0-.3.1-.3m-5.9-4.1c-.5-.2-.9-.5-1.1-1-.2-.5-.3-1-.2-1.7 0-.2.1-.5.1-.7.1-.2.1-.5.2-.7.1-.2.1-.5.2-.7.1-.2.1-.5.2-.7-.2 0-.3.1-.5.2-.2.2-.3.4-.5.7-.2.3-.3.6-.5.9-.1.3-.3.6-.4.9-.1.3-.2.5-.3.8-.1.2-.2.3-.2.4-.1.1-.1.1-.2.1-.1 0-.2 0-.3 0-.1 0-.2 0-.3-.1-.1 0-.1-.1-.2-.2-.1-.2-.1-.4-.1-.6 0-.3 0-.5.1-.7.1-.6.2-1.2.3-1.8.1-.6.2-1.2.2-1.8 0 0-.1 0-.1.1 0 0-.1 0-.2.1-.1 0-.1.1-.2.2-.1.1-.1.2-.2.3-.1.1-.1.2-.2.4-.1.2-.2.4-.3.6-.1.2-.2.5-.3.7-.1.3-.2.5-.2.7-.1.2-.1.4-.2.6-.1.2-.1.3-.1.4 0 .1-.1.1-.2.2-.1 0-.2 0-.3 0-.1 0-.2-.1-.3-.1-.1-.1-.1-.2-.2-.3 0-.2 0-.4 0-.5 0-.2.1-.4.1-.6.1-.2.1-.4.2-.6.1-.2.2-.3.2-.5.1-.1.1-.3.2-.5.1-.2.2-.4.4-.7.1-.2.3-.5.4-.7.2-.2.3-.4.5-.5.2-.1.4-.2.6-.2.1 0 .2 0 .3 0 .1 0 .2.1.3.2.1.1.2.2.3.5.1.2.1.4.1.7 0 .3 0 .6-.1.9 0 .3-.1.6-.2.9-.1.3-.1.6-.2.8-.1.3-.1.4-.1.6.1-.1.2-.2.3-.4.1-.2.2-.4.4-.6.1-.2.3-.4.4-.7.2-.2.3-.4.5-.6.2-.2.3-.4.5-.5.2-.2.3-.3.5-.3.2-.1.3-.1.5 0 .2.1.3.2.4.4.1.1.1.3.1.6 0 .3 0 .6 0 .9 0 .3-.1.7-.1 1-.1.4-.1.7-.1 1 0 .3-.1.6-.1.8 0 .2 0 .4.1.5.1.2.2.3.3.3.1.1.2.1.3.1.1 0 .2.1.2.1.1 0 .1.1.1.1 0 .1 0 .1-.1.2-.1 0-.1.1-.2.1-.1 0-.2 0-.3 0 0 0-.1 0-.2 0"/><path d="m157.2 50.2c26.9-1.1 23.2 25.3 24.1 44 .3 6.5.6 13.1.7 19.6 0 .1-.1.2-.2.2-.1 0-.2-.1-.2-.2-.1-6.5-.4-13.1-.7-19.6-.9-18.5 2.9-44.6-23.6-43.6-.1 0-.2-.1-.2-.2-.1-.1 0-.2.1-.2"/><path d="m163.4 50.2c7.5-.2 14.7 0 22.1 1 20.2 3.3 21.1 16.2 23.3 33.4 3.1 23.6 3.9 50 4.3 73.8.3 17 .5 34.5 0 51.5l-.1 2.1-.1 1.9c0 .1-.1.2-.2.2-.1 0-.2-.1-.2-.2v-1.9c.4-16.4.4-32.6.2-48.9-.4-26-1.2-54.6-4.6-80.4-1.3-9.6-2.1-21.3-11.1-27.2-8.1-5.3-24-5.2-33.6-5-.1 0-.2-.1-.2-.2 0 0 .1-.1.2-.1"/><path d="m161.9 187.3c0 .1.1.1 0 0 .6 1 2.5 4.4 3.9 4.4 2.3 0 1.2-8 1-9.2-1-2.8-2.3-2.1-4-5.6-5.1-10.9-7.3-26.7-2.8-38.1 1.9-4.8 5.7-8.2 5.1-13.9-.4-3.3-1.9-4.3-2.6-3.7-7.2 7.1-9.7 25.3-9.4 35 .3 12.5 2.8 20.3 8.8 31.1m-.3.2c-6.2-11-8.8-19.8-8.9-32.4-.1-9.6 2.5-27.2 9.5-34.2 1.7-1.7 3.2 2.6 3.3 3.9.6 5.9-3.1 9.1-5.1 14.1-4.4 11.3-2.2 27 2.8 37.8 2.3 4.9 4.3 2.4 4.5 9.7.1 5-1.4 8.5-5.1 3l-1.1-1.8c.1 0 .1 0 .1-.1z"/><path d="m161.8 187.5c-5.4-9.5-7.9-16.1-8.8-29.2-.7-10.9 2-29.8 9.4-37.3 1.7-1.8 5.6 5 .4 12.8-8.1 12.3-5.1 32.3.8 44 1.1 2.2 2.7 2 3.4 4.6 1.1 4 1 16-5.2 5.1"/><path fill="#fff" d="m99.4 118.5c.4 1.5.9 2.9 1.3 4.3.9.1 1.8 0 2.6-.2-.8-1.2-1.7-2.3-2.8-3.5-.3-.1-.8-.3-1.1-.6"/><path fill="#fdd0ad" d="m100.3 150.8c0 0 2.3 2.8 1.3 5.7-1 2.9-6.3 5-8.7.1-2.4-4.9 7.4-5.8 7.4-5.8"/><path d="m98 159.7c1.8-.3 3.3-1.6 3.8-3.1 1-3-1.2-5.8-1.3-5.9l-.1-.1h-.1c0 0-.7.1-1.7.3-2.2.4-5.1 1.3-6 3.1-.4.8-.4 1.7.1 2.7 1.2 2.3 3.1 3.4 5.3 3m2.2-8.7c.4.5 2.1 2.9 1.2 5.4-.5 1.4-1.9 2.5-3.5 2.8-2 .4-3.8-.6-4.9-2.7-.4-.9-.5-1.7-.1-2.4.9-1.7 4-2.6 5.7-2.9.8-.1 1.4-.2 1.6-.2z"/><path fill="#fdd0ad" d="m105.9 128.5c0 0 .1-7.5-7-11.4l3.4.8c0 0-5.1-6.6-19.6-3.8-9.4 1.8-12.7 8.6-12.7 8.6l-.5-2.7-1.2 2.1c0 0-2.7-.1-4.5 2.4 0 0 2.1-.5 2.1.2 0 0-7.8 4.6-6.2 16.1l1.3-.5c0 0-1.1 6.1 2.9 10.9l.7-.6c0 0 4.9 9.9 22.1 8.1 0 0 4.7.2 10.6-2.1 6.4-2.4 10.8-8.3 11.9-14.4 1.1-5.9-3.3-13.7-3.3-13.7"/><path d="m91.9 158.5c1.8-.4 3.6-.9 5.4-1.5 6.1-2.3 10.8-8 12.1-14.5 1.1-5.9-2.9-13.3-3.3-14 0-.6-.3-7-6.1-10.8l2.7.6-.3-.4c-.1-.1-5.4-6.7-19.8-3.9-7.9 1.5-11.6 6.7-12.5 8.2l-.5-2.7-1.4 2.5c-.2 0-.5 0-.9.1-1 .2-2.5.8-3.6 2.3l-.3.4.6-.1c.8-.2 1.5-.2 1.7 0-1.1.7-7.6 5.6-6.2 16.2v.2l1.2-.5c-.2 1.4-.5 6.5 2.9 10.7l.1.2.6-.6c.9 1.5 6.5 9.7 22.2 8 .1.1 2.3.2 5.4-.4m7-41.5l-.1.4c7 3.8 6.9 11.1 6.9 11.2 0 .1 4.4 7.8 3.3 13.8-1.2 6.4-5.9 12-11.8 14.2-1.7.6-3.5 1.2-5.3 1.5-3.1.6-5.2.5-5.2.5-16.9 1.8-21.9-7.9-21.9-8l-.1-.2-.7.6c-3.7-4.7-2.7-10.5-2.7-10.6l.1-.3-1.4.5c-1.4-11.1 6.1-15.6 6.2-15.7l.1-.1v-.1c0-.1-.1-.3-.2-.4-.3-.3-1.1-.2-1.7-.1 1-1.2 2.2-1.6 3.1-1.8.5-.1.9-.1.9-.1h.1l1-1.8.5 2.7.3-.5c0-.1 3.3-6.7 12.5-8.5 11.9-2.3 17.5 1.9 19 3.3l-2.9-.5z"/><path fill="#b14025" d="m59.7 140.9c-1.5-11.6 6.2-16.1 6.2-16.1-.1-.7-2.1-.2-2.1-.2 1.8-2.5 4.5-2.4 4.5-2.4l1.2-2.1.5 2.7c0 0 3.3-6.8 12.7-8.6 14.5-2.8 19.6 3.8 19.6 3.8l-3.4-.8c7.1 3.9 7 11.4 7 11.4s-7.9-13.1-21.7-8c0 0 6.5 1 6.8 6.2 0 0-3.3-2.3-4.2-2.9 0 0 2.9 8.8-1.4 11.5 0 0-2-3.4-2.8-5.8 0 0-3.3 11.1-2.8 13.9 0 0-6.2-4.3-5.8 2.4.4 5.7 5.5 3.2 5.5 3.2s5.2 7.2 7.2 9.9c-17.2 1.8-22.1-8.1-22.1-8.1l-.7.6c-4-4.8-2.9-10.9-2.9-10.9l-1.3.3"/><path d="m87 159l-.2-.3c-1.9-2.6-7-9.7-7-9.8v-.3l-.2.1c0 0-.6.3-1.3.4-.7.1-1.8.2-2.6-.4-.7-.6-1.2-1.6-1.3-3.1-.1-2.1.4-3.2 1.5-3.5 1.6-.3 3.9 1.3 4 1.3l.4.3-.1-.5c-.9-3.5 2.4-11.2 2.7-12.6.9 2.2 2.4 4.7 2.4 4.7l.1.2.2-.1c3.9-2.4 2.2-9.3 1.7-11.2 1.3.8 3.8 2.6 3.8 2.6l.3.2v-.4c-.3-4.2-4.6-5.8-6.3-6.2.8-.3 1.6-.5 2.5-.7 11.6-2.2 18.3 8.7 18.4 8.8l.3.6v-.7c0-.1 0-6.8-6.1-10.9l2.7.6-.3-.4c-.1-.1-5.4-6.7-19.8-3.9-7.9 1.5-11.6 6.7-12.5 8.2l-.5-2.7-1.4 2.5c-.2 0-.5 0-.9.1-1 .2-2.5.8-3.6 2.3l-.3.4.6-.1c.8-.2 1.5-.2 1.7 0-1.1.7-7.6 5.6-6.2 16.2v.2l1.2-.5c-.2 1.4-.5 6.5 2.9 10.7l.1.2.6-.6c.9 1.5 6.5 9.7 22.2 8l.3.3m-7.6-9.8c.2 1.4 5.1 6.8 6.8 9.4-16.6 1.6-21.5-7.9-21.6-8l-.1-.2-.7.6c-3.7-4.7-2.7-10.5-2.7-10.6l.1-.3-1.4.5c-1.4-11.1 6.1-15.6 6.2-15.7l.1-.1v-.1c0-.1-.1-.3-.2-.4-.3-.3-1.1-.2-1.7-.1 1-1.2 2.2-1.6 3.1-1.8.5-.1.9-.1.9-.1h.1l1-1.8.5 2.7.3-.5c0-.1 3.3-6.7 12.5-8.5 11.9-2.3 17.5 1.9 19 3.3l-2.8-.7-.1.4c5.7 3.1 6.7 8.6 6.9 10.5-1.6-2.3-8.1-10.4-18.4-8.4-1 .2-2.1.5-3.1.9l-.7.3.7.1c.1 0 6 1 6.6 5.6-.9-.6-3.1-2.2-3.9-2.7l-.4-.3.2.5c0 .1 2.7 8.5-1.2 11.2-.4-.7-2-3.5-2.7-5.6l-.4.1c0 .4-3.2 10.3-2.7 13.5-.4-.2-1-.6-1.7-.8-.7-.3-1.5-.4-2.2-.3-1.4.3-2 1.6-1.8 3.9.1 1.6.6 2.7 1.4 3.4.7.6 1.7.7 2.9.5.6-.1 1-.3 1.2-.4"/><path d="m96.8 134.4c.4.8.5 1.7.1 1.9-.4.2-1.1-.2-1.6-1.1-.4-.8-.5-1.7-.1-1.9.4-.2 1.1.3 1.6 1.1"/><path d="m100.8 130.9c.5.8.7 1.6.3 1.9-.4.3-1.1-.1-1.7-.8-.5-.7-.7-1.6-.3-1.9.4-.3 1.1 0 1.7.8"/><path d="m92 158.3c12.6-2.4 15.9-11.8 15.9-11.8-.2.5-.8 1.6-1.7 2.8-2.2 3.3-5.3 6-9 7.3-1.7.6-3.5 1.2-5.3 1.5-2.7.5-4.7.5-5.1.5 0 0 0 .1.1.1l.1.1c1.8 0 3.5-.2 5-.5"/><path d="m109.2 161.2c7.2-3.4 15.7-10.3 19.6-17.2 2.9-5.9 3.3-9.9 4.6-16.4.4-2 .7-2.9 1.7-4.7 2.2-2.9 3.2-3.3 2.5-6.7-1-.2-.8.9-.9 1.6v.1c0 .1 0 .1 0 .2-.2.1-.1.1-.3 0 0 0 0-.1 0-.2h-.1c0-.2 0-.4 0-.7-.1-1.8-.4-5.9-1.5-3.8-.4.9 0 1.9-.1 2.4 0 .1-.1.2-.2.2 0 0-.1-.1-.1-.2h-.1c0-.2 0-.4-.1-.7-.3-1.6-.6-4.7-1.9-4.3-3.1 1.1 2.5 8.1-2.1 10.5-1.1.6-2.8-.8-3.3-1.7-1.1-1.9-2.6.7-.7 2.4 2.3 2.1 2.8 2.7 2.5 6.4-.7 11.1-11.6 21.1-21 25.8-2.3 1.1-3.5 1.1-6 .7-.1 0-.2-.1-.2-.3 0-.1.1-.2.3-.2 2.3.3 3.5.4 5.7-.7 6.8-3.4 13.9-9.5 17.8-16.1 1.5-3 2.7-5.9 2.9-9.3.2-3.5-.2-4-2.4-6-2.6-2.4 0-5.2 1.3-3.3.5.8 1.7 2.2 2.8 1.8 3.7-1.3-.2-8.4 1.3-10 1.8-1.8 2.7.3 3.1 2.3.1-.2.2-.4.3-.5 1.5-1.6 1.9 1.2 2 3.2.1-.1.2-.2.3-.2 1.5-.7 1.4 1.8 1.3 2.6-.3 2.7-3.4 3.8-4.4 9.2-1 5.2-1.5 9.4-3.6 14.4-3.4 7.9-13.1 15.9-20.8 19.5-.1 0-.2 0-.3-.1 0 .1 0 0 .1 0"/><path d="m109.6 161.5c0 6.8 2.1 12.4 2 19.5-.2 9.4-4.4 25-7 34.2-.5 1.7-.3 1.4-.8 2.3 0 .1-.2.1-.3.1-.1-.1-.1-.2-.1-.2l.1-.2.1-.2c2.8-9.9 7.3-25.8 7.6-35.9.2-7.1-2-12.7-1.9-19.5 0-.1.1-.2.2-.2 0-.2.1-.1.1.1"/><path d="m87.6 175.2c2.2 6.9.7 19.9-1.6 26.8-1.6 5.1-4.3 11.2-5.5 16.2 0 .1-.1.2-.2.2-.1 0-.2-.1-.2-.2 1.2-5 3.9-11.1 5.5-16.3 2.2-6.7 3.7-19.9 1.6-26.6 0-.1 0-.2.1-.2.2 0 .3 0 .3.1"/><path d="m86.2 202.4c.4 6.4 13.7 5.2 17.6 3.4.9-.4 2.1-1.1 3.1-1.6.1 0 .2 0 .3.2 0 .1 0 .2-.2.3-.9.5-2.2 1.2-3.1 1.6-4.3 1.9-17.7 3.1-18.2-3.8 0-.1.1-.2.2-.2.2-.1.3 0 .3.1"/><path d="m111 152.2c2.5 1.6 3.9 3.1 3.2 6.2 0 .1-.2.2-.3.1-.1 0-.2-.2-.1-.3.6-2.9-.7-4.2-3-5.8-.1-.1-.1-.2-.1-.3.1 0 .2 0 .3.1"/><path d="m81.4 170.4c2.1 3.5.4.5 1.8 3.5.8 1.7 1.8 2.6 3.1 3.9.1.1.1.2 0 .3-.1.1-.2.1-.3 0-1.4-1.4-2.4-2.2-3.2-4.1-1.3-2.9.2-.1-1.8-3.4-.1-.1 0-.2 0-.3.2 0 .4 0 .4.1"/><path d="m92.9 159.8c2.4 1.4 6 3 8.6.8 1.7-1.4 1.6-3.6 1.5-5.6 0-.1.1-.2.2-.2.1 0 .2.1.2.2.2 2.4.1 5.1-2.4 6.4-2.8 1.6-5.9.1-8.4-1.3-.1-.1-.1-.2-.1-.3.2 0 .3 0 .4 0"/><path d="m109.5 153.1c2.2 1.6 2.9 2.8 2.8 5.7 0 .6 0 .5-.2 1.1-.1.1-.2.2-.3.1-.1-.1-.2-.2-.1-.3l.1-.4v-.5c.1-2.7-.5-3.8-2.6-5.4-.1-.1-.1-.2 0-.3.1-.1.2-.1.3 0"/><path d="m82.9 168.9c0 1.9 2.3 6.5 3.9 7.3.1 0 .2.2.1.3 0 .1-.2.2-.3.1-1.8-.9-4.2-5.6-4.2-7.7 0-.1.1-.2.2-.2.2 0 .3.1.3.2"/><path d="m86.6 200.7c3.1 6.3 16.7 3.2 21.7.8.1-.1.2 0 .3.1.1.1 0 .2-.1.3-5.2 2.5-18.9 5.6-22.2-1 0-.1 0-.2.1-.3 0-.1.1 0 .2.1"/><path d="m163.5 50.2c26.8-1 23.1 24.9 24 43.3.2 3.1.3 6.7.5 10.1.1 0 .2.1.3.2.2.5.1 1.6.2 2.2.3 4.7.5 9.4.7 14.2 0 .1-.1.2-.2.2-.1 0-.2-.1-.2-.2-.2-3.7-.3-8.1-.5-12.1h-.2c0 0 0-.1-.1-.3 0 0 0 0 0 .1 0-.1 0-.1 0-.2-.3-2.2-.7-13.1-.8-14.2-.9-18.3 2.8-44-23.6-43-.1 0-.2-.1-.2-.2-.1 0 0-.1.1-.1"/><path d="m200.6 156.1c.7 2 1.3 2.1 1.6 3.1.3.8-3.4 2.2-3.9 2.3-1.5.3-5.8.4-5.6-1.8.2-2.2 5.6-3.5 7.2-3.7.1 0 .1.1.1.2 0 .1-.1.1-.2.1-1.5.4-6.4 1.3-6.8 3.4.5 2.9 6.5 1.9 8.8-.5-.6-1.3-.8-.8-1.6-3 0-.1 0-.2.1-.2.1-.1.2 0 .3.1"/><path fill="#fbdfc1" d="m217.4 142.7c-2.6 11.4-13.8 18.6-24.8 16.1-11.1-2.5-18-13.8-15.3-25.3 2.6-11.4 13.8-18.6 24.8-16.1 11.1 2.6 17.9 13.9 15.3 25.3"/><path d="m195.5 159.8c-1.1-.1-2.2-.2-3.3-.5-11.2-2.5-18.1-14-15.5-25.5 2.4-10.3 11.5-17.4 21.8-16.7 1.1.1 2.2.2 3.3.5 5.4 1.2 10 4.6 12.9 9.4 2.9 4.8 3.8 10.5 2.5 16.1-2.3 10.3-11.5 17.3-21.7 16.7m3-42.3c-10.1-.6-19.1 6.3-21.4 16.4-2.6 11.3 4.2 22.5 15.2 25 1.1.2 2.1.4 3.2.5 10.1.6 19.1-6.3 21.4-16.4 1.3-5.5.4-11.1-2.5-15.8-2.9-4.7-7.4-8-12.7-9.2-1.1-.3-2.2-.4-3.2-.5z"/><path fill="#fac492" d="m195.5 159.4c-1.1-.1-2.2-.2-3.2-.5-.6-.1-1.1-.3-1.7-.5.9.1 1.7.2 2.5.3 9 .6 15.1-4.2 19.5-12.8 1.3-2.4 2-5.4 2.4-8.5.8.7 1.6 1.4 2.3 2.2-.1 1.1-.2 2.3-.5 3.4 0 0 0 0 0 0-.5 2.3-1.5 4.5-2.7 6.5-3.9 6.5-11 10.4-18.6 9.9"/><path d="m190.8 146.2c.2 1-.1 1.9-.8 2-.6.1-1.3-.5-1.5-1.5-.2-1 .1-1.9.8-2 .6-.1 1.3.6 1.5 1.5"/><path d="m195.9 146.9c.2 1-.1 1.9-.8 2-.6.1-1.3-.5-1.5-1.5-.2-1 .1-1.9.8-2 .6-.1 1.3.6 1.5 1.5"/><path fill="#5f3812" d="m224.5 142.8c.6-6.9-1-12.1-1-12.1l1.8-1.5c-4.8-10.7-12.2-10.2-12.2-10.2l2.2-2c-2.6-.1-4.2 1.4-4.2 1.4.6-1.5 0-4.9 0-4.9l-1.4 3c-5.7-12.5-21.2-7.4-21.2-7.4l1.9 1.3c-12.8 1-20.1 12.9-21 14.5l1.9 2.9c1.4-2.7 2.9-4 2.9-4-1.1 2-2 5.5-2 5.5l2 4.1c.2-1 1.7-2.8 1.7-2.8-1.1 3.6-.8 6.6.3 9.1-.1-2 .1-4 .5-6 .2-1 .5-1.9.8-2.8 3.2-.7 13.2-2.4 24.8.2 0 0-1.1 1.2-2.1 1.4 0 0 2 .8 5.9-.5 0 0-.5 1.9-.1 3.1.3 1.3 2.4-2.4 2.4-2.4s5.2 2.5 9 6.6c-.1 1.2-.2 2.3-.5 3.5-.6 2.4-1.5 4.7-2.8 6.7 4.6-2.5 5.1-6.2 5.1-6.2v2.5c1.2-1.3 1.7-4.3 1.7-4.3l.3 2.4 3.3-1.1"/><path d="m214.4 149.9l-.3-.3c1.3-2 2.2-4.3 2.8-6.6.3-1.1.4-2.2.5-3.4-3.4-3.6-7.8-6-8.7-6.5-.4.8-1.6 2.7-2.2 2.6-.1 0-.3-.1-.4-.4-.3-1-.1-2.3.1-2.9-2 .6-3.5.7-4.4.6-.9-.1-1.3-.2-1.3-.2l-.5-.2.6-.1c.6-.2 1.4-.8 1.7-1.2-2.8-.6-5.7-1-8.7-1.2-7.4-.5-13.3.6-15.6 1.1-.3.9-.6 1.8-.8 2.7-.4 1.9-.6 3.9-.5 5.9l-.4.1c-1.1-2.4-1.3-5.2-.6-8.3-.4.6-1 1.5-1.1 2l-.1.5-2.3-4.6v-.1c0-.1.6-2.6 1.5-4.5-.6.6-1.3 1.7-2 3l-.1.3-2.2-3.2.1-.1c.8-1.4 8.1-13.3 20.7-14.5l-1.8-1.2.4-.1c0 0 3.9-1.3 8.5-1 4.2.3 9.7 1.9 12.7 8.1l1.4-3.1.1.6c0 .1.5 2.7.2 4.4.7-.5 2-1.2 3.8-1.1h.5l-2.2 2c1.7.1 7.7 1.2 11.8 10.3l.1.1-1.8 1.5c.2.8 1.5 5.8.9 12v.1l-3.5 1.6-.3-1.6c-.3 1-.7 2.4-1.5 3.3l-.3.4v-1.7c-.6 1.2-1.8 3.3-4.8 4.9m-5.9-17.2l.2.1c.1 0 5.2 2.5 9.1 6.7l.1.1v.1c-.1 1.2-.3 2.4-.5 3.5-.5 2.2-1.3 4.2-2.4 6.1 3.8-2.4 4.3-5.6 4.4-5.7h.4v2c.9-1.4 1.3-3.7 1.3-3.7h.4l.3 2.2 2.8-1.3c.6-6.7-1-11.9-1-11.9v-.1l1.8-1.5c-4.8-10.4-11.9-9.9-11.9-9.9h-.5l2.2-2c-2.2.1-3.5 1.4-3.5 1.4l-.3-.2c.5-1.1.2-3.1.1-4.1l-1.3 2.8-.2-.4c-2.9-6.4-8.5-8-12.6-8.3-3.7-.2-6.9.6-8 .9l2 1.4h-.5c-12.5.9-19.8 12.5-20.8 14.3l1.7 2.5c1.3-2.5 2.7-3.7 2.8-3.7l.3.2c-1 1.8-1.8 4.9-1.9 5.4l1.8 3.6c.5-1 1.6-2.4 1.6-2.5l.3.2c-.9 3-.9 5.7-.1 8 0-1.7.2-3.3.6-5 .2-.9.5-1.9.9-2.8v-.1h.1c2.2-.5 8.2-1.6 15.8-1.1 3.1.2 6.2.6 9.1 1.3l.3.1-.2.2c0 0-.8.8-1.6 1.3.2 0 .4.1.7.1.9.1 2.4 0 4.5-.7l.3-.1-.1.3c0 0-.5 1.8-.1 3 0 .1.1.1.1.1.3 0 1.3-1.3 1.9-2.6l-.4-.2z"/><path fill="#4a280e" d="m214.8 149.2c1.1-1.9 1.9-4 2.4-6.1.3-1.1.4-2.3.5-3.5v-.1l-.1-.1c-.8-.9-1.7-1.7-2.6-2.4.9-7.2.1-14.8-.3-17.6 2.4.5 6.9 2.5 10.2 9.8l-1.8 1.5v.1c0 .1 1.6 5.2 1 11.9l-2.8 1.3-.3-2.2h-.4c0 0-.4 2.3-1.3 3.7v-2h-.4c.3.1-.2 3.3-4.1 5.7"/><path d="m214.3 149.7c1.3-2 2.2-4.3 2.8-6.7.3-1.2.4-2.3.5-3.5-.8-.9-1.6-1.6-2.5-2.3 0-.1 0-.1 0-.2.9.7 1.8 1.5 2.6 2.4l.1.1v.1c-.1 1.2-.3 2.4-.5 3.5-.5 2.2-1.3 4.2-2.4 6.1 3.8-2.4 4.3-5.6 4.4-5.7h.4v2c.9-1.4 1.3-3.7 1.3-3.7h.4l.3 2.2 2.8-1.3c.6-6.7-1-11.9-1-11.9v-.1l1.8-1.5c-3.3-7.2-7.8-9.2-10.2-9.8 0-.1 0-.1 0-.2 2.5.5 7.1 2.5 10.5 10l-1.8 1.5c0 0 1.6 5.2 1 12.1l-3.1 1.5-.3-2.4c0 0-.5 3-1.7 4.3v-2.5c-.3-.1-.8 3.5-5.4 6"/><path d="m190.8 160.9c1.4 3.4 16 3.5 13.3-2.6 0-.1 0-.2.1-.2.1 0 .2 0 .2.1 2.9 6.7-12.3 6.7-13.9 2.8 0-.1 0-.2.1-.2.1 0 .2 0 .2.1"/><path d="m91.1 144.1c1.3 3.7 3.2 6.4 7.4 4.1.3-.2 2.3-1.6 2.4-2.3 0-.1.1-.2.2-.2.1 0 .2.1.2.2 0 1.4-3.3 3.1-4.2 3.3-3.8 1.1-5.4-2.1-6.4-5 0-.1 0-.2.1-.3.1 0 .2.1.3.2"/><path d="m184.7 180.4c3.6.9 6.7 1.8 10.4 2.4.1 0 .2.1.2.3 0 .1-.1.2-.3.2-3.7-.6-6.8-1.5-10.4-2.5-.1 0-.2-.1-.2-.3 0-.1.2-.1.3-.1"/><path d="m202.9 171.3c2.3-1.4 5.1-1.8 6.3 1 0 .1 0 .2-.1.3-.1 0-.2 0-.3-.1-1.1-2.5-3.6-2-5.6-.8-.1.1-.2 0-.3 0-.1-.2-.1-.3 0-.4"/><path d="m207.3 177.1c.1 5.5-.6 9.9.2 15.3.6 3.9 1.6 7.8 1.8 11.8 0 .1-.1.2-.2.2-.1 0-.2-.1-.2-.2-.4-4-1.2-7.8-1.9-11.7-.8-5.4-.1-9.9-.2-15.3 0-.1.1-.2.2-.2.2-.1.3 0 .3.1"/><path d="m168.4 173c2.1 4 8 4.6 12 4.7.1 0 .2.1.2.2 0 .1-.1.2-.2.2-4.3-.1-10.2-.7-12.4-5 0-.1 0-.2.1-.3.1 0 .2.1.3.2"/><path d="m187.8 198.5c-.1 4.8-.5 9.4-.6 14.2 0 .1-.1.2-.2.2-.1 0-.2-.1-.2-.2.1-4.8.5-9.4.6-14.2 0-.1.1-.2.2-.2.1 0 .2.1.2.2"/><path d="m197.5 209.3c.6 2.7.8 5 .9 7.8 0 .1-.1.2-.2.2-.1 0-.2-.1-.2-.2-.1-2.7-.3-5-.9-7.7 0-.1 0-.2.2-.2.1-.1.2-.1.2.1"/><path d="m208 197.8c1.5 4.4 2.3 10.6 2.3 15.3 0 .1-.1.2-.2.2-.1 0-.2-.1-.2-.2-.3-5-.7-10.4-2.3-15.2 0-.1 0-.2.1-.2.1 0 .2 0 .3.1"/><path d="m203.7 149.6c-.3 3.5-2.4 5.6-5.7 6.6-1.7.5-5.7 1.5-6.6-.9 0-.1 0-.2.1-.2.1 0 .2 0 .2.1.8 2 4.7 1 6 .6 3.1-1 5.1-2.9 5.4-6.2 0-.1.1-.2.2-.2.3 0 .4.1.4.2"/><path d="m151.6 24.6l-1.1.4c-6.8 3-10.7 11-7.5 17.9 3.1 6.6 9.7 5.8 15.2 2.9 5.1-2.6 7-11.5 4.3-16.6-1.1 2.9-1.1 3.2-4.2 3.7-.9.1-7.8-2.4-8-4-.1-.5.9-3.2 1.3-4.3m6.8 21.7zm-6.4-21.9c-.2.7-1.4 4-1.3 4.4.2 1.4 6.3 3.4 7.5 3.7 5.2-1 2.1-2.4 4.1-3.9.8-.6 1.7 3.8 1.8 4.3.6 5-1.3 10.6-5.7 13.4-5.4 2.7-11.7 3.9-15.3-2.1-4.2-6.9-.2-16.3 7.2-19.5l1.5-.6c.1 0 .2 0 .3.1 0 .1 0 .2-.1.2"/><path d="m151.9 24.3c-.9 3.9-2.4 4.4-.5 5.6 1.4.9 5.9 3 6.9 2.8 3.2-.5 3-.9 4.2-4 3.1 4.4 1.3 14.5-4.2 17.3-18.1 9.9-23.2-16.3-6.4-21.7"/><path d="m145 29c-6.4-.7-6.5-2.4-11.6-5.2-7.3-4-15.1-4.5-22.1.4-3.7 2.6-5.4 7.1-4.9 11.5 0 .1-.1.2-.2.3-.1 0-.2-.1-.3-.2-.5-4.6 1.2-9.3 5.1-12 7.2-5 15.2-4.5 22.6-.4 5.1 2.8 5.1 4.5 11.4 5.2.1 0 .2.1.2.2 0 .1-.1.2-.2.2"/><path d="m152.7 43.3c-.4.7-1 1.1-1.4.8-.3-.2-.3-1 .1-1.7.4-.7 1-1.1 1.4-.8.4.3.3 1-.1 1.7"/><path d="m150.4 42.1c-.4.7-1 1.1-1.4.8-.3-.2-.3-1 .1-1.7.4-.7 1-1.1 1.4-.8.4.3.3 1-.1 1.7"/><path d="m120.1 28.6c3.6.9 4.4 4.6 3.4 7.8-1.2 3.7-3.1 5.2-4.3 8.1-.1.3 0 .6.1.9 2.4-.1 7.3-.8 7.8 2.6.3 1.8-2.5 1.9-3.7 2-.1 0-.2-.1-.3-.2 0-.1.1-.2.2-.2 2.7-.2 4.3-.3 2.6-2.8-1.2-1.2-3.5-1-5-.9-1.4 0-2 .6-2.3-.7-.3-1.2 2.8-5.2 3.6-6.8 1.5-3.3 2.2-8.1-2.3-9.3-.1 0-.2-.1-.2-.2.2-.3.3-.4.4-.3"/><path d="m108.3 42.6c2.1-.3 2.9 2.2 2.3 3.9-.3.8-1 1.9-.9 2.9 0 .1 0 .2 0 .3-.1.1-.2.1-.3 0-.5-.6.6-2.8.8-3.3.5-1.4-.1-3.7-1.8-3.4-.1 0-.2 0-.2-.1-.1-.2 0-.3.1-.3"/><path d="m106.4 35.6c-.8 6.8-14.1 6.3-16.9-4.7-.4-1.7-.7-3.8-3.3-3-3.5 1-.2 10.1 1 12 3.6 5.5 14.4 8.8 19.9 4l1.2-1.2c.1-.1.2-.1.3 0 .1.1.1.2 0 .3-1.8 2-2.9 2.9-5.6 3.5-6.2 1.4-13.8-1.9-16.8-7.4-1.1-2.9-2.2-6.1-1.9-9.1.4-3.4 4.7-3.7 5.4-.3.8 3.3 1.7 5.9 4.7 8 3.5 2.5 10.9 3 11.6-2.1 0-.1.1-.2.2-.2.1 0 .2.1.2.2"/><path d="m127.1 48.9c2.2.6 4.9.2 6.2-1.9.1-.1.2-.2.3-.1.1.1.2.2.1.3-1.4 2.3-4.3 2.8-6.7 2-.1 0-.2-.2-.1-.3-.1 0 .1-.1.2 0"/><path d="m132.6 41.9c.5 5.6 5.7 14.3 4.9 19-.2.9.2 1.7 1.1 1.9 2.4.6.3-.2 1.6 1.1.8.8 2.3-1.8 2.8-1.6 2.4 1.1.9-1.8.3-2.6l-.6-.7c-3.3-3.6-3.1-6-4.4-10.5-.5-1.6-.7-2.9-1.4-4.6-.1-.1-.1-.2 0-.3.1-.1.2 0 .3.1 2.1 4.8 1.8 10.9 5.7 15 1.7 1.8 2.6 5.4-.1 4.1-1.1 1.4-2.7 2.8-3.5.6-.7 0-2.1-.2-2.2-1.1-.2-.5-.3-.9-.2-1.4.8-4.5-4.5-13.3-4.9-18.9 0-.1.1-.2.2-.2.3-.1.4 0 .4.1"/><path d="m144.9 45.8c-.1.6-.2.9-.3 1.5 0 .1-.1.2-.2.2-.1 0-.2-.1-.2-.2 0-.7.2-.9.3-1.5 0-.1.1-.2.2-.2.1 0 .2.1.2.2"/><path d="m138.8 48.6c1.4 1.4 3.4.9 5.4.9 1.8 0 2.2-2.1-1.9-1.8h-.4c-.2 0-.3-.2-.3-.3 0-.2.2-.3.3-.3 1-.1 1.2-.2 2.2 0h-.1c2.8.6 2.3 2.9 0 2.8-2.1 0-4.3.5-5.7-1.1-.1-.1-.1-.3 0-.3.3 0 .4 0 .5.1"/><path d="m92.8 158.1c0 3.1-.2 1.9-2.8 4.2-1.6 1.4-3.8 3.2-5.3 4.6-1.2 1.1-2.2 2.3-3 3.7 0 .1-.1.2-.2.1-.1 0-.2-.1-.1-.2.8-1.5 1.9-2.7 3.1-3.9 1.5-1.4 3.7-3.2 5.3-4.6 2.6-2.2 2.6-1 2.7-3.9 0-.1.1-.2.2-.2 0 0 .1.1.1.2"/><path d="m86 177.9c.7-1.3 1.5-2.5 2.3-3.8 0-.1.1-.2.2-.1.1 0 .2.1.1.2-.7 1.3-1.5 2.4-2.3 3.7 0 .1-.1.2-.2.2 0 0-.1-.1-.1-.2"/><path d="m82.4 172.2c-2.4 3.8-3.3 7.2-6 11-3.4 4.8-4.5 11.9-6.8 17.1-.7 1.7-3.7 5.8-5.6 6.7-2.8 1.2-4.3-.4-5.2 1.6.6 1.2 6.7-.8 4.1 2.4-.2.3-5.2 5.6-2.9 5.1 1.8-.4 6-7.9 2.9 1 1.5 1.5 2.7-4.5 3.1-2.7.5 1.8-.8 2.6.4 2.8.6-.7.9-4.7 1.7-3.1.3.6-.4 1.6.2 2 .4-.3 1.2-4.1 1.2-4.2.7-2.3.7-2 1.3-4.6 1.4-6.3 4.7-8.1 7.4-13.3 1.3-2.4 1.8-4.2 2.5-6.9 1-3.9 2.8-5.8 5-9.1 0-.1.1-.2.2-.1.1 0 .2.1.2.2-2 3.5-3.9 5-4.9 9.1-.7 2.7-1.2 4.5-2.5 7-2.7 5.1-6.1 7-7.4 13.2-.6 2.6-.7 2.5-1.3 4.6-.1.5-.7 4.3-1.5 4.5-.9.2-.5-1.3-.6-2-.2 1.1-.6 3.2-1.5 3.1-1.1 0-.4-1.9-.5-2.9-.5.8-1.2 3.1-2.3 3.2-1.7.1-.3-2.3-.2-2.7l.4-1.5c-1 .9-3 2.8-3.5 2.9-3.3.6 2.4-5.6 2.5-5.8 2.3-2.8-4.3-.1-4.2-2.1.1-2 3.6-1.2 5.4-2 1.9-.8 4.7-4.8 5.4-6.5 2.3-5.4 3.4-12.3 6.9-17.2 2.7-3.8 3.6-7.3 6-11 .1-.1.2-.1.3 0-.2 0-.2.1-.2.2"/><path d="m65.1 209c.7.1 1.9-.1 2.4-.7.1-.1.2-.2.2-.3 0-.1.1-.2.2-.2.1 0 .2.1.2.2-.2.5-.7 1-1.2 1-.6.5-1.1.5-2 .3-.1 0-.2-.1-.1-.2.1-.1.2-.1.3-.1"/><path d="m66.4 211l.7.2.6.2c.1 0 .2.1.2.2 0 .1-.1.2-.2.2-1-.3-.5-.1-1.5-.4-.1 0-.2-.1-.1-.2.1-.1.2-.2.3-.2"/><path d="m88.5 178c2.1 4.1 17.6-.7 20.2-2.7.9-.7 1.6-1.8 1.6-3 0-.1.1-.2.2-.2.1 0 .2.1.2.2 0 .5 0 .3-.1.7-.7 2.3-2 3.2-4.3 4.1-3.2 1.3-16 5.3-18.1 1.1 0-.1 0-.2.1-.2.1-.1.2-.1.2 0"/><path d="m90.2 171.1c-.2 1.5-.5 3.2-2.1 3.9-.1 0-.2 0-.2-.1 0-.1 0-.2.1-.2 1.4-.6 1.7-2.3 1.8-3.6 0-.1.1-.2.2-.2.1 0 .2.1.2.2"/><path d="m109.1 161.6c-.3-2-.1-1-.4-2.8 0-.1.1-.2.2-.2.1 0 .2.1.2.2.3 1.7.2.8.4 2.8 0 .1-.1.2-.2.2-.1 0-.2-.1-.2-.2"/><path d="m208.7 172.4c.1-2.8-.3-4.5-1.4-7.2-.3-.8-2-4.1-2.7-4.4-.1 0-.2-.1-.1-.2 0-.1.1-.2.2-.1.1.1.2.1.3.2 2.5 2.9 4.4 7.8 4 11.7 0 .1 0 .2-.1.2 0 0-.1-.1-.2-.2"/><path d="m194.5 178.1c3.8-.2 6.6-.8 10.1.8.1.1.1.2 0 .2-.1.1-.2.1-.2 0-3.6-1.4-6.1-.8-9.9-.6-.1 0-.2-.1-.2-.2 0-.1.1-.2.2-.2"/><path d="m202 178.2c.3-2.3.4-3.5 1.1-5.7l.2-.8.3-.7c0-.1.1-.2.2-.1.1 0 .2.1.1.2-1 2.3-1.3 4.5-1.6 7 0 .1-.1.2-.2.2 0 .1-.1 0-.1-.1"/><path d="m195.1 182.9c0 0 0 0 0 0m13.6-11.2c-1.2 4.5-1.3 8.2-5.2 11.3-1.8 1.5-6.5.3-8.6.3-.1 0-.2 0-.2-.1-.1 0-.2-.1-.1-.3 0-.1.1-.2.3-.1.1 0 .1 0 .1.1 2 0 6.7 1.1 8.3-.2 3.8-3 3.9-6.7 5.1-11.1 0-.1.1-.2.2-.1.1 0 .2.1.1.2z"/><path d="m172.6 167.9c2 1.2 7.3 2.3 9.5 2.6.1 0 .2.1.2.2 0 .1-.1.2-.2.2-2.3-.3-7.6-1.4-9.7-2.7-.1-.1-.1-.2-.1-.3.1 0 .2-.1.3 0"/><path d="m184.7 170.9c2.7.3 4.4 0 7-.2.7-.1 1.3.1 1.7.1-.2-.7-.4-3-.4-3.7-6.3.4-15.2-3.5-21.6-5-2.7-.6-5.3-1.2-8-2-.2.9-.5 2.4-.9 3 2.4.7 3.5 1.7 5.7 2.4.1 0 .2.2.1.3 0 .1-.1.2-.3.1-1.7-.6-3.2-1.6-4.7-2.2 0 0-1-.2-1.2-.3 0-.4.8-3.6.9-3.7.1-.1 12.7 3.2 13.8 3.5 4.3 1.4 7.7 2.6 12.2 3.3 5 .7 3.9-1.1 4.3 2.4.4 3.1.8 2-1.8 2.2-2.7.2-4.4.5-7.2.2-.1 0-.2-.1-.1-.2.3-.2.4-.3.5-.2"/><path d="m164.8 161c-.7.5-.5.9-.1 1.6.1.1 0 .2 0 .3-.1.1-.2 0-.3-.1-.6-.9-.7-1.5.2-2.1.1-.1.2 0 .3.1 0 .1-.1.2-.1.2"/><path d="m165.9 161.1c3.4 1.2 6.7 1.8 10.2 2.8 3.6 1.1 9 2.9 12.5 3.4.1 0 .2.1.2.2 0 .1-.1.2-.2.2-3.3-.5-8.1-2.1-11.4-3.1-3.8-1.1-7.8-1.8-11.4-3.2-.1 0-.1-.1-.1-.2 0-.1.1-.1.2-.1"/><path d="m174.7 172.3c1.4 0 4.5.3 5.7 1 .1.1.2.1.2.2 0 .1 0 .2-.2.2-.1 0-.2 0-.2-.1-1.1-.7-4.3-.9-5.6-1-.1 0-.2-.1-.2-.2.1 0 .2-.1.3-.1"/><path d="m192.6 159.5c-1.2 1.1-.6.6-2 1.5-.1 0-.2 0-.2-.1 0-.1 0-.2.1-.2l.9-.6.9-.8c.1-.1.2 0 .3 0 .1 0 .1.1 0 .2"/><path d="m190.7 161c-1.5 1.3-2.8 3-3.1 5 0 .1-.1.2-.2.2-.1 0-.2-.1-.2-.2.3-2.2 1.6-3.9 3.3-5.3.1 0 .2 0 .3.1 0 0 0 .1-.1.2"/><path d="m194.6 178.5c-2.3-.3-5.3-.5-5.1-3.4.1-1.3.1-2.5-.3-3.8-.1-.1 0-.2 0-.3.1-.1.2 0 .3 0 .5 1.4.5 2.6.4 4-.2 2.6 2.8 2.8 4.7 3 .1 0 .2.1.2.2 0 .2-.1.3-.2.3"/><path d="m184.6 180.8c-1.3-.6-4.5-2.2-4.7-3.8-.1-.8.2-4.5 1.7-4 .1 0 .1.1.1.2 0 .1-.1.1-.2.1-.9-.1-1.2 3-1.1 3.6.2 1.4 3.3 3 4.3 3.5.1 0 .2.1.2.2-.1.1-.2.2-.3.2"/><path d="m181.1 174.9c0-.6.6-4.5 1.5-4.6.2 0 .3.1.3.2 0 .1 0 .2-.1.2-.1 0-.1 0-.2 0-.7.8-1.1 3.1-1.2 4.1 0 .1 0 .2-.1.2-.1 0-.2 0-.2-.1"/><path d="m182.6 172.9c-.5-3.5 2-5.5 2.1-1.8 0 1.2-.1 2.7 1.5 2.9.2 0 .4-.1.6-.2.3-1.4.3-1.1.2-2.6 0-.1.1-.2.2-.2.1 0 .2.1.2.2 0 .9.4 3.4-1.3 3.2-2.3-.3-1.7-2.5-1.9-4.1-.3-2-1.6.3-1.3 2.5 0 .1 0 .2-.1.2-.1.1-.2 0-.2-.1"/><path d="m168.1 173.2c-.8-1.6-2.6-4.6-1.2-6.4.7-.9 3.5-3.5 4.4-1.4.1.2.1.5-.1.6 1.1-.1 1.8.3.5 1.6.2 0 .5 0 .8 0 .4 0 .5.9-.1 1.6 1.2-.1 2 1.1-1.4 3.8-.1 0-.2 0-.3-.1 0-.1 0-.2.1-.3.2-.2 2.8-2.7 2-3h-.5c-.7.1-1.1.5-1.3.7 0 0 0 .1-.1.1-.1.2-.2.2-.3.1-.2-.2 0-.5.3-.7.2-.2.5-.4.8-.6.4-.3.8-.8.7-1.4-.4 0-1.1.1-1.4.3-1 1-1.7 1.1-1.3.5.2-.2.5-.5 1-.9 2.4-1.7 1.1-1.7-.1-1.3-.5.3-1.2.6-1.4.9-.1.1-.2.2-.2.1-.2-.1-.2-.2-.1-.3.3-.5.9-.9 1.6-1.1.4-.3.7-.5.6-.7-.7-1.6-3.3.9-3.7 1.5-1.2 1.5.5 4.5 1.2 5.9.1.1 0 .2-.1.3-.3.4-.4.3-.4.2"/><path d="m172 172c.3 1.2.7 1.1-.3 2.6-.1.1-.2.1-.2 0-.1-.1-.1-.2 0-.2.8-1.5.5-1.1.2-2.3 0-.1.1-.2.2-.2 0 0 .1 0 .1.1"/><path d="m174.8 172.6c-.9.2-2.4 0-2.8-.9 0-.1 0-.2.1-.2.1 0 .2 0 .2.1.3.6 1.7.8 2.3.7.1 0 .2 0 .2.1.2.1.1.2 0 .2"/><path d="m190.9 167.7c.1 1.3.1.6.2 2.3 0 .1-.1.2-.2.2-.1 0-.2-.1-.2-.2-.1-1.7 0-.9-.1-2.3 0-.1.1-.2.2-.2 0 0 .1.1.1.2"/><path d="m203.5 166c0 2-.1 3.2-.4 5.2 0 .2-.1.6.1.7.1 0 .2.1.1.3 0 .1-.1.2-.3.1-.7-.3-.4-1.3-.3-1.9.3-1.4.2-3.1.3-4.6 0-.1.1-.1.2-.1.3.1.4.2.3.3"/><path d="m208.4 172.6h.2c0-.1.1-.1.2-.1 0 0 0-.1.1-.1 0-.1.1-.1.2-.1.1 0 .1.1.1.2 0 .1 0 .1-.1.1-.1.2-.1.2-.2.2-.1.2-.4.1-.6.1-.1 0-.1-.1-.1-.2 0-.1.1-.1.2-.1"/><path d="m189.3 164.1l-.5 1.2-.3 1.2c0 .1-.1.2-.2.2-.1 0-.2-.1-.2-.2.4-1.8.1-.9.9-2.6.1-.1.2-.1.2-.1.2.1.2.2.1.3"/><path d="m187 181.2c-.3 5.1-1.8 9.8-2.2 14.7 0 .4-.1.6-.2.9 1.1 1 3.5 1.8 4.9 1.2 3.7-1.5 6.5 2.3 12.5-.1 2.6-1 2.5-1.1 5.3-.8.3 0 .7.1.9-.2 0-.1.1-.2.2-.1.1 0 .2.1.1.2-.1.2-.2.3-.4.4-.8.3-2.3-.5-5.1.5-4.6 1.8-4.7 1.5-9.7.4-4.3-.9-3.7 1.3-7.6-.4-2.3-1-1.4-1-1.3-2.1.4-4.8 1.9-9.6 2.3-14.6 0-.1.1-.2.2-.2 0 0 .1.1.1.2"/><path d="m185.2 155.8c1 2.7.7 7.1.7 10.1 0 .1-.1.2-.2.2-.1 0-.2-.1-.2-.2 0-2.8.3-7.3-.6-9.9-.1-.1 0-.2.1-.3 0 0 .1 0 .2.1"/><path d="m191 158.7c.2 1 .1.5.3 1.5.1.1.1.2 0 .3-.1.1-.2.1-.3 0-.4-1.2-.2-.6-.5-1.7 0-.1.1-.2.2-.2.2 0 .3 0 .3.1"/><path d="m157.6 50.4c-6.2 0-12.3-.6-18.5-.3-.1 0-.2-.1-.2-.2 0-.1.1-.2.2-.2 6.1-.3 12.4.3 18.5.3.1 0 .2.1.2.2-.1.1-.2.2-.2.2"/><g fill="#a7aaab"><path d="m134.5 50c-2.6-.1-4.7-.4-7.3-.2-5.4.4-9.5.2-14.8-.1-5.5-.3-16.6.1-21.6 2-4.1 1.6-8.3 5.8-9.5 10.1-.8 2.6-1.7 7.4-1.6 10 .4 13.6.8 27.2 1.1 40.8 0 1.7.1 1.1-.1 2-.1 0-.2 0-.2-.1 0-.1 0-.2.1-.2-.3-.8-1.2-37.8-1.3-42.5-.1-2.7.8-7.4 1.6-10.1 1.3-4.4 5.5-8.8 9.7-10.3 5.1-1.9 16.2-2.3 21.8-2 5.3.3 9.4.5 14.8.1 2.7-.2 4.7.1 7.3.2.1 0 .2.1.2.2 0 0-.1.1-.2.1"/><path d="m127 147.4c.7 4.5-13 15.8-13.1 14.3 0-.2.1-2 .1-2.7-1.5 1-3 1.8-4.4 2.5 0 6.8 2.1 12.4 2 19.5-.1 5.5-1.6 13.3-3.4 20.5.1-.1.2 0 .3.1.1.1 0 .2-.1.3-.1.1-.2.1-.4.2-1.2 4.8-2.5 9.5-3.5 13.1-.1.2-.1.3-.1.5 2.4-.2 4.8-.5 7.5-.9 2.5-5.8 5.2-11.2 5-18.5-.2-6.4.9-20.7-.9-26-.7-2.2 2.9-4.4 4.4-5.4 5.9-4.2 13.1-14.3 13.3-21.5.2-7.4-.3-13.7 2.3-20.8-.9 1.2-1.7 2.8-2.2 5.3-1 5.2-1.5 9.4-3.6 14.4-.8 1.5-1.9 3.3-3.2 5.1"/><path d="m163.5 163.6c0 0-.6-.1-.9-.2-.1 1.7-.2 3.2-.3 4.3 0 .4-.2 3.7-.6 5.1.5 1.4 1 2.7 1.6 3.9 1 2.1 1.9 2.8 2.7 3.6-.8-5-.9-11.1-1.3-16.2-.5-.2-.9-.3-1.2-.5"/></g><path d="m121.1 47.4c.2-1.3 1.7-2.3 3-1.9.1 0 .1.1.1.2 0 .1-.1.1-.2.1-1-.2-2.3.6-2.5 1.6 0 .1-.1.2-.2.2-.1 0-.2-.1-.2-.2"/><path d="m89.8 32.2c-.6-.8-1.2-.7-2.1-.6-.1 0-.2 0-.2-.1 0-.1 0-.2.1-.2 1.1-.3 1.8-.2 2.5.7.1.1 0 .2-.1.3 0 0-.1 0-.2-.1"/><path d="m91.6 35.6c-.9-.1-1.3-.4-2 .2-.1.1-.2.1-.2 0-.1-.1-.1-.2 0-.2.8-.8 1.2-.6 2.3-.3.1 0 .2.1.2.2-.1 0-.2.1-.3.1"/><path d="m94.4 38c-.7 0-1.7.3-1.8 1.2 0 .1-.1.2-.2.2-.1 0-.2-.1-.2-.2.1-1.1 1.2-1.5 2.2-1.5.1 0 .2.1.2.2 0 0-.1.1-.2.1"/><path d="m97.2 39.6c-1 0-1.3.9-1.3 1.8 0 .1 0 .2-.1.2-.1 0-.2 0-.2-.1-.2-1.2.3-2.2 1.6-2.2.1 0 .2.1.2.2-.1 0-.1.1-.2.1"/><path d="m100.2 40.2c-.7.3-.8 1.4-.8 2 0 .1-.1.2-.2.2-.1 0-.2-.1-.2-.2 0-.9.1-2 1-2.4.1 0 .2 0 .2.1.2.1.1.2 0 .3"/><path d="m109.2 33.3c-.5-.5-.5-1.1 0-1.6.1-.1.2-.1.2 0 .1.1.1.2 0 .2-.3.3-.4.8 0 1.1.1.1.1.2 0 .3 0 0-.1 0-.2 0"/><path d="m113.5 25.6c.2-.4.1-.2.4-.4.1-.1.2-.1.2 0 .1.1.1.2 0 .2-.1.1-.1.1-.3.1 0 0 0 .1-.1.1 0 .1-.1.1-.2.1 0 .1-.1 0 0-.1"/><path d="m122.3 23.9c.3-.1.3-.1.6-.1.1 0 .2.1.2.2 0 .1-.1.2-.2.2-.3 0-.2 0-.5.1-.1 0-.2 0-.2-.1-.1-.1 0-.2.1-.3"/><path d="m129.2 28.4c1.2.3.6.1 1.7.5.1 0 .1.1.1.2 0 .1-.2.1-.2.1l-.8-.2-.7-.2c-.1 0-.2-.1-.2-.2-.1-.1 0-.2.1-.2"/><path d="m116.9 34.6c-.3.2-.4.6-.5.9 0 .1-.1.2-.2.2-.1 0-.2-.1-.2-.2 0-.5.2-1 .7-1.2.1 0 .2 0 .2.1.2.1.1.2 0 .2"/><path d="m134.7 28.1c.4.1.3.1.7.2.1 0 .2.1.1.2 0 .1-.1.2-.2.1-.3 0-.2-.1-.6-.2-.1 0-.2-.1-.2-.2 0 0 .1-.1.2-.1"/><path d="m141.8 28.5h.2c.1 0 .2.1.2.2 0 .1-.1.2-.2.2h-.2c-.1 0-.2-.1-.2-.2 0-.1.1-.2.2-.2"/><path d="m162.5 29.4c-2 3.4-.4 3.2-4.6 5.8-.1 0-.2 0-.2-.1 0-.1 0-.2.1-.2 4.2-2.9 2.3-2.1 4.5-5.8.1-.1.2-.1.3 0 0 .1 0 .2-.1.3"/><path d="m150.2 30.3c0 0 0 0 .2 0 0-.1.1-.1.1-.2h-.1l-.2.2m.1 1.8c-.3-.8-.3-1.1-.2-1.9 0 0 0-.1 0-.1 0-.3.1-1 .1-1.4 0-.1.1-.2.2-.2.1 0 .2.1.2.2 0 .6 0 .8-.1 1.3.2.2-.2.9.2 1.9.1.1 0 .2-.1.3-.1.1-.2 0-.3-.1"/><path d="m155.4 37.4c.5 0 1 .2 1 .7 0 .1-.1.2-.2.2-.1 0-.2-.1-.2-.2 0-.2-.4-.3-.6-.3-.1 0-.2-.1-.2-.2 0-.1.1-.2.2-.2"/><path d="m150.9 35.7c-.4-.1-.6-.1-1 .1-.1.1-.2 0-.3 0-.1-.1 0-.2 0-.3.5-.3.8-.3 1.3-.2.1 0 .2.1.1.2.1.2 0 .3-.1.2"/><path d="m146.8 45.2c-1.5-.3-1.8-2.3-1.2-2.5.1 0 .2 0 .2.1 0 .1 0 .2-.1.2.1.4-.1 1.6 1.1 1.8.1 0 .2.1.2.2 0 .1-.1.2-.2.2"/><path d="m152.3 46.9c.8 1.7 1.2 2.1 1.9 4 0 .1 0 .2-.1.2-.1 0-.2 0-.2-.1-.7-1.9-1.1-2.3-1.9-4 0-.1 0-.2.1-.2.1 0 .2 0 .2.1"/><path d="m153.8 47c.2 1 1 1.8 1.5 2.7 0 .1 0 .2-.2.2-.1 0-.2 0-.2-.2-.7-.9-1.3-1.6-1.5-2.7 0-.1.1-.2.2-.2.1 0 .2.1.2.2"/><path d="m154.7 46.8c1 1.5.5.8 1.4 2.3 0 .1 0 .2-.1.2-.1 0-.2 0-.2-.1-.8-1.4-.4-.7-1.3-2.2-.1-.1 0-.2.1-.3-.1-.1 0 0 .1.1"/><path d="m142.8 40.9c-1.3-.1-2-.2-3.3-.2-.1 0-.2 0-.2-.1 0-.1 0-.2.1-.2 1.4-.1 2.1 0 3.5.1.1 0 .2.1.1.2 0 .1-.1.2-.2.2"/><path d="m142.5 39.7c-2.9-.3-1.5-.1-4.2-.4-.1 0-.2-.1-.2-.2 0-.1.1-.2.2-.2 2.7.3 1.3.1 4.2.4.1 0 .2.1.2.2-.1.1-.1.2-.2.2"/><path d="m142.2 38.6c-.9-.2-2.6-.3-3.3-1-.1-.1 0-.2 0-.2.1-.1.2-.1.2 0 1 .5 2.1.7 3.1.8.1 0 .2.1.2.2 0 .1-.1.2-.2.2"/><path d="m139.8 61.4c0 .8 0 1.6.4 2.3.1 0 .1.1.1.2 0 .1-.1.1-.2.1-.7-.2-.7-2.1-.7-2.6 0-.1.1-.2.2-.2s.2.1.2.2"/><path d="m141.9 63.3c.5-1 1-1.5-.2-2.3-.1-.1-.1-.2-.1-.3.1-.1.2-.1.3-.1 1.4.9.9 1.6.4 2.7 0 .1-.1.2-.2.1-.1.1-.2 0-.2-.1"/><path d="m138 62.7c.1 1.2.2.7.6 1.5 0 .1 0 .2-.1.2-.1 0-.2 0-.2-.1-.4-.8-.5-.4-.6-1.6 0-.1.1-.2.2-.2 0 0 .1.1.1.2"/><path d="m141.2 64c-.1.6.2.6.3.8.1.1.4.1.5.1.1 0 .2.1.2.2 0 .1-.1.2-.2.2-.3 0-.6-.1-.8-.3-.4-.2-.4-.6-.3-1.1 0-.1.1-.1.2-.1.1 0 .1.1.1.2"/><path d="m143.9 62.6c.4.4.6 1.1.1 1.3-.1 0-.2 0-.2-.1 0-.1 0-.2.1-.2.1-.3 0-.5-.2-.7-.1-.1-.1-.2 0-.3 0-.1.1-.1.2 0"/><path d="m84.3 159.1c.1 2.7 0 5.1.3 7.7 0 .1 0 .2-.2.2-.1 0-.2 0-.2-.2-.2-2.6-.1-5.1-.3-7.8 0-.1.1-.2.2-.2.1.2.2.2.2.3"/><path d="m85.7 178.7c-.1 4.8 1 11.3 1.2 16.3l.1 1.7c0 .1-.1.2-.2.2-.1 0-.2-.1-.2-.2l-.1-1.7c-.3-5-1.3-11.6-1.2-16.4 0-.1.1-.2.2-.1.2 0 .3.1.2.2"/><path d="m227.4 122.9c.9 2 1 2.1 1.2 4.3 0 .1-.1.2-.2.2-.1 0-.2-.1-.2-.2-.1-2.1-.2-2.2-1.1-4.2 0-.1 0-.2.1-.2 0-.1.1 0 .2.1"/><path d="m229.1 117c.7 3.1 2.1 3.9 2.6 8 .2 1.4.2 2.7.2 4.1 0 .1-.1.2-.2.2-.1 0-.2-.1-.2-.2 0-1.4 0-2.6-.2-4-.5-4.1-1.9-4.9-2.6-8 0-.1.1-.2.2-.2.1-.1.2 0 .2.1"/><path d="m66.8 113.8c1.3-1.3 2-1.9 3.8-2 .1 0 .2.1.2.2s-.1.2-.2.2c-1.7.1-2.4.7-3.5 1.9-.1.1-.2.1-.3 0-.1-.1-.1-.2 0-.3"/><path d="m71.2 109.3c-2.2.3-6.2 1.9-7 4.1-.1.4-.1.6.1 1 .1.1.1.2 0 .2-.1.1-.2.1-.2 0-.3-.5-.4-.8-.2-1.3.9-2.5 5-4.1 7.4-4.3.1 0 .2.1.2.2-.1.1-.2.1-.3.1"/><path d="m120.5 94c1.8.3 4.9.3 5.8 2.1 0 .1 0 .2-.1.2-.1 0-.2 0-.2-.1-.8-1.5-4-1.6-5.5-1.9-.1 0-.1-.1-.1-.2-.1 0 0-.1.1-.1"/><path d="m117.9 89.5c2.3.5 10.2 1.3 10.6 4.1 0 .1-.1.2-.1.2-.1 0-.2-.1-.2-.1-.8-2.5-8-3.3-10.4-3.8-.1 0-.2-.1-.1-.2 0-.1.1-.2.2-.2"/></g><path clip-path="url(#2)" fill="url(#3)" d="m189.8 113.5l1.2-64.2-33.3-.6-1.2 64.2z"/><path fill-rule="evenodd" fill="#8dc9c8" d="m190.7 158.9c-1.9-.6-3.7-1.5-5.3-2.5.8 2.7.5 6.7.5 9.4.5.1 1 .2 1.5.3 0 0-.1-.1-.1-.2.3-2.2 1.6-3.8 3.2-5.3 0 0 .1-.1.1-.1l.5-.3c-.4-.7-.3-.4-.4-1.3"/><path clip-path="url(#4)" fill="url(#5)" d="m210.7 120l6.6-68.9-47.1-4.5-6.7 68.9z"/><g fill-rule="evenodd"><path fill="#8dc9c8" d="m212.6 153.3c-2.1 2.1-4.6 3.7-7.3 4.7-.3.1-.5.2-.8.3.3.8.4 1.5.2 2.1 0 0 .1 0 .1 0 .1.1.2.1.3.2 2.5 2.8 4.3 7.7 4 11.5 0 0 0 .1 0 .1 0 .1 0 .1 0 .2 0 .1 0 .1-.1.1-.1.2-.1.2-.2.2-.1.2-.2.2-.4.1-.4 1.6-.7 3-1.1 4.4.1 5.4-.6 9.7.2 15 .2 1.4.5 2.9.8 4.3.1 0 .2.1.1.2 0 .1 0 .1-.1.2.3 1.9.7 3.7.8 5.6.7 3.5 1 7.2 1 10.3.8-.3 1.5-.7 2.3-1 .4-16.4.4-32.6.2-48.9.1-3 0-6.3 0-9.6"/><g fill="#dfdfdf"><path d="m89.8 162c2.6-2.2 2.6-1 2.7-3.6-.2 0-.4.1-.5.1-3.1.6-5.3.5-5.3.5-.8.1-1.6.1-2.3.2.1 2.5 0 4.8.2 7.3 1.4-1.4 3.6-3.2 5.2-4.5"/><path d="m87 196.3c1.3-6.6 1.8-15 .5-20.2-.4.6-.8 1.2-1.1 1.8 0 0 0 0 0 .1 0 .1 0 .1-.1.2-.1.1-.2.1-.3 0-.1.2-.2.3-.3.5 0 0 0 0 0 .1-.1 4.8 1 11.3 1.2 16.3l.1 1.2"/></g><path fill="#fdd0ad" d="m66.4 211l.7.2.6.2c.1 0 .2.1.2.2 0 .1-.1.2-.2.2-1-.3-.5-.1-1.5-.4-.1 0-.2-.1-.1-.2.1-.1.2-.2.3-.2m1.2-2.7c.1-.1.2-.2.2-.3 0-.1.1-.2.2-.2.1 0 .2.1.2.2-.2.5-.7 1-1.2 1-.6.5-1.1.5-2 .3-.1 0-.2-.1-.1-.2 0-.1.1-.2.2-.1.7.1 1.9-.2 2.5-.7zm13.1-21.1c1-3.9 2.8-5.8 5-9.1 0-.1 0-.1.1-.1-1.3-1.3-2.2-2.1-3-3.8-.8-1.7-.6-1.5-.7-1.6-2.2 3.6-3.1 7-5.8 10.7-3.4 4.8-4.5 11.9-6.8 17.1-.7 1.7-3.7 5.8-5.6 6.7-2.8 1.2-4.3-.4-5.2 1.6.6 1.2 6.7-.8 4.1 2.4-.2.3-5.2 5.6-2.9 5.1 1.8-.4 6-7.9 2.9 1 1.5 1.5 2.7-4.5 3.1-2.7.5 1.8-.8 2.6.4 2.8.6-.7.9-4.7 1.7-3.1.3.6-.4 1.6.2 2 .4-.3 1.2-4.1 1.2-4.2.7-2.3.7-2 1.3-4.6 1.4-6.3 4.7-8.1 7.4-13.3 1.4-2.5 1.9-4.3 2.6-6.9"/><path fill="#98cf92" d="m88.5 178c2.1 4.1 17.6-.7 20.2-2.7.9-.7 1.6-1.8 1.6-3 0 0 0-.1 0-.1-.5-3.4-1.2-6.7-1.2-10.4-.1 0-.1-.1-.1-.2-.3-2-.1-1-.4-2.8 0-.1.1-.2.2-.2.1 0 .2.1.2.2.3 1.5.2.9.4 2.3.8-.4 1.6-.8 2.4-1.2 0 0 0-.1 0-.2l.1-.4v-.5c.1-2.6-.5-3.8-2.5-5.2-.6.3-1.1.6-1.7.9-1.7.9-2.8 1.1-4.4.9.1 2.3-.1 4.8-2.4 6.1-2.8 1.6-5.9.1-8.4-1.3-.3.6-.9.7-2.6 2.1-1.6 1.4-3.8 3.2-5.3 4.6-.7.6-1.3 1.3-1.8 2 0 0 0 0 0 .1 0 1.9 2.3 6.5 3.9 7.3.1 0 .1.1.1.1.1-.2.3-.5.4-.7 0-.1-.1-.2-.1-.3 0-.1 0-.2.1-.2.1 0 .2 0 .2.1.1-.1.1-.2.2-.3 0-.1 0-.1.1-.2.1-.2.2-.4.4-.6 0-.1.1-.2.2-.1.1 0 .1.1.1.2.8-.8 1-2.1 1.1-3.1 0-.1.1-.2.2-.2.1 0 .2.1.2.2-.2 1.5-.5 3.1-1.9 3.9-.1.2-.3.5-.4.7.2.7.4 1.4.5 2.2.3-.1.4-.1.4 0"/><path fill="#8ec748" d="m106.3 177.1c-3.2 1.2-15.4 5.1-18 1.4 1 6.7-.1 16-1.8 22.2 0 0 0 0 0 .1 3 6.1 15.8 3.4 21.1 1 1.8-7.4 3.3-15 3.5-20.8.1-2.7-.2-5.2-.6-7.7-.7 2.1-2 2.9-4.2 3.8"/><path fill="#a7aaab" d="m104 206.2c-4.3 1.9-17.2 3-18.2-3.4-1.6 4.7-3.8 10-5.1 14.6 4.7-.7 9.5-1 12.2-1.1 4.1-.3 7.6-.3 10.9-.6.9-3.2 2-7 3-10.9-.8.4-2 1.1-2.8 1.4"/><g fill="#619a40"><path d="m86.2 202.4c.4 6.4 13.7 5.2 17.6 3.4.9-.4 2.1-1.1 3.1-1.6 0 0 0 0 .1 0 .2-.6.3-1.3.5-1.9-5.7 2.4-17.8 4.8-21.2-1.1-.1.3-.2.6-.3.9 0 0 0 .1 0 .1.1 0 .2.1.2.2"/><path d="m83.2 173.9c.8 1.7 1.7 2.5 2.9 3.7.2-.4.4-.7.6-1.1 0 0-.1 0-.1 0-1.7-.9-3.9-5-4.1-7.3-.3.4-.6.8-.8 1.3 0 .1-.1.1-.1.1.4.6.6 1 .7 1.2 0 0 .1.1.1.1.4.9-.2-.2.8 2"/><path d="m92.9 159.8c2.4 1.4 6 3 8.6.8 1.6-1.4 1.6-3.4 1.5-5.3-.3 0-.6-.1-.9-.1 0 .4-.1.9-.3 1.4-.5 1.5-2.1 2.8-3.8 3.1-1.7.3-3.3-.2-4.4-1.6-.3.1-.5.1-.8.2 0 .7 0 1.2-.1 1.5.1 0 .1 0 .2 0"/><path d="m109.8 153.3c2 1.5 2.6 2.7 2.5 5.5 0 .5 0 .5-.1.8.6-.3 1.1-.7 1.7-1-.1 0-.2-.2-.1-.3.6-2.8-.6-4.2-2.8-5.6-.4.2-.8.4-1.2.6"/></g><path fill="#fff" d="m162.5 121.2c-7.2 7.1-9.7 25.3-9.4 35 .3 12.5 2.8 20.3 8.8 31.1 0 0 .1 0 .1.1.6.9 2.4 4.3 3.8 4.3 2.3 0 1.2-8 1-9.2-1-2.8-2.3-2.1-4-5.6-5.1-10.9-7.3-26.7-2.8-38.1 1.9-4.8 5.7-8.2 5.1-13.9-.4-3.3-1.9-4.4-2.6-3.7"/><path fill="#98cf92" d="m190.7 170c-.1-1.7 0-.9-.1-2.3 0-.1.1-.2.2-.2.1 0 .2.1.2.2.1 1.3.1.6.2 2.3 0 .1-.1.2-.2.2-.2 0-.3-.1-.3-.2m-26-7.3c.1.1 0 .2 0 .3-.1.1-.2 0-.3-.1-.6-.9-.7-1.5.2-2.1.1-.1.2 0 .3.1.1.1 0 .2-.1.3-.7.4-.6.7-.1 1.5zm28.3 4.3c-6.3.4-15.2-3.5-21.6-5-2.7-.6-5.3-1.2-8-2-.2.9-.5 2.4-.9 3 2.4.7 3.5 1.7 5.7 2.4 0 0 0 0 .1 0 1.1-.8 2.3-1.3 2.9 0 .1.2.1.5-.1.6 1.1-.1 1.8.3.5 1.6.2 0 .5 0 .8 0 .1 0 .3.1.3.3 2.1 1.2 7.3 2.3 9.4 2.6 0 0 .1 0 .1 0 .1-.2.3-.3.4-.3.1 0 .1 0 .2 0 .6-1.5 1.8-1.7 1.9.6 2.7.3 4.3 0 7-.2.7-.1 1.3.1 1.7.1-.1-.7-.4-3-.4-3.7m-15.9-2.4c-3.8-1.1-7.8-1.8-11.4-3.2-.1 0-.1-.1-.1-.2 0-.1.1-.1.2-.1 3.4 1.2 6.7 1.8 10.2 2.8 3.6 1.1 9 2.9 12.5 3.4.1 0 .2.1.2.2 0 .1-.1.2-.2.2-3.2-.5-8.1-2.1-11.4-3.1"/><path fill="#dfdfdf" d="m182 170.9c-2.3-.3-7.1-1.3-9.3-2.5 0 .3-.2.6-.4.9 1 0 1.7.7.1 2.4.3.6 1.7.7 2.3.6.1 0 .2 0 .2.1 1.5 0 4.3.3 5.5 1 .1 0 .1.1.1.1.2-.4.5-.6.9-.5.2-.9.4-1.6.6-2.1"/><g fill="#fdd0ad"><path d="m180.3 173.7c-1.1-.7-4.3-.9-5.6-1 0 0-.1 0-.1 0-.8.1-1.9-.1-2.4-.8-.1.1-.1.1-.2.2.3 1.2.7 1.1-.3 2.5-.1.1-.2.1-.2 0-.1-.1-.1-.2 0-.2.7-1.3.5-1.2.3-2-.2.2-.5.4-.8.7-.1 0-.2 0-.3-.1 0-.1 0-.2.1-.3.2-.2 2.8-2.7 2-3h-.5c-.7.1-1.1.5-1.3.7 0 0 0 .1-.1.1-.1.2-.2.2-.3.1-.2-.2 0-.5.3-.7.2-.2.5-.4.8-.6.4-.3.8-.8.7-1.4-.4 0-1.1.1-1.4.3-1 1-1.7 1.1-1.3.5.2-.2.5-.5 1-.9 2.4-1.7 1.1-1.7-.1-1.3-.5.3-1.2.6-1.4.9-.1.1-.2.2-.2.1-.2-.1-.2-.2-.1-.3.3-.5.9-.9 1.6-1.1.4-.3.7-.5.6-.7-.7-1.6-3.3.9-3.7 1.5-1.1 1.5.4 4.3 1.1 5.8 0 0 .1.1.1.1 2.1 4 7.8 4.6 11.8 4.7-.2-.2-.3-.5-.3-.7-.1-.5 0-2.1.5-3.2-.3.1-.3.1-.3.1"/><path d="m181.3 173.3c-.8.1-1.1 3-1 3.6.2 1.4 3.2 2.9 4.3 3.5 0 0 .1 0 .1 0 3.6.9 6.7 1.8 10.4 2.4 0 0 .1 0 .1 0 2.1.1 6.6 1.1 8.1-.2 2-1.6 2.9-3.3 3.6-5.3 0-.1 0-.1 0-.2 0-.1.1-.2.1-.2.5-1.6.8-3.4 1.3-5.2-1-1.4-2.8-1.3-4.4-.6 0 0 0 .1 0 .1-1 2.3-1.3 4.4-1.6 6.9.7.2 1.5.4 2.2.7.1.1.1.2 0 .2-.1.1-.2.1-.2 0-3.6-1.4-6.1-.8-9.9-.6 0 0-.1 0-.1 0-2.2-.3-5.1-.6-4.9-3.4.1-1.3.1-2.5-.3-3.8 0 0 0 0 0-.1-.6 0-1.2.1-1.7.1.1 1 .3 3.2-1.3 3.1-2.3-.3-1.7-2.5-1.9-4.1-.3-2-1.6.3-1.3 2.5 0 .1 0 .2-.1.2-.1 0-.2 0-.2-.1-.1-.9-.1-1.6.1-2.2-.7.8-1.1 3.1-1.2 4.1 0 .1 0 .2-.1.2-.1 0-.2 0-.2-.1-.1-.1 0-.8.1-1.5"/></g><path fill="#8ed8f8" d="m184.7 171.2c0 1.2-.1 2.6 1.5 2.8.2 0 .4-.1.6-.2.3-1.3.3-1.1.2-2.5-.7.1-1.4 0-2.3-.1"/><path fill="#5aba48" d="m189.5 171.2c.4 1.3.5 2.5.3 3.9-.2 2.6 2.8 2.8 4.7 3 0 0 0 0 .1 0 2.8-.2 5-.5 7.4-.1.2-2.2.4-3.4 1.1-5.6l.1-.2c0 0 0 0 0 0-.7-.3-.4-1.3-.3-1.9.3-1.4.2-3.1.3-4.6 0-.1.1-.1.2-.1.1 0 .1.1.1.2 0 2-.1 3.2-.4 5.2 2-1.1 4.3-1.5 5.6.4 0-2.3-.4-3.9-1.4-6.3-.3-.8-2-4.1-2.7-4.4 0 0 0 0-.1 0-1.6 3.9-12.5 3.4-14 .3-1.4 1.3-2.6 2.9-2.9 4.9 0 .1-.1.2-.1.2.2 0 .4.1.7.1.4-1.5.1-.8.9-2.4.1-.1.2-.1.2-.1.1.1.1.2.1.2l-.5 1.2-.3 1c.2 0 .5.1.7.1 5 .7 3.9-1.1 4.3 2.4.4 3.1.8 2-1.8 2.2-.9.3-1.6.4-2.3.4"/><path fill="#8dcfb3" d="m190.8 160.9c1.4 3.3 15.8 3.5 13.4-2.5-.7.3-1.3.5-2 .7.3.8-3.4 2.2-3.9 2.3-1.5.3-5.8.4-5.6-1.8 0-.1 0-.1 0-.2 0 0-.1 0-.1 0-1.2 1.1-.6.7-1.8 1.5"/><path fill="#fdd0ad" d="m193.1 159.6c.5 2.8 6.4 1.9 8.7-.4-2 .5-4.1.7-6.3.6-.8 0-1.6-.1-2.4-.3 0 .1 0 .1 0 .1"/><path fill="#5aba48" d="m203.6 183c-1.8 1.4-6.3.4-8.5.3 0 0-.1 0-.1 0 0 0-.1 0-.1 0-2.8-.5-5.3-1.1-7.9-1.8-.3 5-1.8 9.6-2.2 14.4 0 .4-.1.6-.2.9 1.1 1 3.5 1.8 4.9 1.2 3.7-1.5 6.5 2.3 12.5-.1 2.6-1 2.5-1.1 5.3-.8.2 0 .5 0 .7 0-.3-1.5-.5-3-.8-4.5-.8-5-.2-9.1-.2-14-.7 1.5-1.7 3-3.4 4.4"/><path fill="#8ed8f8" d="m203 197.9c-4.6 1.8-4.7 1.5-9.7.4-3.3-.7-3.7.5-5.5.3-.1 4.1-.4 8.1-.6 12.1 4-.3 7.1 1.2 10.5 2.7-.1-1.4-.3-2.7-.7-4.2 0-.1 0-.2.2-.2.1 0 .2 0 .2.2.3 1.6.6 3 .7 4.4 0 0 .1 0 .1 0 4.1 1.8 7.9 1.1 11.6-.5 0 0 0-.1 0-.1-.2-2.8-.4-5.8-.8-8.7-.1 0-.1-.1-.1-.2-.1-.5-.1-1.1-.2-1.6-.3-1.6-.7-3.2-1.2-4.7 0-.1 0-.2.1-.2.1 0 .2 0 .2.1.1.2.1.3.2.5 0-.3-.1-.6-.1-.8-.7.2-2.3-.4-4.9.5"/></g><g fill="#fbb03f"><use xlink:href="#B" fill-rule="evenodd"/><path clip-path="url(#6)" d="M156.4 61.7 143.2 5.3 72.8 21.5 86 78z"/></g><g fill="#fbb03f"><use xlink:href="#C" fill-rule="evenodd"/><path clip-path="url(#7)" d="m165 50.7l2.7-25.8-25.8-2.7-2.7 25.8z"/></g><g fill-rule="evenodd"><path fill="#fdd0ad" d="m134.2 115.3c-.3-1.6-.6-4.7-1.9-4.3-1.7.6-.8 3-.3 5.5.3 2 .3 3.9-1.7 5-1.1.6-2.8-.8-3.3-1.7 0 0 0 0 0-.1-.5.1-1 .2-1.5 0-.2.6-.1 1.6.8 2.5 2.3 2.1 2.8 2.7 2.5 6.4-.6 9.7-9 18.5-17.4 23.8 2.3 1.5 3.5 3 2.9 6 5.8-3.7 11.5-9.1 14.6-14.4 2.9-5.9 3.3-9.9 4.6-16.4.4-2 .7-2.9 1.7-4.7 2.2-2.9 3.2-3.3 2.5-6.7-1-.2-.8.9-.9 1.6v.1c0 .1 0 .1 0 .2-.2.1-.1.1-.3 0v-.2h-.1c0-.2 0-.4 0-.7-.1-1.8-.4-5.9-1.5-3.8-.4.9 0 1.9-.1 2.4 0 .1-.1.2-.2.2 0 0-.1-.1-.1-.2h-.1c-.1-.1-.2-.3-.2-.5"/><path fill="#8ed8f8" d="m131.2 119c-.1.1-.3.3-.4.4-.4.5-.8.9-1.4 1.1-.5.1-.9.1-1.4 0 .6.5 1.3 1 1.9.7 1-.4 1.5-1.2 1.6-2.2-.1 0-.2 0-.3 0"/><g fill="#c6933c"><path d="m108.3 42.6c.1-.1.2-.1.3 0 1.9-.1 2.6 2.3 2 3.9-.1.4-.4.9-.6 1.5 1.9-3.5 1-6.3 0-9.7-2.3 3.8-5.9 5.3-10.3 5.6-5.3.4-9.3-1.3-12.9-5 .2.4.4.7.5 1 3.6 5.5 14.4 8.8 19.9 4l1-1.1c0-.1 0-.2.1-.2"/><path d="m123.5 36.4c-1.2 3.7-3.1 5.2-4.3 8.1-.1.3 0 .6.1.9 2.4-.1 7.3-.8 7.8 2.6.1.3 0 .6-.1.8 0 0 0 0 .1 0 2.2.6 4.9.2 6.2-1.9 0 0 .1-.1.1-.1-.4-1.2-.7-2.4-.9-3.6-.7 1.5-3.4 2-4.9 1.8-4.1-.7-4-2.6-3.8-6.3.1-1.7.2-2.8.1-3.8-.2.6-.3 1-.4 1.5"/><path d="m137.5 44.2c.6 1.4.9 2.9 1.3 4.4 1.1 1.1 2.6 1 4.1.9-.3-.1-.5-.1-.6-.2-3.7-.8-2.1-3.4-4.8-5.1"/><path d="m158.9 43.1c-1.8 1.8-4.1 3.3-6.6 3.9.1.3.3.5.4.8.3 0 .6-.1.8-.2-.1-.2-.1-.4-.2-.6 0-.1.1-.2.2-.2.1 0 .2.1.2.2 0 .2.1.4.2.5.2-.1.4-.1.7-.2-.1-.1-.1-.2-.2-.4-.1-.1 0-.2.1-.3.1-.1.2 0 .3.1l.3.5c1.1-.4 2.2-.8 3.2-1.3 4.9-2.5 6.9-10.8 4.6-16 .1 1.7-.2 3.3-.5 5.1-.7 3.2-1.1 5.7-3.5 8.1"/><path d="m152.4 47.8c-.1-.2-.2-.5-.4-.7-2 .5-4 .4-6-.4 1.9 1.2 4.1 1.5 6.4 1.1"/><path d="m144.2 47.2c0-.5.1-.7.2-1.2 0 0 0-.1 0-.1-.1-.1-.1-.2 0-.3-1.2-1.2-2-2.8-2.4-4.6 0 .3 0 .6 0 .9-.1 1.9-.2 4.3 1.4 5.2.3 0 .5 0 .8.1h-.1c.1-.1.1-.1.1 0m.3-1.3c0 0-.1-.1-.1-.1 0 .1 0 .1.1.1z"/><path d="m123.6 49.5c2.6-.2 4.1-.3 2.4-2.8-.4-.5-1-.7-1.7-.8 1 .8.6 2.7-.7 3.6"/><path d="m142.7 59c-3.3-3.6-3.1-6-4.4-10.5-.5-1.6-.6-2.8-1.3-4.4.3 2 .3 3.8.8 5.7.9 3.6 1.3 4.3 3.1 7.3.6 1 1.4 2.5 1.2 3.7.7.5.8 1 .7 1.5.1 0 .2-.1.2 0 2.4 1.1.9-1.8.3-2.6l-.6-.7"/></g><g fill="#a7aaab"><path d="m144.6 62.5c1.7-.5.2-4.3-.3-5.2-1.9-3.2-2-2.7-1.8-6.6 0-.2.1-.5.2-.7-.6 0-1.2 0-1.7 0-.6 0-1.2 0-1.8.1.7 3.1 1.6 6.2 3.9 8.6 1 1.1 1.8 2.9 1.5 3.8"/><path d="m116 148.3c2-4.9 2.2-5.2.2-9.6-1.9-4.2-5.2-7.6-9.5-9 1.2 2.5 3.5 8.1 2.7 12.7-.9 4.7-3.6 8.9-7.2 11.8l-.1.2c0 .1 0 .3 0 .4.4 0 .7.1 1.1.1 0 0 .1 0 .1 0 1.5.1 2.6 0 4.3-.9 1-.5 2.1-1.1 3.2-1.8 0-.1.1-.1.2-.1 1.7-1.1 3.5-2.3 5.1-3.7-.1 0-.1 0-.1-.1"/></g><path opacity=".18" d="m109 142.4c1.1-5.9-3.2-13.6-3.3-13.8l.3.6v-.3-.3c0 0 0 0 0-.1 0-.2 0-.8-.2-1.7v-.2c0-.1 0-.2 0-.2-.5-2.3-1.8-6.1-5.8-8.8l2.7.6-.3-.4c-.1-.1-5.4-6.7-19.8-3.9-.7.1-1.3.3-1.9.5 0 0 0 .1 0 .1-.1 0-.2 0-.2-.1-.3.1-.7.2-1 .3.3 0 .7-.1 1-.1.3 0 .7-.1 1-.1 3.3-.2 5.5.7 9.8 1.9 1 .3 1.7.4 2.5.6.7.1 1 .3.9.5 0 .1-.5 0-1.1-.1-.8 0-2 .1-2.7.2 3.4 1.4 5.6 2.1 7.5 3.5.3.2.6.5.9.7.3.3.6.5.9.9 1 1.1 2.1 2.5 3.3 4.4 2.3 3.7 3.1 6.5 3.5 10.9.3 3.2-.7 8.4-2.1 11.4l-.5 1.2-.7 1.5-.6 1.1c.2-.2.4-.4.6-.6.7-.7 1.3-1.4 1.9-2.2.3-.4.5-.7.8-1.1 1.1-2.1 2.1-4.5 2.6-6.9m-3.3-13.8c0 0 0 0 0 0z"/><path opacity=".16" d="m130.3 132.3c-1.6 10.1-2.1 13.1-10.2 19.8-1.6 1.3-3.7 3-5.8 4.3.1.6 0 1.3-.1 2 5.8-3.7 11.5-9.1 14.6-14.4 2.9-5.9 3.3-9.9 4.6-16.4.4-2 .7-2.9 1.7-4.7 2.2-2.9 3.2-3.3 2.5-6.7-.2 0-.3 0-.4 0-.2.4-.3.7-.5 1.2 0 .1 0 .3 0 .4v.1c0 .1 0 .1 0 .2-.1.1-.1.1-.2.1-.6 1.6-1.3 3.4-2.1 4.3-3.2 3.3-3.4 5.1-4.1 9.8"/><path opacity=".16" d="m110.4 172.2c-.5-3.4-1.2-6.7-1.2-10.4-.1 0-.1-.1-.1-.2-.1-.5-.1-.8-.1-1-.3 2.4-.4 4.3-1 7.1-.7 3-1.1 5.9-1.4 8.9 1-.4 1.8-.9 2.2-1.2.9-.7 1.6-1.8 1.6-3 0-.1 0-.2 0-.2"/><path opacity=".16" d="m110.6 173.3c-.7 2.1-2 2.9-4.1 3.8-.3 3.2-.5 6.4-.9 9.8-.6 5.4-.5 10.7-1.2 16.1 0 .1 0 .2 0 .3 0 .1 0 .1 0 .2 1.2-.4 2.4-.8 3.3-1.1.1 0 .2-.1.2-.1.1 0 .2-.1.3-.1.1-.1.2-.1.4-.2.1-.1.1-.2.1-.3-.1-.1-.2-.1-.3-.1-.1 0-.2.1-.3.1-.1 0-.2.1-.2.1 1.8-7.4 3.3-15 3.5-20.8-.2-2.8-.5-5.3-.8-7.7m-6.3 29.6c1.3-.4 2.4-.8 3.4-1.2-1 .4-2.1.8-3.4 1.2z"/><path opacity=".16" d="m107.5 202.3c-.9.4-2.1.8-3.3 1.1 0 .3-.1.7-.2 1-.1.4-.2.9-.4 1.5.1 0 .1 0 .2-.1.9-.4 2.1-1.1 3.1-1.6 0 0 0 0 .1 0 .2-.7.4-1.3.5-1.9"/><path opacity=".16" d="m106.9 204.7c-.9.5-2.1 1.2-2.9 1.5-.2.1-.3.1-.5.2-.9 2.5-2.7 6.2-4.3 9.5 1.7-.1 3.2-.2 4.8-.3.8-3.2 1.9-7 2.9-10.9"/><g fill="#fff"><path d="m77.8 184.1c1.6-3.9 2.7-7.2 4.8-10.6-.5-1-.3-.9-.4-1-2.2 3.6-3.1 7-5.8 10.7-2.9 4.1-4.1 9.8-5.8 14.7 3.3-4 4.8-8 7.2-13.8"/><path d="m82.9 168.9c0 .7.3 1.7.8 2.8 0 0 .1-.1.1-.1 2.1-3 3.9-6.2 6-9.2-1.6 1.3-3.7 3.1-5.1 4.5-.7.6-1.3 1.2-1.8 2"/><path d="m83.4 172.2c-.5-1-.8-2.1-.9-2.8-.3.4-.6.8-.8 1.3 0 .1-.1.1-.1.1.4.6.6 1 .7 1.2 0 0 .1.1.1.1.4.6 0 0 .4 1 .2-.3.4-.6.6-.9"/><path d="m186.9 181.5c-.3 4.5-1.5 8.7-2.1 12.9 1.6-2.3 2.4-4.5 2.8-8.5.3-2.2.1-2.2-.7-4.4"/></g><path fill="#609594" d="m208 197.5c-.5.1-1.3-.1-2.4-.1.1 1.2.2 2.4.5 3.6.2 1.3.3 3.1.6 4.7.6 3.2 1.2 5.6 1.6 8.2.6-.2 1.1-.4 1.7-.6 0 0 0-.1 0-.1-.2-2.8-.4-5.8-.8-8.7-.1 0-.1-.1-.1-.2-.1-.5-.1-1.1-.2-1.6-.3-1.6-.7-3.2-1.2-4.7 0-.1 0-.2.1-.2.1 0 .2 0 .2.1.1.2.1.3.2.5-.1-.4-.2-.7-.2-.9"/><path opacity=".2" d="m204.5 182.1c1.1 5.1.6 9.8 1 14.8.4 0 1 0 1.7.1.2 0 .5 0 .7 0-.3-1.5-.5-3-.8-4.5-.8-5-.2-9.1-.2-14-.5 1.3-1.2 2.5-2.4 3.6"/><path opacity=".2" d="m203.1 162.4c1.8 1.6 3.7 3.4 3.6 7.9.8.1 1.5.5 2.1 1.3 0-2.3-.4-3.9-1.4-6.3-.3-.8-2-4.1-2.7-4.4 0 0 0 0-.1 0-.3.5-.8 1.1-1.5 1.5"/><path opacity=".2" d="m202.9 162.3c.7-.4 1.3-.9 1.6-1.6 0 0 0-.1 0-.1 0 0 0-.1.1-.1 0 0 .1 0 .1 0 .2-.6.1-1.3-.2-2.1 0 0 0 0 0-.1 0 0 0-.1 0-.1 0-.1-.1-.1-.2-.1-.1 0-.1.1-.1.2 0 0 0 0 0 .1 0 0 0 .1 0 .1-.7.3-1.3.5-2 .7.1.3-.4.7-1.1 1.1.4.7 1.1 1.3 1.8 1.9 0 0 0 0 0 .1m-.1-.1c1.4-.8 2-2 1.3-3.7.8 1.7.1 2.9-1.3 3.7z"/><path opacity=".2" d="m206.6 170.7c-.1 1.8-.6 3.9-1.5 6.6-.2.5-.4 1-.6 1.6 0 .1-.1.2-.1.3-.7 1.6-1.6 3.2-2.9 4.1-.1.1-.3.2-.4.2 1 0 1.8-.2 2.3-.7.3-.2.5-.4.7-.6 0-.1 0-.2.1-.2 0 0 .1 0 .1 0 .9-.9 1.4-1.5 2.1-2.9.1-.3.3-.6.4-1 .1-.2.1-.4.2-.6 0-.1.1-.3.1-.4.4-1.3.7-2.8 1-4.1-.1 0-.1-.1-.1-.2 0-.1.1-.1.2-.1 0 0 0 0 .1 0h.1c0-.1.1-.3.1-.4 0-.1.1-.2.1-.4 0-.1 0-.1 0-.2 0-.1 0-.2-.1-.2-.1 0-.1 0-.2 0 0 0-.1.1-.1.1 0 .1 0 .1 0 .2-.3-.7-.9-1-1.6-1.1m.5 6.3c0 .1-.1.3-.1.4v-.2c-.1-.1 0-.2.1-.2zm-5.5 6.3c.7-.1 1.3-.3 1.8-.6-.5.3-1.1.5-1.8.6m3-4.4c0 0 0 0 0 0"/><path fill="#fff" d="m168.1 172.6c.5-1.9.1-4.3-.8-5.7-.1.1-.1.2-.2.2-1 1.4.2 3.9 1 5.5"/><path opacity=".16" d="m113.8 158.3c.1-.6.2-1.2.2-1.6-.5.3-1.1.7-1.6.9 0 .4 0 .8 0 1.2 0 .5 0 .5-.1.8.6-.3 1.1-.7 1.7-1-.2-.1-.3-.2-.2-.3"/><path opacity=".16" d="m111.9 158.8c0-.4 0-.7 0-1-.3.2-.7.3-1 .5-2.9 1.2-1.5.5-1.9.7.3 1.4.2.8.3 2.2.8-.4 1.6-.8 2.4-1.2 0 0 0-.1 0-.2l.1-.4.1-.6"/><path fill="#f26445" d="m62.9 142.9c.1-7.2 2.2-10.3 6.8-15.5 1.3-1.4 1.8-2.4 2-1.5.7-2.5 2-5.9 2.3-6.5.3-.6.5-1.2.8-1.7-1.3.9-2.3 1.9-3 2.8-1.1 1.3-1.6 2.3-1.6 2.4l-.3.5-.5-2.7-1 1.8h-.1c0 0-.4 0-.9.1-.9.2-2.1.6-3.1 1.8.6-.1 1.3-.1 1.7.1.1.1.2.2.2.4v.1l-.1.1c-.1 0-7.5 4.6-6.2 15.7l1.4-.5-.1.3c0 .1-1 5.9 2.7 10.6l.6-.6c-1-2.8-1.6-5.6-1.6-7.7"/><path fill="#84542c" d="m181.5 113.4c-7 3.8-11.1 10.3-11.9 11.6l1.7 2.5c1.3-2.5 2.7-3.7 2.8-3.7l.3.2c-1 1.8-1.8 4.9-1.9 5.4l1.8 3.6c.3-.6.7-1.3 1.1-1.8.9-4.4 3.1-9 5.8-12.3 1.7-2 4.3-4 7.2-5.6.1 0 .1-.1.2-.1.1 0 .1-.1.2-.1 2.9-1.7 6.1-3 8.6-3.6.8-.2 1.8-.4 3-.6-1.2-.3-2.3-.5-3.4-.5-3.7-.2-6.9.6-8 .9l2 1.4h-.5c-.6 0-1.2.1-1.8.2-.1 0-.1 0-.2 0 0 0-.1 0-.1 0-2.3.4-4.4 1.2-6.4 2.2-.1 0-.1.1-.2.1-.1.1-.2.2-.3.2"/><path fill="#c0c3c3" d="m162.7 121.1c3.8 2.7-.9 11.2-2.4 14.2-2.9 6-4 10.2-4.3 17-.1 2.6.3 5.4.4 8.1 0 4.3 2.1 12 4.3 15.9 2.2 3.8 5.8 7.7 6.5 12.2.1-2.4-.3-5.2-.5-5.9-1-2.8-2.3-2.1-4-5.6-5.1-10.9-7.3-26.7-2.8-38.1 1.9-4.8 5.7-8.2 5.1-13.9-.2-3.1-1.5-4.3-2.3-3.9"/><path d="m166.3 163.5c2.2.9 1.1.4 3.2 1.3.1 0 .1.1.1.2 0 .1-.1.1-.2.1l-1.6-.6-1.6-.7c-.1 0-.1-.1-.1-.2 0-.1.1-.1.2-.1"/><path d="m171 165.4c3.9 1.7 11.7 3.3 16 3.5.1 0 .2.1.2.2 0 .1-.1.2-.2.2-4.4-.2-12.2-1.8-16.2-3.6-.1-.1-.1-.2-.1-.3.1 0 .2 0 .3 0"/></g></svg>