<svg xmlns="http://www.w3.org/2000/svg" viewBox="0 0 300.6 90.3" enable-background="new 0 0 300.6 90.3"><g fill="#fff"><path d="m51.2 61.7c0 7.7-5.2 14-11.6 14-.7 0-1.6 0-2.2-.3h-.1c-2.9-.7-6.2-2.8-6.2-6.5 0-2.5 1.7-4.7 4.3-4.7 2 0 4.9 1.8 4.9 4.1 0 1.9-1.6 3-2.6 3-.8 0-2.7-.8-2.7-2.4 0-.6.5-1 1.1-1 1.1 0 .9 1.6 1.7 1.6.1 0 .5-.4.5-1.1 0-1.3-1.5-2.1-2.7-2.1-1.4 0-2.5.8-2.5 2.5 0 3.3 3.6 5.2 6.5 5.2 5.3 0 9.6-5.5 9.6-12.2 0-5.3-2.2-9.5-6.2-11.6-.4-.2-.9-.5-1.7-.5-2.4-.2-3 .2-3-.7 0-.4.4-.7.7-.7 4.7.1 8.2-2.4 8.2-6.7 0-4.7-2.9-6.7-6.6-6.7-3.5 0-4.4 2.8-4.4 2.8-.1.2-.5.5-.9.5-.5 0-1-.4-1-.8 0-.2.1-.3.1-.4 0 0 1.4-3.5 5.8-3.7 4.9 0 8.6 3.1 8.6 8.2 0 2.5-1.1 5.5-3.5 7-1.1.7-1.4.6-1.3.7v-.2c4.5 1.4 7.2 7 7.2 12.7"/><path d="m68.2 74.4c0 .2-.9 3.9-.9 3.9-.1.4-.5.7-.9.7-.1 0-.1-.1-.2-.1h-.1c-.4-.1-.7-.4-.7-.9 0-.1.1-.2.1-.2l.5-2.4h-10.9l.6 2.4c0 .1 0 .2 0 .2 0 .5-.3.8-.8.9h-.1c-.1 0-.1.1-.2.1-.4 0-.7-.3-.8-.7l-.8-3.7c0-.1 0-.1 0-.1 0-.4.3-1 1-1h1l4.8-25c.1-.4.6-.7 1-.7h4.7c.5 0 .9.3.9.8v.1c0 .1 0 .2 0 .2v24.5h.7c.6.1 1.1.5 1.1 1m-11.2-.9h7.6v-23.8h-3.1l-4.5 23.8"/><path d="m71.8 61.4c0-7 2.3-14 6.4-14 4.1 0 6.2 7 6.2 14 0 7.1-2.2 14.4-6.2 14.4-4.1 0-6.4-7.3-6.4-14.4m2.1 0c0 7.2 2.3 12.5 4.3 12.5 2.2 0 4.4-5.3 4.4-12.5 0-7.1-2.3-12-4.4-12-1.9 0-4.3 4.9-4.3 12"/><path d="m100.9 61.5c0 8-4.2 14.5-9.5 14.3v13.6c0 .5-.6.9-1 .9h-.1c-.6 0-1-.4-1-.9v-40.8c0-.5.4-1 1-1h.1c.3-.1.7-.1 1.1-.1 5.1 0 9.4 6 9.4 14m-1.9 0c0-6.8-3.4-12-7.6-12-.1 0-.1.1-.1.1v24.4c0 0 .1 0 .1 0 4.2-.1 7.6-5.6 7.6-12.5"/><path d="m104.5 61.4c0-7 2.3-14 6.4-14 4.1 0 6.2 7 6.2 14 0 7.1-2.2 14.4-6.2 14.4-4.2 0-6.4-7.3-6.4-14.4m2.1 0c0 7.2 2.3 12.5 4.3 12.5 2.2 0 4.4-5.3 4.4-12.5 0-7.1-2.3-12-4.4-12-2 0-4.3 4.9-4.3 12"/><path d="m134.4 66.7c0 4.9-3.3 8.9-7.7 9h-.1c-2.5 0-4.6-.6-4.6-2.8 0-.4.1-.9.1-1.3 0-2.5.1-17.2.1-22.9 0-1.2 2-1.5 2.8-1.5h.1c3.5 0 6 2.9 6 6.4 0 1.8-1 3.5-2.3 4.6 3.1 1.1 5.6 4.5 5.6 8.5m-10.5-17.2c0 .6 0 4.1 0 8.2.4 0 5-.2 5.2-4.3 0-2.2-1.7-4.1-4.1-4.1-.4-.1-.7 0-1.1.2m8.6 17.2c0-4.3-3.1-7.3-6.4-7.3-.5 0-1.4 0-2.2.2 0 3 .1 6.2.1 8.8 0 2.5-.1 4.4-.1 4.6 0 .5 2 .8 2.6.8h.1c3.2 0 5.9-3.2 5.9-7.1"/><path d="m137.5 61.4c0-7 2.3-14 6.4-14 4.1 0 6.2 7 6.2 14 0 7.1-2.2 14.4-6.2 14.4-4.2 0-6.4-7.3-6.4-14.4m2.1 0c0 7.2 2.3 12.5 4.3 12.5 2.2 0 4.4-5.3 4.4-12.5 0-7.1-2.3-12-4.4-12-2 0-4.3 4.9-4.3 12"/><path d="m166.7 59.7v.4c0 .6-.4 1-.9 1h-10.3c0 .1-.1.4-.1.5 0 7.1 2.6 12.5 4.8 12.5 3.4 0 3.9-4.1 3.9-5.7 0-.2 0-.4 0-.5 0-.7.4-1 .8-1 .8 0 1 .5 1 1.6 0 1.9-.5 7.5-5.8 7.5-3.7 0-6.6-6.2-6.6-14.4s2.8-14.4 6.5-14.4c3.6 0 6.4 4.7 6.5 12.4.2.1.2.1.2.1m-11-.9h8.9c-.2-6-2.3-9.4-4.3-9.4s-4.1 3.7-4.6 9.4"/><path d="m191.3 48.6v.4 25.4c0 .6-.4 1-1 1-.5 0-.9-.4-.9-1v-24.4h-7v24.4c0 .6-.4 1-1 1h-.1c-.4 0-.8-.4-.8-1v-25.4-.4c0-.5.4-.8.8-.8h8.9c.7 0 1.1.3 1.1.8"/><path d="m208.9 74.5c0 .6-.4 1-.8 1h-.1c-.6 0-1-.4-1-.9l-.1-20.8-7.7 20.9c-.1.4-.4.7-.8.7h-.1c-.5 0-1-.4-1-.9l-.1-25.9c0-.5.4-.9.8-.9.6 0 1 .4 1 .9l.1 20.7 7.7-21.1c.2-.3.5-.5 1-.5.5 0 1 .4 1 .9l.1 25.9"/><path d="m226.3 48.7c0 .5-.5.8-1 .8h-5.3v25c0 .6-.4 1-.8 1h-.1c-.6 0-1-.4-1-1v-25h-5.3c-.5 0-1-.4-1-.8 0-.6.4-1 1-1h12.5c.5.1 1 .4 1 1"/><path d="m243.8 75.3c0 .3-.3 1-1 1-1.1 0-1.3-1.5-1.4-2.2-1.4 1-3 1.4-4.6 1.4-4.8 0-8.6-4.1-8.6-9.1 0-5 3.8-9.2 8.7-9.2 1.6 0 3.1.6 4.4 1.4 0-.6.1-1.2.1-1.7 0-4.2-.9-7.6-4.7-7.6-2.2 0-4.1.9-5.1 2.3 0 0-.2.4-.7.4-.4 0-1-.4-1-1 0-2.2 4.6-3.7 6.9-3.7 5.1 0 6.5 4.7 6.5 10.1 0 3.7-.5 7.9-.5 11.6 0 2.4.2 4.5 1 5.9-.1-.1 0 .1 0 .4m-2.9-5.5c0-2.9.2-6.6.4-8.9-1.2-.8-2.9-1.9-4.3-1.9-3.7 0-6.8 3.2-6.8 7.2s2.9 7.3 6.5 7.3c1.6 0 2.9-.5 4.2-1.5 0 0 0-.9 0-2.2"/><path d="m260 48.7v25.7c0 .6-.4 1-.9 1h-.1c-.4 0-.8-.4-.8-1v-13.7h-7.1v13.7c0 .6-.4 1-1 1s-.9-.4-.9-1v-25.7c0-.5.4-.9.9-.9s1 .4 1 .9v9.7h7.1v-9.7c0-.5.4-.9.8-.9h.1c.5 0 .9.4.9.9"/><path d="m277.6 74.5c0 .6-.4 1-.8 1h-.1c-.6 0-1-.4-1-.9l-.1-20.8-7.7 20.9c-.1.4-.4.7-.8.7h-.1c-.5 0-1-.4-1-.9v-25.9c0-.5.4-.9.8-.9.6 0 1 .4 1 .9l.1 20.7 7.7-21.1c.2-.3.5-.5 1-.5.5 0 1 .4 1 .9v25.9"/><path d="m295.4 59.7v.4c0 .6-.4 1-.9 1h-10.3c0 .1-.1.4-.1.5 0 7.1 2.6 12.5 4.8 12.5 3.4 0 3.9-4.1 3.9-5.7 0-.2 0-.4 0-.5 0-.7.4-1 .8-1 .8 0 1 .5 1 1.6 0 1.9-.5 7.5-5.8 7.5-3.7 0-6.6-6.2-6.6-14.4s2.8-14.4 6.5-14.4c3.6 0 6.4 4.7 6.5 12.4.2.1.2.1.2.1m-11.1-.9h8.9c-.2-6-2.3-9.4-4.3-9.4-2 0-4 3.7-4.6 9.4"/><path d="m54.7 24.5c3.7-5.5-4.5-10.2-7.2-3.8-2.8 6.5 4.9 11.9 10.3 7.9 7.1-5.3 4.2-14.9-2.1-19.6-7.2-5.3-19-2.1-25.6 2.8-4.1 3-6.9 7.2-8.5 12-.6 1.8-2.3 6.7-.4 8.3.7.6 1.8-.4 1.1-1.1-1.8-1.7-5.8-1.5-8-1.2-4.3.6-8.3 2.3-10.9 5.9-5.4 7.7-3.9 20.3 1.4 27.5 6 8.1 14.6 14.2 23.9 17.8 10.3 3.9 20.4 3.5 31.2 3.3 12.7-.2 25.3 0 38 0 25.9 0 51.8 0 77.8 0 26.6 0 53.3 0 79.9-.1 9.5 0 19-.1 28.5-.2 4.8-.1 9.9.3 14.7-.3.4 0 .8 0 1.1-.1.9-.2.5-1.6-.4-1.4-2.7.5-6.9.2-9.9.3-7.9.1-15.7.2-23.6.2-23.9.1-47.8.2-71.7.2-25.8 0-51.7 0-77.5 0-17.1 0-34.2 0-51.2 0-8.3 0-16.7.9-24.8-.2-10.9-1.5-21.2-6.5-29.3-14-5.2-4.9-9.1-10.3-9.8-17.5-.6-5.4-.1-11.9 4-16 2.3-2.2 5.1-3.2 7.9-3.7 1.8-.3 6.1-.8 7.6.7.4-.4.7-.7 1.1-1.1-1.2-1 .2-5.1.6-6.3 1-3.2 2.6-6.2 4.8-8.7 4.4-4.9 11-7.6 17.5-8 7.7-.5 15.3 4.4 15.3 12.8 0 4.1-3.9 8.5-8.3 7.3-2.7-.7-4.4-3.1-3.7-6.1.9-3.9 7.6-2.6 4.9 1.6-.6.8.7 1.6 1.3.8"/><path d="m17.6 26.2c-6.8-1.5-12.8-5.2-12.9-13 0-4.3 2.4-9.2-.6-12.9-.6-.8-1.7.3-1.1 1 2.3 2.9.4 8 .2 11.3-.1 2.5.5 4.7 1.6 7 2.4 5 7.2 6.9 12.4 8 .9.2 1.3-1.2.4-1.4"/><path d="m7.2 8.3c2.4 1.7 4.2 6.1 5.8 8.7 1.7 2.6 3.3 5.3 4.8 8 .5.8 1.8.1 1.3-.8-1.8-3.4-3.9-6.6-6-9.9-1.5-2.5-2.8-5.7-5.2-7.4-.8-.5-1.5.8-.7 1.4"/><path d="m6.6 13c1.6-.2 3.2 0 4.5 1 .8.6 1.5-.7.8-1.3-1.5-1.1-3.5-1.4-5.3-1.2-.9.2-1 1.7 0 1.5"/><path d="m8.5 18c1.5-.5 3.4-.6 4.9.1.9.4 1.6-.9.8-1.3-1.8-.9-4.1-.8-6-.2-1 .3-.6 1.7.3 1.4"/><path d="m19.3 24.7c1.8-4.4-.1-9.2-2.6-12.9-.5-.8-1.8 0-1.3.8 2.3 3.4 4.1 7.8 2.4 11.8-.3.8 1.2 1.2 1.5.3"/><path d="m20.3 30.8c-.2 1.9.2 6.8 3.2 6 1.2-.3 1.5-1.7 1.3-2.8-.3-1.3-1.2-2.4-2.3-3.1-.8-.5-1.6.8-.8 1.3.6.4 1.1.9 1.4 1.5.1.2.3.8.3 1.1-.1.8-.7.5-1 .1-.8-1.1-.8-2.9-.6-4.2.1-.8-1.4-.8-1.5.1"/></g></svg>