<!-- Generator: Adobe Illustrator 18.1.1, SVG Export Plug-In  -->
<svg version="1.1"
	 xmlns="http://www.w3.org/2000/svg" xmlns:xlink="http://www.w3.org/1999/xlink" xmlns:a="http://ns.adobe.com/AdobeSVGViewerExtensions/3.0/"
	 x="0px" y="0px" width="102.7px" height="102.7px" viewBox="0 0 102.7 102.7" enable-background="new 0 0 102.7 102.7"
	 xml:space="preserve">
<defs>
</defs>
<g>
	<path fill="#FFFFFF" d="M51.3,102.7C23.1,102.7,0,79.6,0,51.3C0,23.1,23.1,0,51.3,0c28.2,0,51.3,23.1,51.3,51.3
		C102.7,79.6,79.6,102.7,51.3,102.7z"/>
</g>
<g>
	<g>
		<path fill="#1C4C88" d="M78.4,45.4c0-7.6-6.2-13.7-13.7-13.7c-5.3,0-9.9,3-12.2,7.4c-2.3-4.4-6.9-7.4-12.2-7.4
			c-7.6,0-13.7,6.2-13.7,13.7c0,13.3,25.6,34,25.6,34S78.4,58.7,78.4,45.4z"/>
	</g>
</g>
</svg>
