<!-- Generator: Adobe Illustrator 18.1.1, SVG Export Plug-In  -->
<svg version="1.1"
	 xmlns="http://www.w3.org/2000/svg" xmlns:xlink="http://www.w3.org/1999/xlink" xmlns:a="http://ns.adobe.com/AdobeSVGViewerExtensions/3.0/"
	 x="0px" y="0px" width="102.7px" height="102.7px" viewBox="0 0 102.7 102.7" enable-background="new 0 0 102.7 102.7"
	 xml:space="preserve">
<defs>
</defs>
<path fill="#1C4B87" d="M51.3,102.7C23.1,102.7,0,79.6,0,51.3S23.1,0,51.3,0c28.2,0,51.3,23.1,51.3,51.3S79.6,102.7,51.3,102.7z"/>
<g>
	<polygon fill="#FFFFFF" points="56.5,16.2 51.7,12.8 46.9,16.2 19.4,35.5 19.4,35.6 19.4,35.7 46.9,55 51.7,51.6 56.5,55 
		83.9,35.7 83.9,35.6 83.9,35.5 	"/>
	<g>
		<g>
			<polygon fill="#FFFFFF" points="58.3,56.8 85.8,76.1 85.8,37.5 			"/>
		</g>
	</g>
	<g>
		<g>
			<polygon fill="#FFFFFF" points="17.6,37.5 17.6,76.2 45.1,56.8 			"/>
		</g>
	</g>
	<g>
		<g>
			<polygon fill="#FFFFFF" points="56.5,58.6 51.7,55.3 46.9,58.6 19.4,78 19.4,78 29,78 74.4,78 83.9,78 83.9,77.9 			"/>
		</g>
	</g>
</g>
</svg>
